<svg width="141" height="198" viewBox="0 0 141 198" fill="none" xmlns="http://www.w3.org/2000/svg">
<path d="M90.2 42.1114C88.4 42.1114 86.9 42.1114 84.9 42.1114C84.9 36.1114 85 30.2114 84.9 24.2114C84.8 16.8114 79.8 10.8114 72.8 9.61137C63.4 7.91137 55.2 14.4114 54.8 24.0114C54.6 28.7114 54.8 33.3114 54.8 38.0114C54.8 39.3114 54.8 40.5114 54.8 42.0114C53 42.0114 51.5 42.0114 49.2 42.0114C49.6 34.2114 49.2 26.1114 50.7 18.5114C52.5 9.31137 62.9 3.11137 72.1 4.41137C82.8 5.91137 90.2 14.0114 90.3 24.2114C90.3 30.1114 90.2 36.0114 90.2 42.1114Z" fill="white"/>
<path d="M139.9 86.1114C139.9 79.5114 136.9 74.5114 131.1 71.2114C130.1 70.6114 129.1 69.0114 129.1 67.8114C128.9 62.3114 129 56.8114 129 51.3114C129 44.4114 127 42.4114 120 42.4114C112.9 42.4114 105.7 42.4114 98.6 42.4114C97.4 42.4114 96.1 42.2114 94.6 42.1114C94.6 35.6114 94.8 29.4114 94.6 23.2114C93.9 9.81137 82.7 -0.388629 69 0.011371C56 0.311371 45.4 11.1114 45.3 24.3114C45.3 30.1114 45.3 36.0114 45.3 42.4114H41.1C33.9 42.4114 26.6 42.4114 19.3 42.4114C12.9 42.5114 10.9 44.6114 10.9 50.8114C10.9 56.5114 11 62.3114 10.8 68.0114C10.8 69.0114 10 70.5114 9.2 70.9114C2.6 74.4114 0 79.9114 0 87.3114C0.1 114.711 0 142.011 0.1 169.411C0.1 185.611 11.1 197.511 27.2 197.711C55.6 198.011 84 198.011 112.5 197.711C128.4 197.511 139.8 185.911 139.9 170.011C140.1 142.011 140 114.011 139.9 86.1114ZM50.6 18.6114C52.5 9.31137 62.9 3.11137 72.1 4.41137C82.8 5.91137 90.2 14.0114 90.3 24.2114C90.4 30.1114 90.3 36.1114 90.3 42.2114H85C85 36.2114 85.1 30.3114 85 24.3114C84.9 16.9114 79.9 10.9114 72.9 9.71137C63.4 8.01137 55.2 14.5114 54.8 24.0114C54.6 28.7114 54.8 33.3114 54.7 38.0114V42.0114H49.1C49.6 34.3114 49.1 26.2114 50.6 18.6114ZM80.5 42.0114H59.4C59.4 35.3114 59 28.6114 59.5 22.1114C59.9 17.0114 65.1 13.6114 70.5 13.8114C75.7 14.0114 80.2 17.7114 80.5 22.8114C80.8 29.1114 80.5 35.4114 80.5 42.0114ZM18.8 46.8114C52.8 46.9114 86.8 46.8114 120.8 46.8114C124.6 46.8114 124.7 47.0114 124.4 53.2114H100.6V57.6114H124.3V63.5114H108C107.9 65.1114 107.9 66.2114 107.8 67.8114H124.4V73.6114H114.4C114.3 75.1114 114.3 76.2114 114.2 77.7114H123.7C123.7 77.9114 123.7 78.0114 123.6 78.2114C122.8 83.7114 117.5 95.2114 107.8 102.411C104.7 104.711 101.1 106.611 97.1 108.011C89 110.911 79.3 112.111 69.2 112.111C45.9 112.111 35.4 105.811 32.7 103.811C32.7 103.811 32.7 103.811 32.6 103.811C32.2 103.511 32 103.311 31.9 103.311L31.8 103.411C31.9 103.111 32 102.811 32.1 102.411H51.3V98.0114H30.5C25.3 98.0114 24.9 97.8114 22 92.3114H43.8V88.0114H23.5C20.1 88.0114 18.9 88.0114 18.1 86.3114C17.9 85.9114 17.8 85.5114 17.7 84.9114C17.5 84.1114 17.3 83.2114 17.1 82.1114H38.2V77.9114H15.8C15.6 76.0114 15.2 74.2114 15.2 72.5114C15.2 72.4114 15.2 72.3114 15.2 72.2114C15.1 64.9114 15.2 57.7114 15.1 50.5114C15.1 47.6114 16.2 46.8114 18.8 46.8114ZM135.5 170.011C135.5 183.311 125.6 193.411 112.3 193.411C84.1 193.511 55.9 193.511 27.7 193.411C14.5 193.411 4.5 183.811 4.3 170.511C4.1 142.311 4.3 114.211 4.3 86.0114C4.3 81.2114 6.1 77.4114 10.9 75.1114C12.8 90.1114 17.1 97.5114 28.9 106.711C29.4 107.111 39.7 116.811 69.2 116.811C95.2 116.811 105.1 111.011 108.4 108.011C108.4 108.111 108.4 108.211 108.4 108.211C121 98.1114 127 89.7114 128.8 75.5114C133.3 77.3114 135.4 80.7114 135.4 86.3114C135.4 105.611 135.4 124.911 135.4 144.211C135.5 152.711 135.5 161.411 135.5 170.011Z" fill="#666666"/>
<path d="M135.5 170.011C135.5 183.311 125.6 193.411 112.3 193.411C84.1 193.511 55.9 193.511 27.7 193.411C14.5 193.411 4.50001 183.811 4.30001 170.511C4.10001 142.311 4.30001 114.211 4.30001 86.0114C4.30001 81.2114 6.10001 77.4114 10.9 75.1114C12.8 90.1114 17.1 97.5114 28.9 106.711C29.4 107.111 39.7 116.811 69.2 116.811C95.2 116.811 105.1 111.011 108.4 108.011C108.4 108.111 108.4 108.211 108.4 108.211C121 98.1114 127 89.7114 128.8 75.5114C133.3 77.3114 135.4 80.7114 135.4 86.3114C135.4 105.611 135.4 124.911 135.4 144.211C135.5 152.711 135.5 161.411 135.5 170.011Z" fill="white"/>
<path d="M120.9 46.8114C86.9 46.8114 52.9 46.8114 18.9 46.8114C16.2 46.8114 15.1 47.7114 15.2 50.4114C15.3 57.6114 15.2 64.9114 15.3 72.1114C15.3 72.2114 15.3 72.3114 15.3 72.4114C15.4 73.2114 15.6 75.2114 16.1 77.8114C16.5 79.9114 17 82.4114 17.8 84.9114C17.9 85.4114 18.1 85.8114 18.2 86.3114C18.8 88.2114 19.6 90.0114 20.5 91.7114C24.7 99.2114 31.9 103.411 31.9 103.611C32.1 103.711 32.4 103.811 32.7 103.911C32.7 103.911 32.7 103.911 32.8 103.911C35.5 105.811 46 112.211 69.3 112.211C79.4 112.211 89 111.111 97.2 108.111C110.9 104.011 122.3 91.4114 123.7 78.3114C123.7 78.1114 123.7 77.9114 123.8 77.8114C123.8 76.7114 123.8 75.3114 123.9 73.7114C124 72.0114 124.1 70.0114 124.1 67.9114C124.2 66.5114 124.2 65.1114 124.3 63.6114C124.3 62.5114 124.4 61.4114 124.4 60.3114C124.5 57.9114 124.5 55.6114 124.5 53.3114C124.8 47.0114 124.7 46.8114 120.9 46.8114Z" fill="white"/>
<path fill-rule="evenodd" clip-rule="evenodd" d="M53.6 152.411C54.5 153.111 55.7 153.311 56.7 153.011C55.6 153.111 54.6 153.111 53.6 152.411C53.6 152.411 53.6 152.311 53.6 152.411Z" fill="#1A1D1E"/>
<path fill-rule="evenodd" clip-rule="evenodd" d="M81 143.311C80.1 142.611 80.4 139.711 81.2 137.711C82.1 135.711 83.4 134.611 85.5 134.911C87.6 135.111 90.3 136.711 90.5 137.911C90.7 139.111 88.5 140.011 86.3 141.311C84.1 142.511 81.9 144.011 81 143.311Z" fill="#1B1918"/>
<path fill-rule="evenodd" clip-rule="evenodd" d="M69.8 137.411C70.1 137.211 69.4 135.611 69.1 134.711C68.7 133.611 68.3 133.011 68.2 132.611C67.9 132.111 67.7 131.411 67.3 126.811C67.1 124.311 67 122.511 67.8 121.811C68.6 121.111 69.3 122.311 70.4 122.611C71.4 122.911 71.4 123.211 72.3 123.811C78.3 127.311 88 128.411 94.3 125.311C95.5 124.711 97.8 123.011 97.9 122.711C98.3 121.511 100 121.411 99.9 121.811C99.6 122.911 101 125.011 100.8 126.111C100.3 129.411 100 133.211 98.6 136.311C98.6 136.311 98.8 136.511 98.8 136.611C98.9 136.711 102.3 141.711 100.8 148.811C99.9 153.011 97.8 156.711 95.5 160.311C91 167.211 84.9 173.011 78.9 178.611C75.9 181.411 71 186.611 71 186.611C71 186.611 61.2 178.511 58.3 176.111C51.6 170.411 45.2 164.311 39.6 157.611C36.9 154.411 34.5 151.611 33.8 147.411C33.1 143.611 33.6 139.711 35.2 136.211C35.8 134.811 36.5 133.811 36.8 133.411C37 133.111 39 130.311 41.9 128.511C45.2 126.411 49.8 125.211 54.1 126.111C61.2 127.711 67.6 134.511 68.7 136.111C68.6 136.611 69.5 137.611 69.8 137.411Z" fill="white"/>
<path fill-rule="evenodd" clip-rule="evenodd" d="M41.8 138.411C41.9 138.411 42 138.311 42 138.211C42.1 138.111 42.2 138.011 42.2 137.911C42.3 137.711 42.5 137.511 42.7 137.311C43 136.911 43.4 136.611 43.8 136.211C45.4 134.911 47.3 134.011 49.4 133.611C51.6 133.211 53.8 133.211 56 133.711C58.1 134.111 60.2 134.911 62 135.911C63.7 136.911 65.3 138.111 66.5 139.811C67.1 140.611 67.6 141.611 67.9 142.511C68.2 143.611 68.3 144.711 68.2 145.811C68.1 146.911 67.7 148.111 67.7 149.211C67.6 150.111 68.5 150.611 69.1 151.311C69.4 151.711 69.4 151.911 69.9 152.111C70.4 152.311 70.7 152.211 71.2 152.311C71.4 152.311 71.8 152.611 72 152.411C72.1 152.311 72 152.711 71.9 152.511C71.8 152.311 71.7 152.111 71.6 152.011C71.4 151.811 71.3 151.511 71.1 151.311C70.8 150.911 70.8 149.911 70.4 149.611C70 149.311 69.6 149.011 69.2 148.711C68.9 148.411 68.2 148.611 68.2 148.111C68.1 147.511 68.3 147.011 68.4 146.411C68.7 145.311 68.9 144.211 69.1 143.011C69.2 141.811 69.3 140.711 69.3 139.511C69.2 137.211 68.8 134.911 68.3 132.711C67.7 130.511 67 128.411 66.8 126.111C66.7 125.011 66.7 123.811 66.9 122.711C67 122.411 67 122.111 67.1 121.811C67.2 121.511 67.3 121.211 67.5 121.111C67.8 120.911 68.2 121.011 68.4 121.211C68.6 121.311 68.8 121.511 69.1 121.711C69.3 121.911 69.5 122.011 69.8 122.211C70.7 122.811 71.7 123.311 72.7 123.811C74.7 124.711 76.9 125.311 79.1 125.711C80.2 125.911 81.4 126.111 82.5 126.211C83.7 126.311 84.8 126.511 86 126.611C87.2 126.711 88.3 126.711 89.5 126.611C90.6 126.511 91.7 126.311 92.8 125.911C93.8 125.511 94.8 125.111 95.6 124.411C96 124.111 96.4 123.811 96.8 123.411C97.2 123.011 97.5 122.611 97.9 122.211C98.2 121.911 98.6 121.511 99.1 121.411C99.6 121.311 99.9 121.711 100.1 122.111C100.3 122.611 100.4 123.111 100.4 123.511C100.5 124.111 100.5 124.611 100.6 125.211C100.8 127.511 100.6 129.911 100.2 132.111C100 133.211 99.7 134.311 99.4 135.411C99.3 135.911 99.1 136.411 98.8 136.811C98.7 137.011 98.5 137.111 98.3 137.211C98.2 137.311 97.9 137.411 97.8 137.311C97.6 137.211 97.7 136.911 97.8 136.711C97.9 136.411 98 136.211 98.1 135.911C98.3 135.411 98.4 134.811 98.5 134.311C98.7 133.211 98.9 132.011 99.1 130.911C99.2 130.311 99.3 129.811 99.3 129.211C99.4 128.711 99.4 128.111 99.3 127.711C99.2 127.511 99.1 127.311 98.9 127.211C98.7 127.111 98.5 127.111 98.3 127.111C97.8 127.211 97.4 127.411 97 127.711C96.5 128.011 96.1 128.311 95.7 128.711C95.5 128.911 95.3 129.111 95.1 129.211C94.9 129.311 94.8 129.511 94.7 129.711C94.6 129.911 94.6 130.111 94.6 130.311C94.7 130.511 94.9 130.711 95 130.811C95.2 131.011 95.3 131.211 95.4 131.411C95.5 131.711 95.5 131.911 95.5 132.211C95.5 132.711 95.5 133.211 95.8 133.611C95.9 133.711 96 133.711 96.1 133.811C96.2 133.811 96.3 133.811 96.4 133.911C96.6 134.111 96.4 134.311 96.4 134.511C96.3 135.011 96.6 135.611 96.8 136.011C97.1 136.411 97.4 136.911 97.8 137.211C98.2 137.611 98.5 138.011 98.9 138.411C99.2 138.811 99.5 139.211 99.8 139.711C100.4 140.611 100.8 141.611 101.1 142.611C101.7 144.811 101.7 147.111 101.2 149.311C100.8 151.511 100 153.511 99 155.511C98 157.511 96.9 159.411 95.6 161.211C94.3 163.011 92.9 164.811 91.4 166.511C89.9 168.211 88.3 169.911 86.7 171.511C85 173.111 83.3 174.711 81.6 176.311C79.9 177.911 78.2 179.511 76.5 181.111C75.7 181.911 74.8 182.711 74 183.511C73.2 184.311 72.4 185.111 71.6 185.911C71.4 186.111 71.2 186.211 71.1 186.411C71.1 186.411 70.9 186.611 71 186.711C71 186.811 71.2 186.711 71.2 186.611C71.6 186.211 72 185.911 72.4 185.511C73.1 184.711 73.9 183.911 74.5 183.011C75.6 181.211 76.2 179.111 76.1 177.011C76.1 176.411 76 175.911 75.9 175.411C75.8 174.811 75.7 174.311 75.6 173.711C75.6 173.611 75.5 173.311 75.3 173.411C75.2 173.411 75.1 173.511 75.1 173.611C75 173.711 74.9 173.811 74.8 173.911C74.4 174.211 73.8 174.211 73.4 174.511C73.2 174.611 73.1 174.811 72.9 175.011C72.8 175.111 72.6 175.111 72.5 174.911C72.4 174.711 72.5 174.511 72.5 174.311C72.5 174.011 72.5 173.711 72.4 173.511C72.4 173.211 72.3 172.911 72.3 172.711C72.3 172.511 72.4 172.111 72.1 172.111C72 172.111 71.9 172.211 71.8 172.311C71.7 172.411 71.6 172.511 71.5 172.611C71.3 172.811 71.1 172.911 70.9 173.111C70.8 173.211 70.6 173.411 70.4 173.411C70.2 173.411 70.1 173.211 70 173.011C69.7 172.511 69.3 172.111 68.9 171.811C68.7 171.611 68.6 171.511 68.4 171.311C68.3 171.211 68.1 171.111 68 171.111C67.8 171.111 67.9 171.511 67.9 171.611C67.9 171.911 68 172.211 68 172.411C68 173.011 68 173.511 68.1 174.111C68.1 174.311 68.2 174.611 68.2 174.811C68.2 174.911 68.2 175.011 68.1 175.011C68 175.011 67.9 174.911 67.9 174.911C67.8 174.811 67.8 174.711 67.7 174.611C67.6 174.511 67.6 174.411 67.5 174.311C67.3 174.111 67.2 173.911 67 173.811C66.8 173.711 66.6 173.511 66.4 173.511C66.2 173.511 66.1 173.711 66.1 173.911C66.1 174.111 66.2 174.311 66.1 174.411C66 174.711 65.8 174.511 65.6 174.411C65.4 174.311 65.1 174.111 64.9 173.911C64.7 173.811 64.4 173.611 64.2 173.511C63.7 173.211 63.2 173.011 62.8 172.711C62.7 172.611 62.4 172.511 62.3 172.711C62.2 172.911 62.2 173.211 62.2 173.411C62.2 173.711 62.3 173.911 62.3 174.211C62.4 174.511 62.5 174.711 62.6 174.911C62.6 175.011 62.7 175.111 62.7 175.211C62.7 175.311 62.5 175.311 62.4 175.311C62.3 175.311 62.2 175.311 62 175.311C61.9 175.311 61.7 175.411 61.6 175.411C61.1 175.611 60.6 175.811 60 176.011C59.7 176.111 59.5 176.211 59.2 176.311C59 176.411 58.8 176.411 58.6 176.511C58.4 176.611 58.2 176.711 58.3 176.911C58.3 177.111 58.6 177.211 58.7 177.311C59.2 177.611 59.6 178.011 60 178.411C60.9 179.211 61.7 179.911 62.6 180.711C64.3 182.211 66.1 183.711 67.9 185.111C68.3 185.411 68.8 185.811 69.2 186.111C69.5 186.311 69.8 186.611 70.1 186.711C70.2 186.711 70.4 186.811 70.3 186.611C70.3 186.511 70.2 186.511 70.1 186.411C70 186.311 69.9 186.211 69.8 186.211C69.3 185.911 68.8 185.611 68.4 185.211C67.5 184.511 66.6 183.811 65.6 183.111C64.7 182.411 63.8 181.711 62.9 180.911C61.1 179.411 59.3 178.011 57.5 176.511C55.7 175.011 54 173.511 52.2 172.011C50.5 170.511 48.7 168.911 47 167.311C45.3 165.711 43.6 164.111 42 162.511C39.6 160.111 37.5 157.511 35.8 154.611C35.3 153.811 34.9 153.011 34.5 152.111C33.6 150.111 33 148.011 32.7 145.811C32.4 143.611 32.5 141.311 33.1 139.111C33.6 137.111 34.5 135.211 35.7 133.511C36.9 131.811 38.4 130.411 40.1 129.311C41.8 128.111 43.8 127.311 45.9 126.911C48.1 126.411 50.4 126.511 52.7 126.911C53.3 127.011 53.8 127.111 54.4 127.311C54.8 127.411 55.2 127.511 55.6 127.711C55.6 127.711 55.9 127.811 55.8 127.911C55.7 127.911 55.7 127.911 55.6 127.911C55.5 127.911 55.5 127.911 55.4 127.811C54.9 127.611 54.3 127.511 53.8 127.411C51.6 126.911 49.3 126.911 47.1 127.311C45.1 127.711 43.1 128.511 41.3 129.611C39.6 130.711 38.2 132.111 37.1 133.811C36.5 134.711 36.1 135.711 35.7 136.711C35.5 137.211 35.3 137.711 35.2 138.311C35.2 138.411 35.1 138.511 35.2 138.611C35.2 138.711 35.3 138.711 35.3 138.611C35.4 138.511 35.4 138.411 35.4 138.311C35.6 137.811 35.8 137.311 36 136.811C36.2 136.311 36.5 135.811 36.8 135.411C37.4 134.511 38.1 133.711 38.8 132.911C40.2 131.411 42 130.211 43.8 129.311C45.8 128.411 47.9 127.711 50.1 127.611C51.2 127.511 52.4 127.611 53.5 127.711C53.6 127.711 53.7 127.711 53.9 127.711C54 127.711 54.2 127.711 54.2 127.811C54.2 127.911 54 127.911 54 127.911C53.9 127.911 53.7 127.911 53.6 127.911C53 127.811 52.4 127.811 51.9 127.911C51.3 127.911 50.8 128.111 50.2 128.211C49.6 128.311 49.1 128.411 48.5 128.611C48.5 128.611 48.1 128.711 48.2 128.811C48.3 128.811 48.4 128.811 48.5 128.811C49 128.711 49.5 128.611 50.1 128.611C51.2 128.511 52.4 128.611 53.5 128.711C54.6 128.811 55.7 129.011 56.8 129.311C58.9 129.911 60.8 130.711 62.7 131.911C63.6 132.511 64.5 133.111 65.3 133.811C66.2 134.511 66.9 135.411 67.6 136.211C67.9 136.611 68.3 137.011 68.6 137.511C68.6 137.511 68.8 137.711 68.7 137.811C68.7 137.911 68.5 137.711 68.5 137.711C68.3 137.511 68.1 137.311 68 137.111C67.3 136.311 66.5 135.511 65.7 134.911C64 133.611 62.2 132.511 60.2 131.711C59.7 131.511 59.2 131.311 58.6 131.211C58.3 131.111 58.1 131.011 57.8 130.911C57.7 130.911 57.7 130.911 57.6 130.911C57.5 130.911 57.5 131.011 57.6 131.111C57.7 131.211 57.7 131.211 57.8 131.211C57.9 131.311 58 131.311 58.1 131.411C58.3 131.511 58.6 131.711 58.8 131.911C59.3 132.211 59.7 132.611 60.2 132.911C60.7 133.211 61.1 133.611 61.6 133.911C61.8 134.011 62.1 134.211 62.3 134.311C62.4 134.411 62.5 134.411 62.6 134.511L62.7 134.611C62.7 134.711 62.6 134.711 62.6 134.611C62.5 134.611 62.4 134.511 62.3 134.511C62.2 134.411 62 134.411 61.9 134.311C61.4 134.011 60.9 133.811 60.4 133.611C58.3 132.811 56 132.411 53.7 132.411C53.1 132.411 52.5 132.411 52 132.511C51.4 132.511 50.9 132.611 50.3 132.711C50 132.711 49.8 132.711 49.5 132.811C49.4 132.811 49.1 132.911 49.1 133.011C49.1 133.111 49.3 133.111 49.4 133.111C49.5 133.111 49.7 133.111 49.8 133.111C50.1 133.111 50.4 133.011 50.7 133.011C51.3 133.011 51.8 133.011 52.4 133.011C53 133.011 53.5 133.111 54.1 133.211C55.2 133.411 56.3 133.611 57.4 133.911C57.9 134.111 58.5 134.311 59 134.511C59.5 134.711 60 135.011 60.6 135.211C61 135.411 61.5 135.511 61.9 135.811L62 135.911C62 136.011 61.9 135.911 61.9 135.911C61.8 135.911 61.6 135.811 61.5 135.711C60.5 135.211 59.5 134.911 58.5 134.611C57.4 134.311 56.3 134.011 55.2 133.811C53 133.411 50.8 133.411 48.6 134.011C46.7 134.511 44.9 135.411 43.5 136.811C43.1 137.211 42.8 137.511 42.5 137.911C42.3 138.111 42.2 138.311 42 138.611C42 137.911 41.6 138.411 41.8 138.411Z" fill="#FF7D00"/>
<path fill-rule="evenodd" clip-rule="evenodd" d="M68.5 157.611C67.3 156.711 66 156.011 64.6 155.411C61.4 153.911 58 153.011 54.7 152.211C52.7 151.711 50.7 151.211 49 150.111C47.3 149.011 45.9 147.211 45.8 145.211C45.8 143.211 47.5 141.111 49.5 141.211C47.6 140.711 45.6 142.511 45.4 144.511C45.1 147.611 47.7 149.811 50.1 151.011C52.7 152.311 55.6 153.011 58.4 153.811C61.4 154.611 64.4 155.711 66.9 157.511C71.7 161.111 74.5 166.911 75.5 172.711C75.6 173.111 75.6 173.511 75.7 174.011C75.7 174.211 75.7 174.411 75.8 174.611C75.8 174.511 76.2 174.011 76.2 173.811C76.3 173.511 76.2 173.111 76.2 172.711C76.4 169.911 78.8 168.311 80.8 166.711C83.2 164.811 85.3 162.311 87 159.711C87 159.611 87.1 159.611 87.1 159.511C88.9 156.611 90.1 153.111 89.3 149.811C91.5 148.611 94.2 148.211 96.6 148.811C96.5 146.711 96.2 144.311 94.5 143.111C92.7 141.811 90.2 142.411 88.3 143.511C83.8 146.111 80.7 151.011 75.8 152.811C79.6 152.711 82.8 149.711 86.6 149.411C82.8 151.711 78.8 153.011 74.6 154.011C73 154.411 73.3 155.911 73.1 157.211C73.1 158.611 72.8 160.111 72.7 161.511C71.6 160.211 70.1 158.811 68.5 157.611ZM85.5 141.011L85.4 140.911C84.8 140.611 84.2 140.411 83.4 140.311C82.8 140.311 82.1 140.311 81.5 140.611C81.3 140.711 81 140.911 80.8 141.011C80.6 141.211 80.4 141.511 80.2 141.711C80 142.011 79.9 142.311 79.7 142.511C79.5 142.811 79.4 143.111 79.2 143.411C79 143.711 78.8 144.111 78.7 144.411C78.7 144.511 78.6 144.611 78.7 144.711C78.9 145.011 85.1 141.111 85.2 141.011C85.4 141.011 85.4 141.011 85.5 141.011ZM70.2 136.011C69.9 135.811 69.7 135.911 69.7 136.211C69.7 136.511 70.3 140.711 70.4 140.711C70.7 140.411 71 139.911 71.3 139.211C71.5 138.811 71.9 137.711 71.9 137.411C71.9 137.311 71.8 137.211 71.8 137.111C71.8 137.011 71.7 136.911 71.6 136.811L70.2 136.011ZM83.5 141.811C83.1 141.611 82.7 141.511 82.3 141.411C82 141.411 81.6 141.411 81.3 141.611C81.2 141.711 81 141.711 80.9 141.811C80.8 141.911 80.7 142.111 80.6 142.211C80.5 142.411 80.4 142.511 80.3 142.711C80.2 142.911 80.1 143.011 80 143.211C79.9 143.411 79.8 143.611 79.7 143.811V143.911C79.9 144.111 83.4 141.911 83.5 141.811C83.5 141.911 83.4 141.911 83.5 141.811Z" fill="white"/>
<path fill-rule="evenodd" clip-rule="evenodd" d="M70.5 137.011C70.3 136.911 70.2 136.911 70.2 137.111C70.2 137.311 70.5 139.711 70.6 139.711C70.8 139.511 71 139.211 71.1 138.911C71.2 138.711 71.4 138.111 71.4 137.911C71.4 137.811 71.4 137.811 71.3 137.711L71.2 137.611L70.5 137.011ZM83.7 141.511C83.3 141.311 83 141.211 82.6 141.211C82.3 141.211 81.9 141.211 81.6 141.311C81.5 141.411 81.3 141.411 81.2 141.511C81.1 141.611 81 141.711 80.9 141.911C80.8 142.011 80.7 142.211 80.7 142.311C80.6 142.511 80.5 142.611 80.4 142.811C80.3 143.011 80.2 143.111 80.1 143.311V143.411C80.3 143.611 83.6 141.511 83.7 141.511C83.7 141.511 83.6 141.511 83.7 141.511Z" fill="#151B19"/>
<path fill-rule="evenodd" clip-rule="evenodd" d="M69.9 132.611C69.9 132.811 70 132.911 70.1 133.111C70.3 133.211 70.4 133.211 70.6 133.311C70.6 133.311 70.7 133.311 70.7 133.211C70.9 133.011 71 132.811 71.1 132.611C71.3 132.211 71.6 131.711 71.5 131.311C71.4 131.011 72.4 129.711 72.3 129.311C72.2 128.811 71.9 128.611 72 128.411C72.1 128.211 72.4 128.311 72.8 128.111C72.9 128.011 73.1 127.911 73.2 127.611C73.3 127.411 73.2 127.211 73.1 127.011C73 126.811 72.9 126.711 72.7 126.511C72.5 126.311 72.3 126.211 72.1 126.011C71.7 125.711 71.3 125.411 70.9 125.211C70.6 125.011 70.2 124.711 69.7 124.711C69.5 124.711 69.3 124.711 69.2 124.811C69 124.911 68.9 125.111 68.9 125.311C68.8 125.711 68.8 126.211 68.9 126.611C69 127.111 69 127.611 69.1 128.111C69.2 129.111 69.4 130.111 69.6 131.111C69.7 131.611 69.8 132.111 69.9 132.611Z" fill="white"/>
<path fill-rule="evenodd" clip-rule="evenodd" d="M73.2 151.511C73 151.311 69.5 148.411 69.2 148.311C69.1 148.211 69 148.211 68.9 148.111C68.8 148.111 68.8 148.111 68.7 148.011C68.6 148.011 68.6 148.011 68.5 148.011C68.5 148.011 68.5 148.011 68.5 148.111V148.211C68.5 148.311 68.4 148.311 68.4 148.411C68.3 148.511 68.3 148.711 68.2 148.811C68.1 149.011 68 149.311 68 149.611C67.9 150.111 68 150.711 68.2 151.111C68.5 151.711 69 152.111 69.5 152.411C69.8 152.511 70 152.611 70.3 152.711C70.6 152.811 72.3 152.911 72.4 152.911C72.5 152.911 72.7 152.911 72.8 152.911C72.9 152.911 73.1 152.911 73.2 152.911C73.3 152.911 73.5 152.911 73.6 152.811C73.7 152.811 73.8 152.711 73.8 152.611C73.8 152.511 73.8 152.311 73.7 152.211C73.6 151.911 73.4 151.711 73.2 151.511Z" fill="#1B201C"/>
</svg>
