<svg width="173" height="245" viewBox="0 0 173 245" fill="none" xmlns="http://www.w3.org/2000/svg">
<path d="M111.458 52.1522C109.229 52.1522 107.446 52.1522 104.993 52.1522C104.993 44.6717 105.105 37.4144 104.993 30.0455C104.882 20.8902 98.6403 13.5213 89.9466 11.9582C78.355 9.94846 68.2123 17.8756 67.7665 29.8222C67.5436 35.628 67.7665 41.4338 67.655 47.128C67.655 48.6911 67.655 50.2542 67.655 52.1522C65.4259 52.1522 63.6425 52.1522 60.7446 52.1522C61.3019 42.4387 60.7446 32.5018 62.528 23.0115C64.7571 11.5116 77.6862 3.8077 88.9435 5.3708C102.096 7.26885 111.235 17.2057 111.347 29.8222C111.569 37.3028 111.458 44.56 111.458 52.1522Z" fill="#E1CDA0"/>
<path d="M172.871 106.526C172.871 98.3754 169.193 92.2346 161.948 88.1036C160.722 87.4337 159.496 85.424 159.496 83.8609C159.273 77.0502 159.385 70.2396 159.385 63.4289C159.385 54.8318 156.933 52.4872 148.239 52.3755C139.434 52.3755 130.629 52.3755 121.824 52.3755C120.263 52.3755 118.814 52.1522 116.808 52.0406C116.808 44.0018 117.031 36.2979 116.808 28.7057C116.028 12.0698 102.207 -0.435005 85.2653 0.0115956C69.1039 0.458196 56.0634 13.8562 55.9519 30.0455C55.9519 37.3028 55.9519 44.4484 55.9519 52.4872H50.7134C41.7967 52.4872 32.7686 52.4872 23.852 52.4872C15.9385 52.5988 13.4864 55.1668 13.4864 62.8706C13.4864 70.0163 13.5979 77.0502 13.375 84.1958C13.375 85.424 12.4833 87.322 11.3687 87.8803C3.23228 92.123 0 98.9337 0 108.089C0.111458 141.919 0 175.861 0.111458 209.691C0.111458 229.676 13.7093 244.525 33.6603 244.749C68.7696 245.084 103.879 245.084 138.988 244.749C158.716 244.525 172.76 230.234 172.871 210.361C173.094 175.749 172.983 141.137 172.871 106.526ZM62.5279 23.0115C64.7571 11.5116 77.6862 3.8077 89.0549 5.3708C102.207 7.26886 111.347 17.2057 111.458 29.9338C111.569 37.3028 111.458 44.56 111.458 52.1522H104.993C104.993 44.6717 105.105 37.4144 104.993 30.0455C104.882 20.8902 98.6403 13.5213 90.058 11.9582C78.3549 9.94846 68.2123 17.8756 67.7664 29.8222C67.5435 35.628 67.7664 41.4338 67.655 47.128V52.1522H60.7446C61.3019 42.4387 60.7446 32.5018 62.5279 23.0115ZM99.532 52.0406H73.3393C73.3393 43.6668 72.8935 35.5164 73.4508 27.3659C74.0081 21.1135 80.3612 16.8708 87.0487 17.0941C93.5132 17.3174 98.9747 21.895 99.4205 28.2591C99.8663 35.963 99.532 43.7785 99.532 52.0406ZM23.2947 57.958C65.3144 58.0697 107.334 57.958 149.354 57.958C154.146 57.958 154.258 58.1813 153.812 65.8852H124.387V71.3561H153.701V78.6133H133.527C133.415 80.623 133.415 81.9628 133.304 83.9725H153.812V91.2298H141.44C141.329 93.0162 141.329 94.356 141.217 96.3657H152.92C152.92 96.589 152.92 96.8123 152.809 97.0356C151.917 103.846 145.23 118.137 133.304 126.958C129.403 129.861 124.944 132.094 120.04 133.88C110.009 137.453 98.083 138.904 85.5997 138.904C56.7321 138.904 43.803 131.089 40.4592 128.633C40.4592 128.633 40.4592 128.633 40.3478 128.633C39.7905 128.298 39.5676 128.074 39.5676 127.963L39.4561 128.074C39.5676 127.739 39.679 127.293 39.7905 126.846H63.531V121.375H37.6728C31.2082 121.375 30.7624 121.152 27.0843 114.341H54.0571V108.871H28.9791C24.8551 108.871 23.2947 108.871 22.4031 106.861C22.4031 106.861 22.4031 106.861 22.4031 106.749C22.1801 106.303 22.0687 105.744 21.8458 105.074C21.6228 104.181 21.3999 102.953 21.177 101.613H47.2582V96.3657H19.5051C19.2822 93.9094 18.8364 91.788 18.7249 89.6667C18.7249 89.555 18.7249 89.4434 18.7249 89.3317C18.6135 80.3997 18.7249 71.3561 18.6135 62.424C18.6135 58.9629 19.951 57.8464 23.2947 57.958ZM167.41 210.472C167.41 226.996 155.149 239.39 138.765 239.501C103.99 239.613 69.1039 239.613 34.3291 239.501C18.0562 239.501 5.5729 227.555 5.46144 211.142C5.12707 176.307 5.34998 141.361 5.34998 106.526C5.34998 100.608 7.57914 95.9191 13.4864 93.0162C15.827 111.438 21.177 120.594 35.6665 131.982C36.2238 132.429 49.0415 144.487 85.4883 144.487C117.588 144.487 129.737 137.341 133.972 133.545C133.972 133.657 133.972 133.769 133.972 133.769C149.577 121.152 157.044 110.769 159.162 93.2395C164.735 95.4725 167.41 99.7152 167.41 106.638C167.41 130.531 167.41 154.424 167.41 178.317C167.41 189.035 167.41 199.754 167.41 210.472Z" fill="#333333"/>
<path d="M167.41 210.472C167.41 226.996 155.149 239.39 138.765 239.501C103.99 239.613 69.1039 239.613 34.3291 239.501C18.0562 239.501 5.5729 227.555 5.46144 211.142C5.12706 176.307 5.34998 141.361 5.34998 106.526C5.34998 100.608 7.57914 95.9191 13.4864 93.0162C15.827 111.439 21.177 120.594 35.6665 131.982C36.2238 132.429 49.0415 144.487 85.4883 144.487C117.588 144.487 129.737 137.341 133.972 133.545C133.972 133.657 133.972 133.769 133.972 133.769C149.577 121.152 157.044 110.769 159.162 93.2395C164.735 95.4725 167.41 99.7152 167.41 106.638C167.41 130.531 167.41 154.424 167.41 178.317C167.41 189.035 167.41 199.754 167.41 210.472Z" fill="#E1CDA0"/>
<path d="M149.354 57.958C107.334 57.958 65.3143 57.958 23.2947 57.958C19.9509 57.958 18.6134 58.9629 18.7249 62.424C18.8364 71.3561 18.7249 80.3997 18.8364 89.3317C18.8364 89.4434 18.8364 89.555 18.8364 89.6667C18.9478 90.6715 19.1707 93.1278 19.728 96.3657C20.1739 98.9337 20.8426 102.06 21.8457 105.074C21.9572 105.633 22.1801 106.191 22.403 106.749C22.403 106.749 22.403 106.749 22.403 106.861C23.1832 109.205 24.0749 111.438 25.3009 113.448C30.428 122.715 39.4561 127.963 39.4561 128.186C39.7905 128.298 40.1248 128.409 40.3478 128.521C40.3478 128.521 40.3478 128.521 40.4592 128.521C43.8029 130.977 56.7321 138.793 85.5997 138.793C98.083 138.793 110.009 137.341 120.04 133.769C136.982 128.633 151.026 113.113 152.809 96.924C152.809 96.7007 152.809 96.4773 152.92 96.254C152.92 94.9142 153.032 93.2395 153.032 91.1181C153.143 88.9968 153.255 86.5405 153.366 83.8609C153.478 82.1861 153.478 80.3997 153.589 78.5017C153.589 77.1619 153.701 75.7104 153.701 74.3706C153.812 71.4677 153.812 68.4532 153.812 65.6619C154.258 58.293 154.146 57.958 149.354 57.958Z" fill="#E1CDA0"/>
<path fill-rule="evenodd" clip-rule="evenodd" d="M72.0019 185.574C73.1165 186.467 74.5654 186.691 75.9029 186.356C74.5654 186.467 73.2279 186.356 72.0019 185.574C72.0019 185.463 72.0019 185.463 72.0019 185.574Z" fill="#1A1D1E"/>
<path fill-rule="evenodd" clip-rule="evenodd" d="M106.108 174.186C104.993 173.293 105.328 169.608 106.442 167.152C107.557 164.696 109.229 163.356 111.792 163.691C114.356 164.026 117.7 165.924 118.034 167.375C118.368 168.938 115.47 170.055 112.795 171.618C110.009 173.181 107.334 175.079 106.108 174.186Z" fill="#1B1918"/>
<path fill-rule="evenodd" clip-rule="evenodd" d="M92.1758 166.929C92.5101 166.705 91.7299 164.696 91.2841 163.579C90.7268 162.239 90.281 161.458 90.0581 161.011C89.7237 160.341 89.3893 159.448 88.9435 153.754C88.6091 150.628 88.6091 148.395 89.5008 147.613C90.5039 146.72 91.3955 148.283 92.733 148.618C94.0705 149.065 93.9591 149.4 95.1851 150.069C102.653 154.535 114.802 155.764 122.604 151.967C124.053 151.298 126.951 149.065 127.062 148.73C127.619 147.167 129.737 147.167 129.514 147.613C129.18 148.953 130.852 151.633 130.629 152.972C129.96 157.103 129.626 161.793 127.842 165.589L128.065 165.924C128.177 166.035 132.412 172.288 130.517 181.22C129.403 186.356 126.728 191.157 123.83 195.623C118.257 204.22 110.678 211.477 103.099 218.399C99.3091 221.861 93.2903 228.448 93.2903 228.448C93.2903 228.448 81.03 218.288 77.5748 215.273C69.3269 208.128 61.3019 200.647 54.28 192.162C50.9363 188.142 47.9269 184.681 47.0353 179.433C46.2551 174.744 46.8124 169.832 48.8186 165.477C49.5988 163.802 50.4905 162.463 50.8248 162.016C51.0478 161.681 53.4998 158.22 57.178 155.875C61.3019 153.307 66.9863 151.744 72.4477 152.972C81.2529 154.982 89.2779 163.467 90.6153 165.366C90.7268 165.812 91.8414 167.04 92.1758 166.929Z" fill="white"/>
<path fill-rule="evenodd" clip-rule="evenodd" d="M57.2894 168.157C57.4009 168.157 57.5123 168.045 57.5123 167.933C57.6238 167.822 57.7353 167.599 57.8467 167.487C58.0696 167.264 58.1811 166.929 58.404 166.705C58.8498 166.259 59.2957 165.812 59.853 165.366C61.8592 163.802 64.3113 162.686 66.7634 162.128C69.4384 161.569 72.3363 161.681 75.0113 162.239C77.5748 162.798 80.1383 163.691 82.4789 165.031C84.5966 166.259 86.6029 167.822 88.0518 169.832C88.832 170.836 89.3893 172.065 89.8352 173.293C90.281 174.632 90.3925 176.084 90.281 177.424C90.1695 178.875 89.7237 180.215 89.6122 181.666C89.5008 182.895 90.6154 183.341 91.3956 184.346C91.8414 184.793 91.7299 185.128 92.2872 185.239C92.956 185.463 93.2904 185.351 93.8476 185.463C94.0706 185.463 94.6279 185.798 94.8508 185.574C94.9622 185.463 94.8508 185.909 94.7393 185.686C94.6279 185.463 94.5164 185.239 94.4049 185.016C94.182 184.681 94.0706 184.458 93.8476 184.123C93.5133 183.564 93.4018 182.336 92.956 182.001C92.5102 181.555 91.9529 181.331 91.507 180.885C91.0612 180.438 90.281 180.773 90.281 180.103C90.1695 179.433 90.3924 178.652 90.5039 178.094C90.8383 176.754 91.1727 175.302 91.3956 173.963C91.6185 172.511 91.6185 171.06 91.6185 169.608C91.507 166.705 91.0612 163.914 90.3925 161.123C89.7237 158.443 88.832 155.652 88.4977 152.861C88.3862 151.409 88.3862 150.069 88.6091 148.618C88.7206 148.283 88.7206 147.836 88.832 147.501C88.9435 147.167 89.055 146.832 89.3893 146.608C89.7237 146.385 90.1695 146.497 90.5039 146.72C90.8383 146.943 91.0612 147.167 91.2841 147.278C91.507 147.501 91.8414 147.725 92.1758 147.836C93.2904 148.618 94.5164 149.288 95.8539 149.846C98.4174 150.963 101.092 151.744 103.767 152.191C105.216 152.414 106.665 152.637 108.003 152.861C109.452 153.084 110.901 153.196 112.35 153.307C113.799 153.419 115.248 153.419 116.697 153.307C118.034 153.196 119.483 152.861 120.709 152.414C121.935 151.967 123.161 151.409 124.276 150.628C124.833 150.293 125.279 149.846 125.836 149.4C126.282 148.953 126.728 148.395 127.174 147.948C127.619 147.501 128.065 147.055 128.734 146.943C129.403 146.832 129.737 147.278 129.96 147.836C130.183 148.395 130.294 149.065 130.406 149.623C130.517 150.293 130.517 151.074 130.629 151.744C130.852 154.647 130.629 157.55 130.183 160.453C129.96 161.793 129.626 163.244 129.18 164.584C128.957 165.142 128.845 165.812 128.4 166.259C128.288 166.482 128.065 166.705 127.842 166.817C127.731 166.929 127.396 167.04 127.285 166.929C127.062 166.817 127.174 166.482 127.285 166.259C127.396 165.924 127.508 165.589 127.619 165.254C127.842 164.584 127.954 163.914 128.065 163.244C128.4 161.793 128.511 160.453 128.734 159.001C128.845 158.332 128.957 157.55 129.068 156.88C129.18 156.21 129.18 155.54 129.068 154.982C128.957 154.759 128.845 154.424 128.623 154.312C128.4 154.2 128.177 154.201 127.842 154.201C127.285 154.312 126.728 154.647 126.17 154.982C125.613 155.317 125.056 155.764 124.499 156.21C124.276 156.433 123.941 156.657 123.718 156.88C123.495 157.103 123.273 157.327 123.161 157.55C123.05 157.773 122.938 158.108 123.05 158.332C123.161 158.555 123.384 158.778 123.607 159.001C123.83 159.225 124.053 159.448 124.053 159.783C124.164 160.118 124.164 160.453 124.164 160.788C124.164 161.346 124.164 162.128 124.61 162.574C124.722 162.686 124.833 162.686 124.944 162.798C125.056 162.798 125.167 162.909 125.279 162.909C125.502 163.133 125.279 163.467 125.279 163.691C125.167 164.361 125.502 165.031 125.836 165.589C126.17 166.147 126.616 166.705 127.062 167.152C127.508 167.599 127.954 168.157 128.4 168.603C128.845 169.05 129.18 169.608 129.514 170.166C130.183 171.283 130.74 172.511 131.075 173.851C131.855 176.531 131.743 179.433 131.186 182.225C130.629 184.904 129.626 187.472 128.511 189.929C127.285 192.385 125.836 194.841 124.276 197.074C122.715 199.419 120.932 201.54 119.149 203.662C117.254 205.783 115.248 207.793 113.241 209.802C111.124 211.812 109.006 213.822 106.888 215.831C104.771 217.841 102.653 219.739 100.535 221.749C99.532 222.754 98.4174 223.759 97.4143 224.763C96.4112 225.768 95.4081 226.773 94.4049 227.778C94.182 228.001 93.9591 228.225 93.7362 228.448C93.7362 228.56 93.5133 228.671 93.6247 228.783C93.6247 228.894 93.8477 228.783 93.9591 228.671C94.5164 228.225 94.9622 227.778 95.4081 227.22C96.2997 226.215 97.1914 225.21 97.9716 224.094C99.4205 221.861 100.089 219.181 99.8664 216.613C99.8664 215.943 99.7549 215.273 99.6435 214.603C99.532 213.933 99.4205 213.263 99.1976 212.482C99.1976 212.259 99.0862 212.035 98.8633 212.147C98.7518 212.147 98.6403 212.37 98.6403 212.482C98.5289 212.594 98.4174 212.705 98.306 212.817C97.7487 213.152 97.0799 213.152 96.5226 213.487C96.2997 213.71 96.1883 213.933 95.9653 214.045C95.7424 214.157 95.631 214.157 95.5195 213.933C95.4081 213.71 95.5195 213.487 95.4081 213.263C95.4081 212.928 95.4081 212.594 95.2966 212.259C95.2966 211.924 95.1851 211.589 95.1851 211.254C95.1851 211.03 95.2966 210.472 94.9622 210.472C94.8508 210.472 94.7393 210.584 94.6279 210.695C94.5164 210.807 94.4049 210.919 94.2935 211.03C94.0706 211.254 93.7362 211.365 93.5133 211.589C93.4018 211.7 93.1789 211.924 92.956 211.924C92.6216 211.924 92.5102 211.7 92.3987 211.477C92.0643 210.919 91.507 210.361 91.0612 209.914C90.8383 209.691 90.6154 209.579 90.5039 209.356C90.3924 209.244 90.1695 209.021 90.0581 209.132C89.8352 209.132 89.8352 209.579 89.9466 209.802C89.9466 210.137 90.0581 210.472 90.0581 210.807C90.1695 211.477 90.1695 212.259 90.281 212.928C90.281 213.263 90.3925 213.598 90.3925 213.822C90.3925 213.933 90.3925 214.045 90.281 214.045C90.1695 214.045 90.0581 213.933 90.0581 213.822C89.9466 213.71 89.9466 213.598 89.8352 213.375C89.7237 213.263 89.6122 213.152 89.6122 212.928C89.3893 212.705 89.1664 212.482 88.9435 212.259C88.7206 212.035 88.4977 211.924 88.1633 211.812C87.8289 211.812 87.8289 212.147 87.8289 212.37C87.8289 212.594 87.9404 212.817 87.9404 213.04C87.8289 213.375 87.4945 213.152 87.3831 213.04C87.0487 212.817 86.8258 212.705 86.4914 212.482C86.157 212.259 85.9341 212.147 85.5998 211.924C85.0425 211.589 84.3737 211.365 83.9279 210.919C83.705 210.807 83.4821 210.584 83.3706 210.919C83.2591 211.142 83.2591 211.477 83.2591 211.812C83.2591 212.147 83.3706 212.482 83.3706 212.817C83.4821 213.152 83.5935 213.375 83.8164 213.71C83.9279 213.822 83.9279 213.933 83.9279 214.045C83.9279 214.157 83.705 214.157 83.5935 214.157C83.4821 214.157 83.2591 214.157 83.1477 214.157C82.9248 214.157 82.8133 214.268 82.5904 214.268C81.9216 214.492 81.2529 214.715 80.6956 215.05C80.3612 215.162 80.0269 215.385 79.8039 215.496C79.581 215.608 79.2467 215.72 79.0237 215.831C78.8008 215.943 78.5779 216.055 78.5779 216.39C78.6894 216.613 78.9123 216.725 79.1352 216.836C79.6925 217.171 80.2498 217.729 80.8071 218.176C81.9216 219.181 82.9248 220.074 84.0393 221.079C86.1571 222.977 88.3862 224.763 90.6154 226.55C91.1727 226.996 91.7299 227.443 92.2872 227.89C92.6216 228.113 93.0674 228.448 93.4018 228.671C93.5133 228.671 93.7362 228.783 93.6247 228.56C93.6247 228.448 93.5133 228.448 93.4018 228.336C93.2904 228.225 93.1789 228.113 92.956 228.113C92.3987 227.666 91.7299 227.331 91.1727 226.885C90.0581 225.992 88.832 225.098 87.7175 224.205C86.6029 223.312 85.4883 222.419 84.2623 221.526C82.0331 219.739 79.6925 217.841 77.4633 215.943C75.2342 214.045 73.005 212.147 70.8873 210.249C68.7696 208.351 66.5404 206.341 64.4227 204.443C62.305 202.433 60.1873 200.424 58.1811 198.414C55.2832 195.399 52.4967 192.162 50.379 188.477C49.8218 187.472 49.2645 186.467 48.8186 185.351C47.704 182.895 46.9238 180.215 46.5895 177.424C46.2551 174.632 46.3666 171.73 47.1468 169.05C47.8155 166.482 48.9301 164.137 50.4905 162.016C51.9395 159.895 53.8342 158.108 55.9519 156.768C58.0696 155.317 60.5217 154.312 63.0852 153.754C65.8717 153.196 68.7696 153.196 71.4446 153.754C72.1133 153.866 72.8936 154.089 73.5623 154.201C74.0081 154.312 74.5654 154.424 75.0113 154.647C75.0113 154.647 75.3456 154.759 75.2342 154.87C75.1227 154.87 75.0113 154.87 75.0113 154.87C74.8998 154.87 74.8998 154.87 74.7883 154.759C74.1196 154.535 73.4508 154.312 72.7821 154.201C69.9956 153.531 67.0977 153.531 64.4227 154.089C61.8592 154.535 59.4071 155.54 57.2894 156.992C55.1717 158.332 53.3884 160.118 52.0509 162.239C51.2707 163.356 50.7134 164.584 50.2676 165.812C50.0447 166.482 49.8218 167.04 49.5988 167.71C49.5988 167.822 49.4874 168.045 49.5988 168.157C49.5988 168.268 49.7103 168.268 49.7103 168.157C49.8218 168.045 49.8218 167.933 49.8218 167.822C50.0447 167.152 50.2676 166.594 50.602 165.924C50.9363 165.366 51.2707 164.696 51.6051 164.137C52.3853 163.021 53.1655 161.904 54.1686 161.011C55.9519 159.113 58.0696 157.662 60.4103 156.545C62.8623 155.317 65.5373 154.647 68.2123 154.424C69.6613 154.312 70.9988 154.424 72.4477 154.535C72.5592 154.535 72.7821 154.535 72.8936 154.535C73.005 154.535 73.2279 154.535 73.2279 154.647C73.2279 154.759 73.005 154.759 73.005 154.759C72.7821 154.759 72.6706 154.759 72.4477 154.759C71.779 154.647 70.9988 154.647 70.33 154.759C69.6613 154.87 68.8811 154.982 68.2123 155.094C67.5436 155.205 66.8748 155.317 66.0946 155.54C65.9832 155.54 65.5373 155.652 65.7602 155.764C65.8717 155.875 66.0946 155.764 66.2061 155.764C66.8748 155.652 67.5436 155.54 68.2123 155.429C69.6613 155.317 70.9988 155.429 72.4477 155.54C73.8967 155.652 75.2342 155.987 76.5717 156.322C79.1352 156.992 81.5873 158.108 83.8164 159.56C84.931 160.23 86.0456 161.123 87.0487 162.016C88.1633 162.909 89.055 163.914 89.9466 165.031C90.3924 165.589 90.8383 166.035 91.1727 166.594C91.1727 166.705 91.3956 166.817 91.3956 166.929C91.3956 167.04 91.1727 166.817 91.1727 166.817C90.9497 166.594 90.7268 166.37 90.5039 166.035C89.7237 165.031 88.7206 164.026 87.606 163.244C85.5998 161.569 83.2591 160.23 80.8071 159.225C80.1383 159.001 79.4696 158.778 78.8008 158.555C78.4664 158.443 78.1321 158.332 77.7977 158.22C77.6862 158.22 77.6862 158.108 77.5748 158.22C77.4633 158.22 77.4633 158.332 77.5748 158.443C77.6862 158.555 77.6862 158.555 77.7977 158.555C77.9092 158.667 78.1321 158.667 78.2435 158.778C78.5779 159.001 78.8008 159.113 79.1352 159.336C79.6925 159.783 80.2498 160.118 80.8071 160.565C81.3644 161.011 81.9216 161.346 82.5904 161.793C82.9248 162.016 83.1477 162.128 83.4821 162.351C83.5935 162.463 83.705 162.463 83.8164 162.574L83.9279 162.686C83.9279 162.798 83.8164 162.798 83.705 162.686C83.5935 162.686 83.4821 162.574 83.3706 162.463C83.2591 162.351 83.0362 162.351 82.9248 162.239C82.3675 161.904 81.6987 161.569 81.03 161.346C78.355 160.453 75.5685 159.895 72.6706 159.783C72.0019 159.783 71.2217 159.783 70.5529 159.895C69.8842 160.006 69.104 160.006 68.4352 160.118C68.1009 160.118 67.7665 160.118 67.4321 160.23C67.3207 160.23 66.8748 160.341 66.9863 160.453C66.9863 160.565 67.2092 160.565 67.3207 160.565C67.4321 160.565 67.655 160.565 67.7665 160.565C68.1009 160.565 68.5467 160.453 68.8811 160.453C69.5498 160.453 70.33 160.453 70.9988 160.453C71.6675 160.453 72.4477 160.565 73.1165 160.676C74.454 160.9 75.9029 161.234 77.2404 161.569C77.9092 161.793 78.5779 162.016 79.2467 162.239C79.9154 162.463 80.5842 162.798 81.2529 163.133C81.8102 163.356 82.3675 163.579 82.9248 163.914C82.9248 163.914 83.1477 164.026 83.0362 164.137C83.0362 164.249 82.9248 164.137 82.9248 164.137C82.7019 164.137 82.5904 164.026 82.4789 163.914C81.2529 163.356 80.0269 162.909 78.6894 162.463C77.3519 162.016 75.9029 161.681 74.5654 161.458C71.8904 161.011 68.9925 161.011 66.3175 161.681C63.9769 162.351 61.7478 163.467 59.9644 165.254C59.5186 165.7 59.0728 166.147 58.7384 166.705C58.5155 166.929 58.2926 167.264 58.1811 167.487C57.5124 167.487 57.178 168.045 57.2894 168.157Z" fill="#FF7D00"/>
<path fill-rule="evenodd" clip-rule="evenodd" d="M90.5039 192.05C88.9435 190.933 87.383 190.04 85.7112 189.259C81.8101 187.472 77.5747 186.356 73.3393 185.239C70.8873 184.681 68.4352 184.011 66.206 182.671C64.0883 181.332 62.305 179.099 62.305 176.531C62.305 173.963 64.4227 171.395 66.8748 171.618C64.4227 171.06 62.0821 173.293 61.7477 175.749C61.3019 179.545 64.5342 182.336 67.655 183.899C70.8873 185.574 74.4539 186.467 78.0206 187.472C81.6987 188.477 85.4883 189.817 88.6091 192.162C94.6278 196.628 98.083 203.773 99.309 211.142C99.4205 211.7 99.4205 212.147 99.532 212.705C99.532 212.929 99.532 213.152 99.6434 213.487C99.6434 213.263 100.089 212.705 100.201 212.482C100.312 212.035 100.201 211.589 100.312 211.142C100.535 207.681 103.544 205.671 105.997 203.662C109.006 201.317 111.681 198.191 113.687 194.953C113.687 194.841 113.799 194.841 113.799 194.73C116.028 191.157 117.588 186.802 116.474 182.671C119.26 181.108 122.492 180.662 125.613 181.443C125.502 178.875 125.167 175.861 123.05 174.298C120.82 172.734 117.7 173.516 115.359 174.856C109.786 178.094 105.885 184.123 99.8663 186.467C104.548 186.356 108.56 182.56 113.241 182.225C108.56 185.016 103.544 186.691 98.1945 188.031C96.1882 188.477 96.5226 190.375 96.4111 192.05C96.4111 193.836 96.0768 195.623 95.8539 197.409C94.4049 195.288 92.5101 193.501 90.5039 192.05ZM111.681 171.283L111.569 171.171C110.789 170.836 110.009 170.501 109.117 170.501C108.337 170.501 107.557 170.501 106.777 170.836C106.442 170.948 106.219 171.171 105.885 171.395C105.551 171.618 105.439 171.953 105.216 172.288C104.993 172.623 104.882 172.958 104.659 173.293C104.436 173.628 104.213 173.963 104.102 174.409C103.879 174.856 103.656 175.191 103.433 175.637C103.433 175.749 103.322 175.861 103.433 175.972C103.767 176.307 111.458 171.395 111.569 171.395C111.569 171.395 111.681 171.395 111.681 171.283ZM92.733 165.142C92.3987 164.919 92.1757 165.031 92.1757 165.366C92.1757 165.7 92.8445 171.06 92.9559 171.06C93.2903 170.613 93.7362 170.055 94.0705 169.162C94.2934 168.603 94.8507 167.375 94.7393 166.929C94.7393 166.817 94.6278 166.705 94.6278 166.594C94.6278 166.482 94.5164 166.37 94.4049 166.259L92.733 165.142ZM109.229 172.399C109.229 172.288 109.229 172.288 109.229 172.399C108.672 172.176 108.337 171.953 107.78 171.953C107.334 171.953 106.888 171.953 106.442 172.176C106.219 172.288 106.108 172.399 105.997 172.511C105.885 172.623 105.662 172.846 105.662 173.069C105.551 173.293 105.439 173.404 105.328 173.628C105.216 173.851 105.105 174.074 104.993 174.186C104.882 174.409 104.77 174.633 104.659 174.856C104.659 174.856 104.548 174.967 104.659 175.079C104.77 175.302 109.117 172.511 109.229 172.511C109.117 172.399 109.229 172.399 109.229 172.399Z" fill="white"/>
<path fill-rule="evenodd" clip-rule="evenodd" d="M92.956 166.37C92.733 166.259 92.6216 166.259 92.6216 166.482C92.6216 166.705 93.0674 169.72 93.0674 169.72C93.2903 169.497 93.5132 169.162 93.7362 168.715C93.8476 168.38 94.182 167.71 94.182 167.487C94.182 167.375 94.182 167.375 94.0705 167.264C94.0705 167.264 93.9591 167.152 93.9591 167.04L92.956 166.37ZM109.452 171.953C109.452 171.841 109.452 171.953 109.452 171.953C109.006 171.73 108.56 171.506 108.114 171.506C107.668 171.506 107.223 171.506 106.888 171.73C106.777 171.841 106.554 171.841 106.442 172.065C106.331 172.176 106.219 172.4 106.108 172.511C105.997 172.734 105.885 172.846 105.774 173.069C105.662 173.293 105.551 173.404 105.439 173.628C105.328 173.851 105.216 174.074 105.105 174.298V174.409C105.216 174.633 109.34 171.953 109.452 171.953Z" fill="#151B19"/>
<path fill-rule="evenodd" clip-rule="evenodd" d="M92.3986 160.788C92.5101 161.011 92.5101 161.234 92.6216 161.346C92.8445 161.458 92.9559 161.569 93.1788 161.569C93.1788 161.569 93.2903 161.569 93.2903 161.458C93.5132 161.234 93.6247 161.011 93.8476 160.676C94.182 160.23 94.5163 159.56 94.2934 159.001C94.182 158.555 95.408 156.992 95.2965 156.545C95.1851 155.875 94.7393 155.652 94.8507 155.429C94.9622 155.205 95.2965 155.317 95.7424 154.982C95.8538 154.87 96.0768 154.759 96.1882 154.424C96.2997 154.201 96.1882 153.977 96.0767 153.754C95.9653 153.531 95.7424 153.307 95.6309 153.196C95.408 152.972 95.1851 152.749 94.9622 152.637C94.5163 152.302 93.959 151.968 93.5132 151.633C93.0674 151.409 92.6216 151.074 92.0643 150.963C91.8413 150.963 91.6184 150.963 91.3955 151.074C91.1726 151.186 91.0611 151.409 90.9497 151.633C90.8382 152.191 90.8382 152.749 90.9497 153.307C91.0611 153.977 91.1726 154.535 91.1726 155.205C91.3955 156.434 91.507 157.662 91.7299 158.89C92.0643 159.56 92.1757 160.23 92.3986 160.788Z" fill="white"/>
<path fill-rule="evenodd" clip-rule="evenodd" d="M96.2997 184.458C96.0768 184.234 91.6185 180.662 91.2841 180.438C91.1726 180.327 90.9497 180.215 90.8383 180.215C90.7268 180.215 90.7268 180.215 90.6154 180.103C90.5039 180.103 90.3924 180.103 90.3924 180.103C90.3924 180.103 90.3924 180.103 90.3924 180.215C90.3924 180.215 90.3924 180.327 90.281 180.327C90.281 180.438 90.1695 180.438 90.1695 180.55C90.0581 180.662 90.0581 180.885 89.9466 180.997C89.8351 181.331 89.7237 181.666 89.6122 182.001C89.5008 182.671 89.6122 183.341 89.9466 183.899C90.281 184.569 90.9497 185.128 91.6185 185.574C91.9528 185.686 92.2872 185.909 92.6216 186.021C92.956 186.132 95.0737 186.244 95.2966 186.244C95.5195 186.244 95.631 186.244 95.8539 186.132C96.0768 186.132 96.1883 186.132 96.4112 186.132C96.5226 186.132 96.7455 186.132 96.857 186.021C96.9685 185.909 97.0799 185.909 97.0799 185.686C97.0799 185.574 97.0799 185.351 96.9685 185.239C96.857 184.904 96.6341 184.681 96.2997 184.458C96.4112 184.458 96.4112 184.458 96.2997 184.458Z" fill="#1B201C"/>
</svg>
