<svg width="186" height="185" viewBox="0 0 186 185" fill="none" xmlns="http://www.w3.org/2000/svg">
<path d="M184 0C183.6 0 183.2 0 183.2 0H2.1C1.7 0 1.3 0 1.3 0C0.8 0.4 0 0.8 0 1.3C0 1.8 0 2.2 0 2.2V182.8C0 183.2 0 183.6 0 183.6C0.4 184 0.8 184.9 1.3 184.9C1.7 184.9 2.1 184.9 2.1 184.9H182.7C183.1 184.9 183.5 184.9 183.5 184.9C183.9 184.5 184.8 184.1 184.8 183.6C184.8 183.2 184.8 182.8 184.8 182.8V2.1H185.2C185.2 1.7 185.2 1.2 185.2 1.2C184.8 0.8 184.4 0 184 0ZM176.8 4.6L162 19.4H23.2L8.4 4.6H176.8ZM160.3 24.5V160.4H24.5V24.5H160.3ZM4.6 8L19.4 23.2V162L4.6 176.8V8ZM8.4 180.2L23.2 165.4H162L176.8 180.2H8.4ZM180.2 176.8L165.4 161.6V23.2L180.2 8.4V176.8Z" fill="#666666"/>
<path d="M176.8 180.2H8.4L23.2 165.4H162L176.8 180.2Z" fill="white"/>
<path d="M180.2 8.39999V176.8L165.4 161.6V23.2L180.2 8.39999Z" fill="white"/>
<path d="M176.8 4.60001L162 19.4H23.2L8.4 4.60001H176.8Z" fill="white"/>
<path d="M19.4 23.2V162L4.6 176.8V8L19.4 23.2Z" fill="white"/>
<path d="M24.5 108.9V160.3H160.4V108.9V103.8V24.5H24.5V103.8V108.9Z" fill="white"/>
<path fill-rule="evenodd" clip-rule="evenodd" d="M74 96.8C75.2 97.8 76.9 98.1 78.3 97.7C76.8 97.8 75.4 97.7 74 96.8C74 96.8 74 96.7 74 96.8Z" fill="#1A1D1E"/>
<path fill-rule="evenodd" clip-rule="evenodd" d="M111.8 84.3C110.5 83.3 110.9 79.3 112.1 76.5C113.3 73.7 115.2 72.3 118 72.6C120.8 72.9 124.6 75 124.9 76.7C125.2 78.4 122.1 79.7 119.1 81.4C116.1 83.1 113.1 85.2 111.8 84.3Z" fill="#1B1918"/>
<path fill-rule="evenodd" clip-rule="evenodd" d="M96.3 76.2C96.7 76 95.8 73.7 95.3 72.5C94.7 71 94.2 70.1 94 69.6C93.7 68.9 93.3 67.9 92.7 61.6C92.4 58.1 92.3 55.7 93.3 54.8C94.4 53.8 95.4 55.5 96.8 56C98.2 56.4 98.2 56.9 99.5 57.6C107.8 62.5 121.2 63.9 129.8 59.7C131.4 58.9 134.6 56.5 134.7 56.2C135.3 54.5 137.6 54.4 137.5 55C137.1 56.5 139 59.5 138.8 61C138.1 65.6 137.7 70.8 135.7 75C135.7 75 135.9 75.3 136 75.4C136.1 75.5 140.9 82.4 138.7 92.3C137.4 98 134.5 103.2 131.3 108.2C125.1 117.7 116.7 125.7 108.4 133.4C104.2 137.3 97.5 144.4 97.5 144.4C97.5 144.4 84 133.1 80.2 129.7C71 121.8 62.2 113.5 54.4 104.2C50.7 99.8 47.4 95.9 46.3 90.1C45.4 84.9 46.1 79.5 48.3 74.7C49.2 72.8 50.1 71.4 50.5 70.9C50.7 70.5 53.5 66.7 57.5 64.1C62.1 61.2 68.4 59.5 74.4 60.9C84.1 63.1 93 72.5 94.5 74.6C94.7 75 95.9 76.4 96.3 76.2Z" fill="white"/>
<path fill-rule="evenodd" clip-rule="evenodd" d="M57.7 77.5C57.8 77.5 57.9 77.3 58 77.2C58.1 77 58.2 76.9 58.3 76.7C58.5 76.4 58.7 76.1 59 75.9C59.5 75.4 60 74.9 60.6 74.4C62.8 72.6 65.5 71.4 68.3 70.9C71.3 70.3 74.4 70.4 77.4 71C80.3 71.6 83.1 72.6 85.7 74.1C88.1 75.5 90.3 77.2 91.9 79.4C92.7 80.5 93.4 81.8 93.8 83.2C94.3 84.7 94.4 86.3 94.2 87.8C94.1 89.4 93.6 90.9 93.5 92.5C93.4 93.8 94.6 94.4 95.5 95.4C96 95.9 95.9 96.2 96.5 96.4C97.2 96.6 97.6 96.5 98.3 96.6C98.6 96.6 99.2 96.9 99.4 96.7C99.6 96.5 99.4 97.1 99.3 96.9C99.2 96.6 99 96.4 98.9 96.2C98.7 95.9 98.5 95.6 98.2 95.3C97.8 94.7 97.7 93.4 97.2 92.9C96.6 92.4 96.1 92.1 95.6 91.6C95.1 91.2 94.3 91.4 94.2 90.8C94.1 90 94.3 89.3 94.5 88.5C94.9 87 95.2 85.4 95.4 83.9C95.6 82.3 95.7 80.7 95.6 79.1C95.5 75.9 95 72.8 94.2 69.8C93.4 66.8 92.4 63.8 92.1 60.7C91.9 59.1 92 57.6 92.2 56C92.3 55.6 92.3 55.2 92.5 54.8C92.6 54.4 92.8 54 93.1 53.8C93.5 53.5 94 53.7 94.4 53.9C94.7 54.1 95 54.3 95.3 54.6C95.6 54.8 95.9 55 96.2 55.3C97.5 56.1 98.8 56.9 100.2 57.5C103 58.8 106 59.6 109 60.1C110.6 60.4 112.2 60.6 113.7 60.8C115.3 61 116.9 61.2 118.5 61.3C120.1 61.4 121.7 61.5 123.3 61.3C124.8 61.2 126.3 60.8 127.8 60.3C129.2 59.8 130.5 59.1 131.7 58.3C132.3 57.9 132.9 57.4 133.4 56.9C133.9 56.4 134.4 55.8 134.9 55.3C135.4 54.8 135.9 54.3 136.6 54.2C137.3 54.1 137.8 54.6 138 55.2C138.3 55.8 138.4 56.5 138.5 57.2C138.6 58 138.7 58.8 138.7 59.6C138.9 62.8 138.7 66 138.2 69.2C137.9 70.7 137.5 72.3 137.1 73.8C136.9 74.4 136.7 75.1 136.3 75.7C136.1 75.9 135.9 76.1 135.6 76.3C135.4 76.4 135.1 76.5 134.9 76.4C134.7 76.2 134.8 75.8 134.9 75.6C135 75.2 135.1 74.9 135.2 74.5C135.4 73.8 135.6 73 135.7 72.2C136 70.6 136.3 69.1 136.5 67.5C136.6 66.7 136.7 65.9 136.8 65.1C136.9 64.4 137 63.6 136.8 63C136.7 62.7 136.5 62.4 136.3 62.3C136.1 62.1 135.8 62.1 135.5 62.2C134.8 62.3 134.2 62.7 133.7 63C133.1 63.4 132.4 63.9 131.8 64.3C131.5 64.5 131.2 64.8 130.9 65C130.7 65.2 130.5 65.4 130.3 65.7C130.2 66 130.1 66.3 130.2 66.6C130.3 66.9 130.5 67.1 130.8 67.3C131 67.5 131.2 67.8 131.4 68.1C131.5 68.4 131.5 68.8 131.5 69.2C131.5 69.8 131.5 70.6 132 71.1C132.1 71.2 132.3 71.3 132.4 71.3C132.5 71.3 132.7 71.4 132.8 71.5C133 71.7 132.8 72.1 132.8 72.4C132.7 73.1 133 73.9 133.4 74.5C133.8 75.1 134.3 75.7 134.8 76.2C135.3 76.7 135.8 77.3 136.3 77.8C136.8 78.3 137.2 78.9 137.6 79.5C138.4 80.7 139 82.1 139.3 83.5C140.1 86.5 140.1 89.7 139.5 92.7C138.9 95.7 137.8 98.5 136.5 101.3C135.1 104 133.5 106.7 131.8 109.2C130 111.7 128.1 114.1 126.1 116.5C124 118.9 121.8 121.1 119.6 123.3C117.3 125.6 115 127.8 112.6 129.9C110.2 132.1 107.9 134.3 105.5 136.5C104.3 137.6 103.2 138.7 102 139.8C100.9 140.9 99.8 142 98.7 143.1C98.5 143.3 98.2 143.5 98 143.8C97.9 143.9 97.8 144.1 97.8 144.2C97.9 144.3 98.1 144.1 98.1 144.1C98.7 143.6 99.2 143.1 99.7 142.5C100.7 141.4 101.7 140.3 102.5 139C104.1 136.5 104.8 133.6 104.6 130.7C104.6 129.9 104.4 129.2 104.3 128.4C104.2 127.6 104 126.9 103.8 126.1C103.8 125.9 103.7 125.6 103.4 125.7C103.3 125.8 103.2 125.9 103.1 126C103 126.1 102.9 126.3 102.7 126.4C102.1 126.8 101.3 126.7 100.8 127.2C100.6 127.4 100.4 127.7 100.2 127.9C100 128.1 99.8 128 99.7 127.8C99.6 127.6 99.6 127.3 99.6 127C99.6 126.6 99.6 126.2 99.5 125.8C99.4 125.4 99.4 125 99.4 124.6C99.4 124.4 99.5 123.8 99.1 123.7C98.9 123.7 98.8 123.8 98.7 123.9C98.6 124 98.5 124.1 98.3 124.3C98 124.5 97.7 124.7 97.5 125C97.3 125.2 97.1 125.4 96.8 125.4C96.5 125.5 96.3 125.1 96.2 124.9C95.8 124.3 95.3 123.7 94.7 123.2C94.5 123 94.3 122.8 94 122.6C93.9 122.5 93.7 122.3 93.5 122.3C93.2 122.3 93.3 122.8 93.3 123C93.4 123.4 93.4 123.8 93.5 124.1C93.6 124.9 93.6 125.7 93.7 126.4C93.8 126.7 93.8 127.1 93.8 127.4C93.8 127.5 93.8 127.6 93.7 127.7C93.6 127.8 93.5 127.6 93.4 127.5C93.3 127.4 93.3 127.2 93.2 127C93.1 126.8 93 126.7 92.9 126.6C92.7 126.3 92.4 126.1 92.2 125.9C92 125.7 91.6 125.5 91.3 125.4C91 125.4 90.9 125.7 90.9 126C90.9 126.2 91 126.5 91 126.7C90.9 127.1 90.5 126.8 90.3 126.7C90 126.5 89.7 126.3 89.3 126.1C89 125.9 88.6 125.7 88.3 125.5C87.7 125.2 87 124.8 86.4 124.4C86.2 124.2 85.9 124.1 85.7 124.4C85.5 124.7 85.6 125 85.6 125.3C85.6 125.7 85.7 126 85.8 126.4C85.9 126.8 86.1 127.1 86.3 127.4C86.4 127.5 86.4 127.7 86.4 127.8C86.3 127.9 86.2 127.9 86 127.9C85.8 127.9 85.7 127.9 85.5 127.9C85.3 127.9 85.1 128 84.9 128C84.2 128.2 83.5 128.6 82.8 128.9C82.5 129.1 82.1 129.2 81.8 129.4C81.5 129.5 81.2 129.6 80.9 129.7C80.7 129.8 80.4 130 80.4 130.3C80.5 130.6 80.8 130.7 81 130.8C81.6 131.2 82.2 131.8 82.8 132.3C84 133.4 85.2 134.4 86.4 135.5C88.8 137.6 91.2 139.6 93.7 141.6C94.3 142.1 94.9 142.6 95.5 143C95.9 143.3 96.3 143.6 96.8 143.8C96.9 143.8 97.2 143.9 97.1 143.7C97.1 143.6 96.9 143.5 96.9 143.5C96.8 143.4 96.6 143.3 96.5 143.2C95.8 142.8 95.2 142.3 94.5 141.8C93.2 140.9 92 139.9 90.7 138.9C89.4 137.9 88.2 136.9 86.9 135.9C84.4 133.9 81.9 131.8 79.4 129.8C76.9 127.7 74.5 125.7 72.1 123.5C69.7 121.4 67.3 119.2 65 117C62.7 114.8 60.3 112.6 58.1 110.3C54.8 107 51.8 103.4 49.5 99.4C48.9 98.3 48.3 97.2 47.8 96C46.6 93.2 45.7 90.3 45.4 87.3C45 84.2 45.2 81.1 46 78.1C46.7 75.3 48 72.7 49.7 70.3C51.3 68 53.4 66 55.7 64.5C58.1 62.9 60.8 61.8 63.6 61.2C66.7 60.6 69.8 60.6 72.9 61.2C73.7 61.3 74.5 61.5 75.3 61.7C75.8 61.8 76.4 62 76.9 62.2C76.9 62.2 77.3 62.4 77.1 62.4C77 62.4 76.9 62.4 76.8 62.4C76.7 62.4 76.6 62.3 76.5 62.3C75.8 62.1 75 61.9 74.3 61.7C71.3 61 68.1 61 65 61.6C62.2 62.1 59.5 63.2 57.1 64.8C54.8 66.3 52.8 68.3 51.3 70.6C50.5 71.9 49.9 73.2 49.3 74.6C49 75.3 48.7 76 48.6 76.8C48.6 76.9 48.5 77.1 48.5 77.3C48.5 77.4 48.6 77.4 48.6 77.3C48.7 77.2 48.7 77 48.8 76.9C49.1 76.2 49.3 75.5 49.6 74.8C49.9 74.1 50.3 73.5 50.7 72.8C51.5 71.6 52.5 70.4 53.5 69.3C55.5 67.3 57.9 65.6 60.4 64.3C63.1 63 66.1 62.2 69.1 62C70.7 61.9 72.2 62 73.8 62.1C74 62.1 74.1 62.1 74.3 62.2C74.4 62.2 74.7 62.3 74.7 62.4C74.7 62.5 74.5 62.5 74.4 62.5C74.2 62.5 74 62.5 73.8 62.4C73 62.3 72.2 62.3 71.4 62.4C70.6 62.5 69.8 62.6 69.1 62.8C68.3 62.9 67.6 63.1 66.8 63.3C66.7 63.3 66.2 63.5 66.4 63.6C66.5 63.7 66.7 63.6 66.9 63.6C67.6 63.5 68.3 63.3 69.1 63.3C70.6 63.2 72.2 63.2 73.8 63.4C75.4 63.6 76.9 63.8 78.4 64.2C81.2 65 84 66.2 86.5 67.7C87.8 68.5 89 69.4 90.1 70.4C91.3 71.4 92.3 72.5 93.3 73.7C93.8 74.3 94.3 74.8 94.7 75.4C94.7 75.5 94.9 75.7 94.9 75.8C94.8 75.9 94.7 75.7 94.6 75.7C94.3 75.4 94.1 75.1 93.9 74.9C93 73.7 91.9 72.7 90.7 71.8C88.4 70 85.9 68.5 83.2 67.4C82.5 67.1 81.8 66.9 81 66.6C80.6 66.5 80.3 66.4 79.9 66.2C79.8 66.2 79.7 66.1 79.6 66.2C79.5 66.2 79.5 66.4 79.6 66.4C79.7 66.5 79.8 66.5 79.9 66.6C80.1 66.7 80.2 66.8 80.4 66.9C80.7 67.1 81 67.3 81.3 67.5C81.9 68 82.6 68.4 83.2 68.9C83.8 69.4 84.5 69.8 85.2 70.2C85.5 70.4 85.8 70.6 86.1 70.8C86.2 70.9 86.4 71 86.5 71.1C86.5 71.1 86.6 71.2 86.6 71.3C86.6 71.4 86.5 71.4 86.4 71.3C86.3 71.2 86.2 71.2 86.1 71.1C85.9 71 85.7 70.9 85.6 70.8C84.9 70.4 84.3 70.1 83.6 69.9C80.7 68.9 77.5 68.3 74.4 68.2C73.6 68.2 72.8 68.2 72 68.3C71.2 68.4 70.4 68.5 69.7 68.5C69.3 68.5 69 68.5 68.6 68.6C68.5 68.6 68 68.7 68 68.9C68 69 68.3 69 68.4 69C68.6 69 68.8 69 68.9 69C69.3 69 69.7 68.9 70.1 68.9C70.9 68.9 71.6 68.9 72.4 69C73.2 69.1 74 69.1 74.7 69.3C76.2 69.5 77.7 69.9 79.2 70.3C79.9 70.5 80.7 70.8 81.4 71.1C82.1 71.4 82.8 71.7 83.6 72.1C84.2 72.4 84.9 72.6 85.4 73C85.5 73 85.6 73.1 85.6 73.2C85.6 73.3 85.5 73.3 85.4 73.2C85.2 73.2 85 73.1 84.9 73C83.5 72.4 82.1 71.9 80.7 71.4C79.2 70.9 77.7 70.6 76.1 70.3C73.1 69.8 70 69.8 67 70.6C64.4 71.3 61.9 72.6 60 74.5C59.5 75 59.1 75.5 58.6 76.1C58.4 76.4 58.1 76.7 57.9 77C58 76.8 57.5 77.4 57.7 77.5Z" fill="#FF7D00"/>
<path fill-rule="evenodd" clip-rule="evenodd" d="M94.5 104C92.8 102.8 91 101.8 89.2 100.9C84.8 98.9 80.2 97.7 75.5 96.5C72.8 95.8 70 95.2 67.6 93.7C65.2 92.2 63.3 89.7 63.3 86.9C63.2 84.1 65.6 81.3 68.4 81.5C65.7 80.9 63.1 83.3 62.8 86.1C62.4 90.3 65.9 93.4 69.3 95.1C72.9 97 76.9 97.9 80.8 99C84.9 100.2 89 101.6 92.5 104.2C99.1 109.1 103 117.1 104.3 125.1C104.4 125.7 104.5 126.3 104.5 126.9C104.5 127.2 104.6 127.4 104.6 127.7C104.6 127.5 105.1 126.8 105.2 126.6C105.3 126.1 105.2 125.6 105.3 125.1C105.5 121.2 108.9 119 111.6 116.9C115 114.3 117.8 110.9 120.1 107.2C120.1 107.1 120.2 107.1 120.2 107C122.6 103 124.3 98.2 123.2 93.6C126.2 91.9 129.9 91.4 133.3 92.2C133.2 89.3 132.8 86 130.5 84.3C128.1 82.5 124.6 83.4 122 84.9C115.8 88.5 111.5 95.2 104.8 97.7C110 97.6 114.4 93.4 119.6 93.1C114.4 96.2 108.9 98 103 99.5C100.8 100 101.2 102.1 101 103.9C101 105.9 100.6 107.9 100.4 109.8C98.8 107.5 96.7 105.6 94.5 104ZM117.9 81C117.9 80.9 117.8 80.9 117.7 80.9C116.8 80.5 116 80.2 115 80.1C114.2 80 113.2 80.1 112.4 80.5C112.1 80.6 111.7 80.8 111.5 81.1C111.2 81.4 110.9 81.7 110.7 82.1C110.5 82.5 110.3 82.9 110.1 83.2C109.9 83.6 109.6 84 109.4 84.4C109.1 84.8 108.9 85.3 108.7 85.8C108.7 85.9 108.6 86.1 108.7 86.1C109 86.5 117.6 81.1 117.7 81.1C117.8 81.1 117.9 81.1 117.9 81ZM96.9 74.2C96.5 73.9 96.2 74.1 96.2 74.5C96.2 74.9 97 80.8 97.1 80.8C97.5 80.3 98 79.6 98.4 78.7C98.6 78.1 99.2 76.7 99.2 76.2C99.2 76 99.1 75.9 99.1 75.8C99 75.7 98.9 75.6 98.8 75.4L96.9 74.2ZM115.2 82.2C114.6 81.9 114.2 81.7 113.6 81.7C113.1 81.7 112.6 81.7 112.2 81.9C112 82 111.8 82.1 111.7 82.2C111.5 82.4 111.4 82.6 111.3 82.8C111.2 83 111.1 83.2 110.9 83.4C110.8 83.6 110.6 83.8 110.5 84.1C110.4 84.3 110.2 84.6 110.1 84.9C110.1 84.9 110 85 110.1 85.1C110.3 85.3 115.1 82.3 115.1 82.3C115.1 82.3 115.2 82.3 115.2 82.2Z" fill="white"/>
<path fill-rule="evenodd" clip-rule="evenodd" d="M97.2 75.6C97 75.5 96.8 75.5 96.8 75.8C96.8 76 97.3 79.3 97.3 79.3C97.5 79 97.8 78.6 98 78.1C98.1 77.8 98.5 77 98.4 76.7C98.4 76.6 98.4 76.5 98.3 76.5C98.3 76.4 98.2 76.4 98.1 76.3L97.2 75.6ZM115.5 81.7C115.4 81.7 115.5 81.7 115.5 81.7C114.9 81.4 114.5 81.3 114 81.2C113.5 81.2 113.1 81.2 112.6 81.4C112.4 81.5 112.2 81.6 112.1 81.7C111.9 81.9 111.8 82 111.7 82.2C111.6 82.4 111.5 82.6 111.4 82.8C111.3 83 111.2 83.2 111 83.4C110.9 83.6 110.7 83.9 110.6 84.1C110.6 84.1 110.5 84.2 110.6 84.3C110.8 84.5 115.3 81.6 115.4 81.6C115.4 81.8 115.5 81.8 115.5 81.7Z" fill="#151B19"/>
<path fill-rule="evenodd" clip-rule="evenodd" d="M96.5 69.4C96.6 69.6 96.6 69.8 96.7 70.1C96.9 70.2 97.1 70.3 97.4 70.4C97.4 70.4 97.5 70.3 97.6 70.3C97.8 70 98 69.8 98.2 69.5C98.5 69 98.9 68.3 98.7 67.7C98.6 67.2 99.9 65.5 99.8 64.9C99.6 64.2 99.2 64 99.4 63.7C99.5 63.4 99.9 63.6 100.4 63.2C100.5 63.1 100.8 62.9 100.9 62.6C101 62.3 100.9 62.1 100.8 61.8C100.7 61.6 100.5 61.4 100.3 61.2C100.1 61 99.8 60.8 99.5 60.5C99 60.1 98.4 59.7 97.9 59.3C97.4 59 96.9 58.7 96.3 58.6C96.1 58.6 95.8 58.6 95.6 58.7C95.4 58.8 95.2 59.1 95.2 59.3C95 59.9 95.1 60.6 95.2 61.2C95.3 61.9 95.4 62.6 95.5 63.3C95.7 64.7 95.9 66.1 96.2 67.4C96.2 68.1 96.3 68.8 96.5 69.4Z" fill="white"/>
<path fill-rule="evenodd" clip-rule="evenodd" d="M100.9 95.5C100.6 95.2 95.7 91.3 95.4 91C95.2 90.9 95.1 90.8 94.9 90.7C94.8 90.7 94.7 90.6 94.7 90.6C94.6 90.6 94.5 90.6 94.4 90.6C94.4 90.6 94.4 90.7 94.3 90.7C94.3 90.7 94.3 90.8 94.2 90.8C94.2 90.9 94.1 91 94.1 91.1C94 91.3 93.9 91.5 93.8 91.6C93.6 91.9 93.5 92.3 93.5 92.7C93.4 93.4 93.5 94.2 93.8 94.8C94.2 95.6 94.9 96.2 95.6 96.6C95.9 96.8 96.3 96.9 96.7 97C97.1 97.1 99.4 97.3 99.6 97.3C99.8 97.3 100 97.3 100.2 97.2C100.4 97.2 100.6 97.2 100.8 97.1C101 97.1 101.2 97.1 101.3 97C101.4 96.9 101.6 96.8 101.6 96.7C101.6 96.5 101.6 96.3 101.5 96.2C101.5 96.1 101.2 95.9 100.9 95.5C101 95.6 101 95.6 100.9 95.5Z" fill="#1B201C"/>
</svg>
