<svg width="20" height="20" viewBox="0 0 20 20" fill="none" xmlns="http://www.w3.org/2000/svg">
<path d="M11.5176 10L19.208 0.833008C19.3369 0.680664 19.2285 0.449219 19.0293 0.449219H16.6914C16.5537 0.449219 16.4219 0.510742 16.331 0.616211L9.98827 8.17773L3.6455 0.616211C3.55761 0.510742 3.42577 0.449219 3.28515 0.449219H0.947256C0.748038 0.449219 0.639639 0.680664 0.768545 0.833008L8.45898 10L0.768545 19.167C0.739669 19.201 0.721144 19.2425 0.715168 19.2867C0.709193 19.3308 0.716018 19.3758 0.734834 19.4162C0.753651 19.4566 0.783668 19.4908 0.821321 19.5146C0.858974 19.5385 0.902682 19.551 0.947256 19.5508H3.28515C3.42284 19.5508 3.55468 19.4893 3.6455 19.3838L9.98827 11.8223L16.331 19.3838C16.4189 19.4893 16.5508 19.5508 16.6914 19.5508H19.0293C19.2285 19.5508 19.3369 19.3193 19.208 19.167L11.5176 10Z" fill="black"/>
</svg>
