<svg width="170" height="148" viewBox="0 0 170 148" fill="none" xmlns="http://www.w3.org/2000/svg">
<path d="M167.6 39.0138C158.3 30.6138 149 22.2138 139.7 13.8138C138.7 12.9138 137.4 12.1138 136.1 11.7138C126.3 8.11384 116.4 4.61384 106.7 0.913844C104.3 0.0138439 102.3 -0.0861561 99.8 0.713844C89.2 4.01384 78.7 4.11384 68.2 0.313844C67.2 -0.0861561 65.9 -0.0861561 64.9 0.213844C56.1 3.31384 47.5 6.71384 38.7 9.61384C33.6 11.3138 29.3 14.0138 25.4 17.6138C17 25.3138 8.5 32.6138 0 40.0138V42.7138C0.7 43.3138 1.5 43.9138 2.1 44.6138C7.4 50.9138 12.8 57.2138 18 63.5138C19.6 65.5138 20.9 65.7138 22.9 64.1138C25.2 62.3138 27.7 60.6138 30.5 58.6138V62.2138C30.5 89.3138 30.4 116.414 30.4 143.514C30.4 147.514 30.6 147.714 34.4 147.714C67.9 147.714 101.3 147.814 134.8 147.814C138.6 147.814 138.9 147.514 138.9 143.614L139 59.1138C141.8 61.0138 144.1 62.5138 146.1 64.2138C148.2 65.9138 149.6 65.8138 151.4 63.6138C156.8 57.0138 162.4 50.6138 167.9 44.2138C170.1 41.7138 170.1 41.2138 167.6 39.0138ZM73.5 5.91384C75.3 6.31384 77 6.71384 78.8 6.91384C80.5 7.11384 82.2 7.31384 84 7.21384C87.6 7.21384 91.3 6.61384 94.8 6.01384C96.6 5.71384 98.3 5.31384 100.1 4.91384C100.3 4.81384 101.9 4.61384 101.9 4.41384C100.2 15.6138 92.6 23.4138 84.1 22.9138C75.7 22.4138 68.1 14.0138 67.7 4.61384C67.7 4.81384 73 5.81384 73.5 5.91384ZM148.5 61.2138C145.6 59.2138 142.9 57.2138 140.1 55.3138C139 54.6138 137.6 54.3138 136.4 53.8138C136 55.2138 135.3 56.6138 135.3 57.9138C135.2 81.4138 135.2 105.014 135.2 128.514V143.714L34.2 143.614L34.3 57.4138C34.3 56.7138 34.3 56.0138 34.3 55.2138C34.1 52.9138 32.8 52.2138 30.9 53.6138C27.6 55.9138 24.4 58.3138 20.9 60.8138C15.3 54.4138 9.9 48.0138 4.3 41.5138C11.3 35.2138 18.4 29.3138 25 22.9138C30.7 17.4138 37.1 13.7138 44.6 11.5138C50.3 9.81384 55.7 7.61384 61.3 5.61384C62 5.41384 62.7 5.21384 63.5 5.01384C66.4 16.8138 71.8 26.9138 85.4 26.5138C98.2 26.1138 103.4 16.5138 106 4.91384C115.9 8.51384 125.6 11.9138 135.2 15.5138C135.9 15.8138 136.6 16.2138 137.2 16.8138C146.2 24.9138 155.3 33.1138 164.3 41.3138C164.5 41.5138 164.6 41.7138 164.9 42.1138C159.5 48.3138 154.1 54.7138 148.5 61.2138Z" fill="#666666"/>
<path d="M101.9 4.41385C100.2 15.6138 92.6 23.4138 84.1 22.9138C75.7 22.4138 68.1 14.0138 67.7 4.61385C67.7 4.81385 73 5.81385 73.5 5.91385C75.3 6.31385 77 6.71385 78.8 6.91385C80.5 7.11385 82.2 7.31385 84 7.21385C87.6 7.21385 91.3 6.61385 94.8 6.01385C96.6 5.71385 98.3 5.31385 100.1 4.91385C100.3 4.81385 101.9 4.61385 101.9 4.41385Z" fill="white"/>
<path d="M164.9 42.0138C159.5 48.4138 154.1 54.7138 148.5 61.3138C145.6 59.3138 142.9 57.3139 140.1 55.4138C139 54.7138 137.6 54.4138 136.4 53.9138C136 55.3139 135.3 56.7138 135.3 58.0138C135.2 81.5138 135.2 105.114 135.2 128.614V143.814L34.2 143.714L34.3 57.5138C34.3 56.8138 34.3 56.1138 34.3 55.3138C34.1 53.0138 32.8 52.3138 30.9 53.7138C27.6 56.0138 24.4 58.4138 20.9 60.9138C15.3 54.4138 9.89999 48.0138 4.29999 41.5138C11.3 35.2138 18.4 29.3138 25 22.9138C30.7 17.4138 37.1 13.7138 44.6 11.5138C50.3 9.81385 55.7 7.61385 61.3 5.61385C62 5.41385 62.7 5.21385 63.5 5.01385C66.4 16.8138 71.8 26.9138 85.4 26.5138C98.2 26.1138 103.4 16.5138 106 4.91385C115.9 8.51385 125.6 11.9138 135.2 15.5138C135.9 15.8138 136.6 16.2138 137.2 16.8138C146.2 24.9138 155.3 33.1138 164.3 41.3138C164.5 41.3138 164.6 41.5138 164.9 42.0138Z" fill="white"/>
<path d="M67.6 80.1138C68.5 80.8138 69.7 81.0138 70.6 80.7138C69.6 80.8138 68.5 80.7138 67.6 80.1138Z" fill="#1A1D1E"/>
<path d="M94.4 71.2138C93.5 70.5138 93.8 67.7138 94.6 65.7138C95.4 63.7138 96.8 62.7139 98.8 62.9139C100.8 63.1139 103.5 64.6139 103.7 65.8139C103.9 67.0139 101.7 67.9138 99.6 69.1138C97.4 70.4138 95.3 72.0138 94.4 71.2138Z" fill="#1B1918"/>
<path d="M83.4 65.5139C83.7 65.4139 83 63.7139 82.7 62.9139C82.2 61.8139 81.9 61.2139 81.7 60.8139C81.5 60.3139 81.2 59.6139 80.8 55.1139C80.6 52.6139 80.5 50.9139 81.2 50.3139C82 49.6139 82.7 50.8139 83.7 51.2139C84.7 51.5139 84.7 51.8139 85.6 52.3139C91.5 55.8139 101 56.8139 107.1 53.8139C108.2 53.2139 110.5 51.5139 110.6 51.3139C111 50.1139 112.7 50.0139 112.6 50.4139C112.3 51.5139 113.7 53.6139 113.5 54.7139C113 58.0139 112.7 61.7139 111.3 64.6139C111.3 64.6139 111.4 64.8139 111.5 64.9139C111.6 65.0139 115 69.9139 113.4 76.9139C112.5 80.9139 110.5 84.6139 108.2 88.0139C103.8 94.7139 97.8 100.414 92 105.914C89.1 108.714 84.3 113.814 84.3 113.814C84.3 113.814 74.7 105.914 71.9 103.514C65.4 97.9139 59.2 92.0139 53.6 85.4139C51 82.3139 48.6 79.5139 47.9 75.4139C47.3 71.7139 47.8 67.9139 49.3 64.5139C49.9 63.2139 50.6 62.2139 50.9 61.8139C51 61.5139 53 58.8139 55.9 57.0139C59.2 54.9139 63.6 53.7139 67.9 54.7139C74.8 56.3139 81.1 62.9139 82.2 64.4139C82.3 64.6139 83.1 65.6139 83.4 65.5139Z" fill="white"/>
<path d="M56.1 66.5138C56.2 66.5138 56.2 66.4138 56.3 66.3138C56.4 66.2138 56.4 66.1138 56.5 65.9138C56.6 65.7138 56.8 65.5138 57 65.3138C57.4 64.9138 57.7 64.6138 58.1 64.2138C59.7 62.9138 61.6 62.1138 63.6 61.7138C65.7 61.3138 67.9 61.3138 70.1 61.8138C72.2 62.2138 74.1 62.9138 76 64.0138C77.7 65.0138 79.3 66.2138 80.4 67.8138C81 68.6138 81.5 69.5138 81.7 70.5138C82.1 71.6138 82.1 72.7138 82 73.8138C81.9 74.9138 81.6 76.1138 81.5 77.1138C81.4 78.0138 82.3 78.4138 82.9 79.2138C83.3 79.6138 83.2 79.8138 83.6 79.9138C84.1 80.0138 84.4 80.0138 84.9 80.0138C85.1 80.0138 85.5 80.2138 85.7 80.1138C85.9 80.0138 85.7 80.4138 85.6 80.2138C85.5 80.1138 85.4 79.9138 85.3 79.8138C85.2 79.6138 84.9 79.4138 84.8 79.2138C84.5 78.8138 84.4 77.9138 84.1 77.5138C83.7 77.1138 83.3 76.9138 83 76.6138C82.6 76.2138 82 76.5138 82 76.0138C81.9 75.4138 82.1 74.9138 82.2 74.4138C82.5 73.3138 82.7 72.2138 82.8 71.1138C82.9 70.0138 82.9 68.8138 82.9 67.7138C82.8 65.4138 82.5 63.2138 81.9 61.1138C81.3 59.0138 80.6 56.8138 80.4 54.6138C80.3 53.5138 80.3 52.4138 80.5 51.3138C80.6 51.0138 80.6 50.7138 80.7 50.4138C80.8 50.1138 80.9 49.8138 81.1 49.7138C81.4 49.5138 81.7 49.6138 82 49.8138C82.2 49.9138 82.4 50.1138 82.6 50.3138C82.8 50.4138 83 50.6138 83.2 50.8138C84.1 51.4138 85 51.9138 86 52.4138C88 53.3138 90.1 53.9138 92.2 54.2138C93.3 54.4138 94.5 54.6138 95.5 54.7138C96.6 54.8138 97.8 55.0138 98.9 55.1138C100 55.2138 101.2 55.2138 102.3 55.1138C103.4 55.0138 104.4 54.7138 105.5 54.4138C106.5 54.0138 107.4 53.5138 108.3 53.0138C108.7 52.7138 109.2 52.4138 109.5 52.0138C109.9 51.6138 110.2 51.2138 110.6 50.9138C111 50.5138 111.3 50.2138 111.8 50.1138C112.3 50.0138 112.7 50.4138 112.8 50.8138C113 51.2138 113.1 51.7138 113.2 52.2138C113.3 52.8138 113.3 53.3138 113.3 53.9138C113.4 56.2138 113.3 58.4138 112.9 60.7138C112.7 61.8138 112.4 62.9138 112.1 64.0138C112 64.4138 111.8 64.9138 111.5 65.3138C111.4 65.4138 111.2 65.6138 111 65.7138C110.9 65.8138 110.6 65.8138 110.5 65.8138C110.4 65.7138 110.4 65.4138 110.5 65.2138C110.6 64.9138 110.6 64.7138 110.7 64.4138C110.8 63.9138 111 63.3138 111.1 62.8138C111.3 61.7138 111.5 60.6138 111.7 59.5138C111.8 58.9138 111.8 58.4138 111.9 57.8138C112 57.3138 112 56.7138 111.9 56.3138C111.8 56.1138 111.7 55.9138 111.5 55.8138C111.4 55.4138 111.2 55.4138 111 55.4138C110.5 55.5138 110.1 55.8138 109.7 56.0138C109.3 56.3138 108.8 56.6138 108.4 56.9138C108.2 57.0138 108 57.3138 107.8 57.4138C107.7 57.5138 107.5 57.7138 107.4 57.9138C107.3 58.1138 107.3 58.3138 107.3 58.5138C107.4 58.7138 107.5 58.9138 107.7 59.0138C107.8 59.1138 108 59.4138 108.1 59.6138C108.2 59.8138 108.2 60.1138 108.2 60.4138C108.2 60.8138 108.2 61.4138 108.6 61.7138C108.7 61.8138 108.8 61.8138 108.9 61.8138C109 61.8138 109.1 61.9138 109.2 61.9138C109.3 62.0138 109.2 62.3138 109.2 62.5138C109.1 63.0138 109.3 63.6138 109.6 64.0138C109.9 64.4138 110.2 64.9138 110.6 65.2138C111 65.6138 111.3 66.0138 111.7 66.3138C112.1 66.7138 112.3 67.1138 112.6 67.5138C113.2 68.4138 113.6 69.3138 113.8 70.3138C114.4 72.4138 114.4 74.7138 113.9 76.8138C113.4 78.9138 112.7 80.9138 111.8 82.9138C110.8 84.8138 109.7 86.7138 108.5 88.5138C107.2 90.3138 105.9 92.0138 104.5 93.7138C103 95.4138 101.5 97.0138 99.9 98.5138C98.3 100.114 96.6 101.714 94.9 103.214C93.2 104.814 91.6 106.314 89.9 107.914C89 108.714 88.3 109.514 87.4 110.214C86.6 111.014 85.8 111.814 85.1 112.514C85 112.614 84.7 112.814 84.6 113.014C84.5 113.114 84.5 113.214 84.5 113.314C84.6 113.414 84.7 113.214 84.7 113.214C85.1 112.814 85.5 112.514 85.8 112.114C86.5 111.314 87.2 110.514 87.8 109.614C88.9 107.814 89.4 105.814 89.3 103.714C89.3 103.114 89.2 102.614 89.1 102.114C89 101.614 88.9 101.014 88.7 100.514C88.7 100.414 88.6 100.114 88.4 100.214C88.3 100.314 88.3 100.314 88.2 100.414C88.1 100.514 88.1 100.614 87.9 100.714C87.5 101.014 86.9 100.914 86.6 101.314C86.5 101.414 86.3 101.714 86.2 101.814C86.1 101.914 85.9 101.914 85.8 101.714C85.7 101.614 85.7 101.314 85.7 101.114C85.7 100.814 85.7 100.514 85.6 100.214C85.6 100.114 85.5 99.8138 85.5 99.5138C85.5 99.4138 85.6 98.9138 85.3 98.9138C85.2 98.9138 85.1 99.0138 85 99.0138C84.9 99.1138 84.9 99.1138 84.7 99.3138C84.5 99.4138 84.3 99.6138 84.1 99.8138C84 99.9138 83.8 100.114 83.6 100.114C83.4 100.214 83.2 99.9138 83.2 99.7138C82.9 99.3138 82.6 98.8138 82.1 98.5138C82 98.4138 81.8 98.2138 81.6 98.1138C81.5 98.0138 81.4 97.9138 81.2 97.9138C81 97.9138 81.1 98.3138 81.1 98.4138C81.2 98.6138 81.2 98.9138 81.2 99.1138C81.3 99.7138 81.3 100.214 81.3 100.714C81.4 100.914 81.4 101.214 81.4 101.414C81.4 101.514 81.4 101.514 81.3 101.614C81.2 101.714 81.2 101.514 81.1 101.514C81 101.414 81 101.314 81 101.114C80.9 101.014 80.9 100.914 80.8 100.814C80.7 100.614 80.4 100.414 80.3 100.314C80.2 100.214 79.9 100.014 79.7 99.9138C79.5 99.9138 79.4 100.114 79.4 100.314C79.4 100.414 79.5 100.714 79.5 100.814C79.4 101.114 79.1 100.914 79 100.814C78.8 100.714 78.6 100.514 78.3 100.414C78.1 100.314 77.8 100.114 77.6 100.014C77.2 99.8138 76.7 99.5138 76.3 99.2138C76.2 99.1138 75.9 99.0138 75.8 99.2138C75.7 99.4138 75.7 99.6138 75.7 99.8138C75.7 100.114 75.8 100.314 75.8 100.614C75.9 100.914 76 101.114 76.2 101.314C76.3 101.414 76.3 101.514 76.3 101.614C76.2 101.714 76.2 101.714 76 101.714C75.8 101.714 75.8 101.714 75.6 101.714C75.4 101.714 75.3 101.814 75.2 101.814C74.7 101.914 74.2 102.214 73.7 102.414C73.5 102.514 73.2 102.614 73 102.814C72.8 102.914 72.6 102.914 72.4 103.014C72.3 103.114 72 103.214 72 103.414C72.1 103.614 72.3 103.714 72.4 103.814C72.8 104.114 73.3 104.514 73.7 104.914C74.6 105.714 75.4 106.414 76.3 107.214C78 108.714 79.7 110.114 81.5 111.514C81.9 111.914 82.4 112.214 82.8 112.514C83.1 112.714 83.4 112.914 83.7 113.114C83.8 113.114 84 113.214 83.9 113.014C83.9 112.914 83.8 112.914 83.8 112.914C83.7 112.814 83.6 112.814 83.5 112.714C83 112.414 82.6 112.114 82.1 111.714C81.2 111.114 80.3 110.414 79.4 109.614C78.5 108.914 77.6 108.214 76.7 107.514C74.9 106.114 73.2 104.614 71.4 103.214C69.6 101.714 67.9 100.314 66.2 98.7138C64.5 97.2138 62.8 95.7138 61.2 94.1138C59.6 92.5138 57.9 91.0138 56.3 89.3138C54 87.0138 51.8 84.4138 50.2 81.6138C49.8 80.8138 49.3 80.0138 49 79.2138C48.1 77.2138 47.5 75.2138 47.3 73.0138C47 70.8138 47.2 68.6138 47.7 66.5138C48.2 64.5138 49.1 62.7138 50.3 61.0138C51.4 59.4138 52.9 58.0138 54.6 56.9138C56.3 55.8138 58.2 55.0138 60.2 54.6138C62.4 54.2138 64.6 54.2138 66.8 54.6138C67.4 54.7138 67.9 54.8138 68.5 55.0138C68.9 55.1138 69.3 55.2138 69.6 55.4138C69.6 55.4138 69.9 55.5138 69.7 55.5138C69.6 55.5138 69.6 55.5138 69.5 55.5138C69.4 55.5138 69.4 55.4138 69.3 55.4138C68.8 55.3138 68.2 55.1138 67.7 55.0138C65.6 54.5138 63.3 54.5138 61.1 54.9138C59.1 55.3138 57.2 56.0138 55.5 57.2138C53.9 58.3138 52.5 59.7138 51.4 61.3138C50.8 62.2138 50.4 63.1138 50 64.1138C49.8 64.6138 49.6 65.1138 49.5 65.7138C49.5 65.8138 49.4 65.9138 49.4 66.1138C49.4 66.2138 49.5 66.2138 49.5 66.1138C49.6 66.0138 49.6 65.9138 49.6 65.8138C49.8 65.3138 50 64.8138 50.2 64.3138C50.4 63.8138 50.7 63.4138 51 62.9138C51.6 62.0138 52.3 61.2138 53 60.4138C54.4 59.0138 56.1 57.8138 57.9 56.9138C59.8 56.0138 61.9 55.4138 64.1 55.3138C65.2 55.2138 66.3 55.3138 67.4 55.4138C67.5 55.4138 67.6 55.4138 67.8 55.5138C67.9 55.5138 68.1 55.6138 68.1 55.6138C68.1 55.7138 68 55.7138 67.9 55.7138C67.8 55.7138 67.6 55.7138 67.5 55.6138C66.9 55.5138 66.4 55.5138 65.8 55.6138C65.2 55.7138 64.7 55.7138 64.2 55.9138C63.6 56.0138 63.1 56.1138 62.6 56.3138C62.5 56.3138 62.2 56.4138 62.3 56.5138C62.4 56.6138 62.5 56.5138 62.7 56.5138C63.2 56.4138 63.7 56.3138 64.3 56.3138C65.4 56.2138 66.5 56.2138 67.6 56.4138C68.7 56.5138 69.8 56.7138 70.9 57.0138C72.9 57.6138 74.9 58.4138 76.6 59.5138C77.5 60.1138 78.4 60.7138 79.2 61.4138C80.1 62.1138 80.8 62.9138 81.5 63.7138C81.9 64.1138 82.2 64.5138 82.5 64.9138C82.5 65.0138 82.6 65.1138 82.6 65.2138C82.5 65.3138 82.5 65.1138 82.4 65.1138C82.2 64.9138 82 64.7138 81.9 64.5138C81.3 63.6138 80.5 62.9138 79.6 62.3138C78 61.0138 76.2 60.0138 74.3 59.2138C73.8 59.0138 73.3 58.8138 72.7 58.6138C72.4 58.5138 72.2 58.5138 71.9 58.3138C71.8 58.3138 71.8 58.2138 71.7 58.3138C71.6 58.3138 71.6 58.4138 71.7 58.4138C71.8 58.5138 71.8 58.5138 71.9 58.5138C72 58.6138 72.1 58.6138 72.3 58.7138C72.5 58.8138 72.7 59.0138 72.9 59.1138C73.3 59.5138 73.8 59.7138 74.2 60.1138C74.6 60.5138 75.1 60.7138 75.6 61.0138C75.8 61.1138 76 61.3138 76.2 61.4138C76.3 61.5138 76.4 61.5138 76.5 61.6138L76.6 61.7138C76.6 61.7138 76.5 61.8138 76.5 61.7138C76.4 61.6138 76.4 61.6138 76.3 61.6138C76.2 61.5138 76 61.5138 75.9 61.4138C75.4 61.1138 75 60.9138 74.5 60.8138C72.4 60.1138 70.2 59.7138 68 59.6138C67.4 59.6138 66.9 59.6138 66.3 59.7138C65.7 59.8138 65.1 60.0138 64.6 60.0138C64.3 60.0138 64.1 60.0138 63.8 60.1138C63.7 60.1138 63.4 60.2138 63.4 60.3138C63.4 60.4138 63.6 60.4138 63.7 60.4138C63.8 60.4138 64 60.4138 64.1 60.4138C64.4 60.4138 64.7 60.3138 65 60.3138C65.6 60.3138 66.1 60.3138 66.6 60.4138C67.1 60.5138 67.7 60.5138 68.2 60.6138C69.3 60.7138 70.3 61.0138 71.4 61.3138C71.9 61.4138 72.5 61.7138 73 61.9138C73.5 62.1138 74 62.3138 74.6 62.6138C75 62.8138 75.5 63.0138 75.9 63.2138C76 63.2138 76 63.3138 76 63.3138C76 63.3138 75.9 63.4138 75.9 63.3138C75.8 63.3138 75.6 63.2138 75.5 63.2138C74.5 62.8138 73.5 62.4138 72.5 62.1138C71.4 61.7138 70.4 61.5138 69.2 61.3138C67.1 60.9138 64.9 60.9138 62.7 61.5138C60.9 62.0138 59.1 62.9138 57.7 64.3138C57.3 64.7138 57.1 65.0138 56.7 65.4138C56.6 65.6138 56.3 65.8138 56.2 66.0138C56.2 66.0138 55.9 66.4138 56.1 66.5138Z" fill="#FF7D00"/>
<path d="M82.2 85.3138C81 84.4138 79.7 83.7138 78.4 83.1138C75.3 81.7138 72 80.8138 68.7 80.0138C66.8 79.5138 64.8 79.1138 63.1 78.0138C61.4 76.9138 60.1 75.2138 60.1 73.2138C60 71.2138 61.7 69.2138 63.7 69.4138C61.8 69.0138 59.9 70.7138 59.7 72.7138C59.4 75.7138 61.9 77.9138 64.3 79.1138C66.9 80.4138 69.7 81.1138 72.5 81.9138C75.4 82.8138 78.3 83.7138 80.8 85.6138C85.5 89.1138 88.2 94.7138 89.2 100.414C89.3 100.814 89.3 101.314 89.3 101.714C89.3 101.914 89.4 102.114 89.4 102.314C89.4 102.214 89.8 101.714 89.8 101.514C89.9 101.114 89.8 100.814 89.9 100.414C90 97.6138 92.5 96.1138 94.4 94.6138C96.8 92.8138 98.8 90.3138 100.4 87.7138C100.4 87.6138 100.5 87.6138 100.5 87.6138C102.2 84.8138 103.4 81.4138 102.6 78.1138C104.7 76.9138 107.4 76.5138 109.8 77.1138C109.7 75.0138 109.4 72.7138 107.8 71.5138C106.1 70.2138 103.6 70.9138 101.8 71.9138C97.4 74.4138 94.4 79.1138 89.6 81.0138C93.3 80.9138 96.4 78.0138 100.1 77.7138C96.4 79.9138 92.5 81.2138 88.3 82.2138C86.8 82.5138 87 83.9138 86.9 85.2138C86.9 86.6138 86.6 88.0138 86.5 89.4138C85.1 87.8138 83.7 86.4138 82.2 85.3138ZM98.7 69.0138C98.7 68.9138 98.6 68.9138 98.6 68.9138C98 68.6138 97.4 68.4138 96.7 68.3138C96.1 68.2138 95.4 68.3138 94.9 68.6138C94.7 68.7138 94.4 68.8138 94.3 69.0138C94.1 69.2138 93.9 69.4138 93.7 69.7138C93.5 70.0138 93.4 70.3138 93.3 70.5138C93.2 70.8138 92.9 71.1138 92.8 71.4138C92.6 71.7138 92.4 72.0138 92.3 72.4138C92.3 72.5138 92.2 72.6138 92.3 72.6138C92.5 72.9138 98.6 69.1138 98.7 69.1138C98.7 69.0138 98.7 69.0138 98.7 69.0138ZM83.9 64.1138C83.6 63.9138 83.4 64.0138 83.4 64.3138C83.4 64.6138 84 68.8138 84 68.8138C84.3 68.4138 84.6 67.9138 84.9 67.3138C85 66.9138 85.5 65.9138 85.5 65.5138C85.5 65.4138 85.4 65.3138 85.4 65.2138C85.3 65.1138 85.3 65.1138 85.2 64.9138L83.9 64.1138ZM96.8 69.8138C96.4 69.6138 96.1 69.4138 95.7 69.4138C95.3 69.4138 95 69.4138 94.7 69.5138C94.6 69.6138 94.4 69.6138 94.3 69.7138C94.2 69.8138 94.1 70.0138 94 70.1138C93.9 70.2138 93.9 70.4138 93.7 70.5138C93.6 70.6138 93.5 70.8138 93.4 71.0138C93.3 71.1138 93.2 71.4138 93.1 71.6138C93.1 71.6138 93 71.7138 93.1 71.7138C93.4 72.0138 96.8 69.9138 96.8 69.8138Z" fill="white"/>
<path d="M84.1 65.1138C84 65.0138 83.8 65.0138 83.8 65.2138C83.8 65.3138 84.2 67.7138 84.2 67.7138C84.3 67.5138 84.6 67.2138 84.7 66.8138C84.8 66.6138 85.1 66.0138 85 65.8138C85 65.7138 85 65.7138 84.9 65.7138C84.9 65.6138 84.8 65.6138 84.8 65.6138L84.1 65.1138ZM97 69.5138C97 69.4138 97 69.5138 97 69.5138C96.6 69.3138 96.3 69.2138 95.9 69.1138C95.5 69.1138 95.3 69.1138 94.9 69.2138C94.8 69.3138 94.6 69.3138 94.5 69.4138C94.4 69.5138 94.3 69.6138 94.2 69.8138C94.1 69.9138 94.1 70.1138 94 70.2138C93.9 70.3138 93.9 70.5138 93.7 70.6138C93.6 70.7138 93.5 71.0138 93.4 71.1138C93.4 71.1138 93.3 71.2138 93.4 71.2138C93.7 71.5138 96.9 69.4138 97 69.5138Z" fill="#151B19"/>
<path d="M83.6 60.7138C83.7 60.8138 83.7 61.0138 83.7 61.1138C83.8 61.2138 84 61.2138 84.2 61.3138L84.3 61.2138C84.4 61.0138 84.6 60.8138 84.7 60.6138C84.9 60.2138 85.1 59.7138 85 59.3138C84.9 58.9138 85.9 57.7138 85.8 57.3138C85.7 56.8138 85.4 56.7138 85.5 56.4138C85.6 56.2138 85.9 56.3138 86.2 56.0138C86.3 55.9138 86.5 55.8138 86.6 55.6138C86.7 55.4138 86.6 55.2138 86.5 55.0138C86.4 54.9138 86.3 54.7138 86.1 54.6138C86 54.5138 85.7 54.3138 85.5 54.1138C85.1 53.8138 84.7 53.5138 84.4 53.2138C84 53.0138 83.7 52.8138 83.3 52.7138C83.2 52.7138 82.9 52.7138 82.8 52.8138C82.7 52.9138 82.5 53.1138 82.5 53.2138C82.4 53.6138 82.4 54.1138 82.5 54.5138C82.6 55.0138 82.6 55.5138 82.7 56.0138C82.8 57.0138 83 58.0138 83.2 58.9138C83.4 59.8138 83.4 60.3138 83.6 60.7138Z" fill="white"/>
<path d="M86.7 79.3138C86.6 79.1138 83.1 76.3138 82.8 76.1138C82.7 76.0138 82.6 76.0138 82.4 76.0138C82.3 76.0138 82.3 75.9138 82.3 75.9138C82.2 75.9138 82.2 75.9138 82.1 75.9138C82.1 75.9138 82.1 76.0138 82 76.0138C82 76.0138 82 76.1138 81.9 76.1138C81.9 76.2138 81.8 76.2138 81.8 76.3138C81.8 76.4138 81.7 76.5138 81.7 76.7138C81.6 77.0138 81.5 77.2138 81.5 77.5138C81.4 78.0138 81.5 78.6138 81.7 79.0138C82 79.6138 82.5 80.0138 83 80.3138C83.3 80.4138 83.6 80.5138 83.9 80.7138C84.1 80.8138 85.8 80.9138 86 80.9138C86.2 80.9138 86.3 80.9138 86.4 80.8138C86.5 80.8138 86.7 80.8138 86.8 80.7138C86.9 80.7138 87.1 80.7138 87.2 80.6138C87.3 80.5138 87.3 80.5138 87.4 80.4138C87.4 80.3138 87.4 80.1138 87.3 80.0138C87.1 79.6138 86.9 79.5138 86.7 79.3138C86.8 79.3138 86.7 79.3138 86.7 79.3138Z" fill="#1B201C"/>
</svg>
