<svg width="143" height="125" viewBox="0 0 143 125" fill="none" xmlns="http://www.w3.org/2000/svg">
<path d="M142.5 45.6C142.5 43.9 142.3 42.3 142 40.6C138.9 23.1 125 11.5 107.2 11.5H101.1V0H0.1C0.1 0.8 0 1.5 0 2.1C0 37 0 72 0 107C0 117.1 6.5 123.9 16.6 124C39.3 124.1 61.9 124.1 84.6 124C94.5 123.9 101.1 117.1 101.2 107.2C101.2 106 101.2 104.8 101.2 103.6C105.5 103.4 109.4 103.4 113.3 102.9C128 101.1 141.1 87.9 142.1 73.1C142.8 64 142.4 54.7 142.5 45.6ZM96.5 7.4C96.5 40.4 96.5 73.3 96.5 106.3C96.5 114.9 91.9 119.6 83.2 119.6C61.4 119.6 39.5 119.6 17.7 119.6C9.3 119.6 4.6 114.9 4.6 106.6C4.6 73.5 4.6 40.4 4.5 7.3C4.5 5.1 5.1 4.7 7.2 4.7C36.1 4.8 65.1 4.7 94 4.7H96.5V7.4ZM101.2 34.3C104.4 34.5 107.7 34.3 110.7 34.9C116 36 119.3 40.4 119.4 46.4C119.5 53.9 119.6 61.4 119.4 68.9C119.2 75.7 114.2 80.4 107.4 80.4H101.1V34.3H101.2ZM137.6 71.5C136.8 86.4 123.8 98.5 108.9 98.7C106.4 98.8 103.9 98.7 101.2 98.7V85C103.4 85 105.4 85 107.5 85C116.5 84.9 123.5 79 123.9 70C124.3 61.3 124.2 52.6 123.8 43.9C123.4 36.1 116.6 30.1 108.8 29.8C106.4 29.7 104 29.8 101.3 29.8V16.3C108.7 15.7 116 16.2 122.7 20.1C132.5 25.9 137.5 34.6 137.8 45.8C138.1 54.4 138.1 63 137.6 71.5Z" fill="#666666"/>
<path d="M96.5 4.70001V7.40001C96.5 40.4 96.5 73.3 96.5 106.3C96.5 114.9 91.9 119.6 83.2 119.6C61.4 119.6 39.5 119.6 17.7 119.6C9.3 119.6 4.6 114.9 4.6 106.6C4.6 73.5 4.6 40.4 4.5 7.30001C4.5 5.10001 5.1 4.70001 7.2 4.70001C36.1 4.80001 65.1 4.70001 94 4.70001H96.5Z" fill="white"/>
<path d="M101.2 98.7C101.2 94 101.2 89.6 101.2 84.9C103.4 84.9 105.4 84.9 107.5 84.9C116.5 84.8 123.5 78.9 123.9 69.9C124.3 61.2 124.2 52.5 123.8 43.8C123.4 36 116.6 30 108.8 29.7C106.4 29.6 104 29.7 101.3 29.7C101.3 25.1 101.3 20.7 101.3 16.1C108.7 15.5 116 16 122.7 19.9C132.5 25.7 137.5 34.4 137.8 45.6C138 54.1 138.1 62.7 137.6 71.2C136.8 86.1 123.8 98.2 108.9 98.4C106.4 98.8 103.9 98.7 101.2 98.7Z" fill="white"/>
<path fill-rule="evenodd" clip-rule="evenodd" d="M36 67.9C36.8 68.5 37.8 68.7 38.6 68.4C37.7 68.5 36.8 68.4 36 67.9C36 67.9 36 67.8 36 67.9Z" fill="#1A1D1E"/>
<path fill-rule="evenodd" clip-rule="evenodd" d="M59.2 60.2C58.4 59.6 58.7 57.1 59.4 55.4C60.1 53.7 61.3 52.8 63 53C64.7 53.2 67 54.5 67.2 55.5C67.4 56.5 65.5 57.3 63.6 58.4C61.8 59.5 60 60.8 59.2 60.2Z" fill="#1B1918"/>
<path fill-rule="evenodd" clip-rule="evenodd" d="M49.7 55.2C49.9 55.1 49.4 53.7 49.1 52.9C48.7 52 48.4 51.4 48.3 51.1C48.1 50.7 47.9 50.1 47.5 46.2C47.3 44 47.2 42.6 47.9 42C48.6 41.4 49.2 42.4 50.1 42.7C51 43 51 43.2 51.7 43.7C56.8 46.7 65 47.6 70.3 45C71.3 44.5 73.3 43.1 73.3 42.8C73.7 41.8 75.1 41.7 75 42.1C74.8 43 75.9 44.8 75.8 45.8C75.4 48.6 75.1 51.8 73.9 54.4C73.9 54.4 74 54.6 74.1 54.6C74.2 54.7 77.1 58.9 75.8 65C75 68.5 73.2 71.7 71.3 74.7C67.5 80.5 62.3 85.5 57.2 90.2C54.6 92.6 50.5 97 50.5 97C50.5 97 42.2 90.1 39.8 88.1C34.2 83.3 28.7 78.1 24 72.4C21.7 69.7 19.7 67.3 19.1 63.7C18.5 60.5 18.9 57.2 20.3 54.2C20.8 53.1 21.4 52.2 21.7 51.9C21.9 51.7 23.5 49.3 26 47.8C28.8 46 32.7 45 36.4 45.8C42.4 47.1 47.8 52.9 48.7 54.2C48.7 54.5 49.5 55.3 49.7 55.2Z" fill="white"/>
<path fill-rule="evenodd" clip-rule="evenodd" d="M26 56.1C26.1 56.1 26.2 56 26.2 55.9C26.3 55.8 26.3 55.7 26.4 55.6C26.5 55.4 26.7 55.3 26.8 55.1C27.1 54.8 27.4 54.5 27.8 54.2C29.2 53.1 30.8 52.4 32.5 52C34.3 51.6 36.3 51.7 38.1 52.1C39.9 52.5 41.6 53.1 43.2 54C44.7 54.8 46 55.9 47 57.3C47.5 58 47.9 58.8 48.2 59.6C48.5 60.5 48.6 61.5 48.5 62.4C48.4 63.4 48.1 64.3 48 65.3C47.9 66.1 48.7 66.5 49.2 67.1C49.5 67.4 49.4 67.6 49.8 67.7C50.2 67.8 50.4 67.8 50.9 67.8C51.1 67.8 51.4 68 51.6 67.9C51.7 67.8 51.6 68.1 51.5 68C51.4 67.8 51.3 67.7 51.2 67.6C51.1 67.4 50.9 67.2 50.8 67C50.5 66.6 50.5 65.8 50.2 65.5C49.9 65.2 49.5 65 49.2 64.7C48.9 64.4 48.4 64.6 48.3 64.2C48.2 63.7 48.3 63.3 48.5 62.8C48.7 61.9 49 60.9 49.1 60C49.2 59 49.3 58 49.2 57.1C49.2 55.2 48.8 53.2 48.3 51.4C47.8 49.5 47.2 47.7 47 45.8C46.9 44.8 46.9 43.9 47.1 42.9C47.1 42.6 47.2 42.4 47.3 42.1C47.4 41.9 47.5 41.6 47.7 41.5C47.9 41.3 48.3 41.4 48.5 41.6C48.7 41.7 48.9 41.9 49.1 42C49.3 42.1 49.5 42.3 49.7 42.4C50.5 42.9 51.3 43.4 52.2 43.8C53.9 44.6 55.8 45.1 57.6 45.4C58.6 45.6 59.5 45.7 60.5 45.8C61.5 45.9 62.5 46 63.5 46.1C64.5 46.2 65.5 46.2 66.4 46.1C67.3 46 68.3 45.8 69.2 45.5C70.1 45.2 70.9 44.8 71.6 44.3C72 44 72.3 43.8 72.6 43.4C72.9 43.1 73.2 42.7 73.5 42.4C73.8 42.1 74.1 41.8 74.5 41.7C74.9 41.6 75.2 42 75.4 42.3C75.6 42.7 75.6 43.1 75.7 43.5C75.8 44 75.8 44.5 75.8 44.9C75.9 46.9 75.8 48.8 75.5 50.8C75.3 51.7 75.1 52.7 74.8 53.6C74.7 54 74.6 54.4 74.3 54.8C74.2 54.9 74.1 55.1 73.9 55.2C73.8 55.3 73.6 55.3 73.5 55.3C73.4 55.2 73.4 55 73.5 54.8C73.6 54.6 73.7 54.4 73.7 54.1C73.8 53.6 73.9 53.2 74 52.7C74.2 51.7 74.3 50.8 74.5 49.8C74.6 49.3 74.6 48.8 74.7 48.3C74.8 47.9 74.8 47.4 74.7 47C74.6 46.8 74.5 46.7 74.4 46.6C74.3 46.5 74.1 46.5 73.9 46.5C73.5 46.6 73.1 46.8 72.8 47C72.4 47.2 72 47.5 71.7 47.8C71.5 47.9 71.3 48.1 71.2 48.3C71.1 48.4 70.9 48.6 70.8 48.7C70.7 48.9 70.7 49.1 70.7 49.2C70.8 49.4 70.9 49.5 71 49.6C71.1 49.7 71.3 49.9 71.3 50.1C71.4 50.3 71.4 50.5 71.4 50.8C71.4 51.2 71.4 51.7 71.7 52C71.8 52.1 71.9 52.1 72 52.1C72.1 52.1 72.2 52.1 72.2 52.2C72.3 52.3 72.2 52.6 72.2 52.7C72.1 53.2 72.3 53.6 72.6 54C72.8 54.4 73.1 54.7 73.4 55.1C73.7 55.4 74 55.8 74.3 56.1C74.6 56.4 74.8 56.8 75.1 57.2C75.6 58 75.9 58.8 76.2 59.7C76.7 61.5 76.7 63.5 76.3 65.4C75.9 67.2 75.3 69 74.4 70.7C73.6 72.4 72.6 74 71.5 75.5C70.4 77.1 69.2 78.5 68 80C66.7 81.5 65.4 82.8 64 84.2C62.6 85.6 61.1 86.9 59.7 88.3C58.2 89.6 56.8 91 55.3 92.3C54.6 93 53.9 93.7 53.2 94.4C52.5 95.1 51.9 95.8 51.2 96.4C51.1 96.5 50.9 96.7 50.8 96.8L50.7 97C50.7 97.1 50.9 97 50.9 96.9C51.2 96.6 51.6 96.3 51.9 95.9C52.5 95.2 53.1 94.5 53.6 93.8C54.6 92.3 55 90.5 54.9 88.7C54.9 88.2 54.8 87.8 54.7 87.3C54.6 86.8 54.5 86.4 54.4 85.9C54.4 85.8 54.3 85.6 54.2 85.6C54.1 85.6 54.1 85.7 54 85.8C53.9 85.9 53.9 86 53.8 86C53.4 86.3 53 86.2 52.6 86.5C52.4 86.6 52.4 86.8 52.2 86.9C52 87 51.9 87 51.8 86.8C51.8 86.6 51.8 86.5 51.8 86.3C51.8 86.1 51.8 85.8 51.7 85.6C51.7 85.4 51.6 85.1 51.6 84.9C51.6 84.7 51.7 84.4 51.4 84.4C51.3 84.4 51.2 84.5 51.2 84.5C51.1 84.6 51.1 84.6 51 84.7C50.8 84.8 50.7 85 50.5 85.1C50.4 85.2 50.3 85.3 50.1 85.4C49.9 85.4 49.8 85.2 49.7 85.1C49.5 84.7 49.1 84.4 48.8 84.1C48.7 84 48.5 83.8 48.4 83.7C48.3 83.6 48.2 83.5 48.1 83.5C47.9 83.5 48 83.8 48 83.9C48 84.1 48.1 84.4 48.1 84.6C48.1 85.1 48.1 85.6 48.2 86C48.2 86.2 48.3 86.4 48.3 86.6C48.3 86.6 48.3 86.7 48.3 86.8C48.2 86.8 48.2 86.7 48.1 86.7C48.1 86.6 48 86.5 48 86.4C47.9 86.3 47.9 86.2 47.8 86.1C47.7 85.9 47.5 85.8 47.3 85.7C47.1 85.6 47 85.4 46.8 85.4C46.6 85.4 46.5 85.6 46.6 85.8C46.6 85.9 46.7 86.1 46.6 86.3C46.5 86.5 46.3 86.4 46.2 86.3C46 86.2 45.8 86 45.6 85.9C45.4 85.8 45.2 85.7 45 85.5C44.6 85.3 44.2 85.1 43.8 84.8C43.7 84.7 43.5 84.6 43.4 84.8C43.3 85 43.3 85.2 43.3 85.4C43.3 85.6 43.3 85.9 43.4 86.1C43.5 86.3 43.6 86.5 43.7 86.7C43.7 86.8 43.8 86.9 43.8 86.9C43.8 87 43.6 87 43.6 87C43.5 87 43.4 87 43.3 87C43.2 87 43.1 87 43 87.1C42.5 87.2 42.1 87.4 41.7 87.6C41.5 87.7 41.3 87.8 41.1 87.9C40.9 88 40.7 88 40.5 88.1C40.4 88.2 40.2 88.3 40.2 88.4C40.2 88.6 40.4 88.6 40.6 88.7C41 89 41.3 89.3 41.7 89.6C42.4 90.2 43.2 90.9 43.9 91.5C45.4 92.8 46.9 94 48.4 95.2C48.8 95.5 49.1 95.8 49.5 96.1C49.7 96.3 50 96.5 50.3 96.6C50.4 96.6 50.5 96.7 50.5 96.6C50.5 96.5 50.4 96.5 50.3 96.4C50.2 96.3 50.1 96.3 50 96.2C49.6 95.9 49.2 95.7 48.8 95.4C48 94.8 47.2 94.2 46.5 93.6C45.7 93 45 92.4 44.2 91.8C42.7 90.6 41.1 89.3 39.6 88C38.1 86.7 36.6 85.5 35.1 84.2C33.6 82.9 32.2 81.6 30.7 80.2C29.3 78.9 27.8 77.5 26.4 76.1C24.4 74.1 22.5 71.9 21.1 69.4C20.7 68.7 20.4 68 20 67.3C19.3 65.6 18.7 63.8 18.5 62C18.3 60.1 18.4 58.2 18.8 56.3C19.2 54.6 20 53 21 51.5C22 50.1 23.3 48.9 24.7 47.9C26.2 46.9 27.8 46.2 29.6 45.9C31.5 45.5 33.4 45.5 35.3 45.9C35.8 46 36.3 46.1 36.7 46.2C37 46.3 37.4 46.4 37.7 46.5C37.7 46.5 37.9 46.6 37.8 46.6C37.8 46.6 37.7 46.6 37.6 46.6C37.5 46.6 37.5 46.6 37.4 46.5C37 46.4 36.5 46.2 36 46.1C34.1 45.7 32.2 45.7 30.3 46C28.6 46.3 26.9 47 25.4 48C24 48.9 22.8 50.2 21.8 51.6C21.3 52.4 20.9 53.2 20.6 54.1C20.4 54.5 20.3 55 20.2 55.4C20.2 55.5 20.1 55.6 20.2 55.7H20.3C20.4 55.6 20.4 55.5 20.4 55.5C20.6 55.1 20.7 54.6 20.9 54.2C21.1 53.8 21.3 53.4 21.6 53C22.1 52.2 22.7 51.5 23.3 50.9C24.5 49.6 26 48.6 27.6 47.8C29.3 47 31.1 46.5 32.9 46.4C33.9 46.3 34.8 46.4 35.8 46.5C35.9 46.5 36 46.5 36.1 46.5C36.2 46.5 36.3 46.5 36.4 46.6C36.4 46.7 36.3 46.7 36.2 46.7C36.1 46.7 35.9 46.7 35.8 46.7C35.3 46.7 34.8 46.6 34.3 46.7C33.8 46.7 33.3 46.8 32.9 46.9C32.4 47 32 47.1 31.5 47.2C31.5 47.2 31.2 47.3 31.3 47.4C31.4 47.4 31.5 47.4 31.6 47.4C32.1 47.4 32.5 47.2 32.9 47.2C33.9 47.1 34.8 47.2 35.8 47.3C36.8 47.4 37.7 47.6 38.6 47.8C40.3 48.3 42 49 43.6 50C44.4 50.5 45.1 51 45.8 51.6C46.5 52.2 47.2 52.9 47.8 53.7C48.1 54.1 48.4 54.4 48.7 54.8C48.7 54.8 48.9 55 48.8 55C48.8 55.1 48.7 54.9 48.6 54.9C48.4 54.7 48.3 54.6 48.2 54.4C47.6 53.7 47 53.1 46.3 52.5C44.9 51.4 43.3 50.5 41.7 49.8C41.3 49.6 40.8 49.5 40.4 49.3C40.2 49.2 40 49.1 39.8 49.1C39.8 49.1 39.7 49.1 39.6 49.1C39.5 49.1 39.5 49.2 39.6 49.2C39.6 49.2 39.7 49.3 39.8 49.3C39.9 49.4 40 49.4 40.1 49.5C40.3 49.6 40.5 49.8 40.7 49.9C41.1 50.2 41.5 50.5 41.9 50.7C42.3 51 42.7 51.3 43.1 51.5C43.3 51.6 43.5 51.7 43.7 51.9C43.8 52 43.9 52 43.9 52.1L44 52.2C44 52.3 43.9 52.2 43.9 52.2C43.8 52.2 43.8 52.1 43.7 52.1C43.6 52 43.5 52 43.4 51.9C43 51.7 42.6 51.5 42.1 51.3C40.3 50.7 38.4 50.3 36.4 50.3C35.9 50.3 35.4 50.3 34.9 50.4C34.4 50.4 33.9 50.5 33.5 50.5C33.3 50.5 33 50.5 32.8 50.6C32.7 50.6 32.4 50.7 32.5 50.8C32.5 50.9 32.7 50.9 32.7 50.9C32.8 50.9 32.9 50.9 33 50.9C33.3 50.9 33.5 50.8 33.8 50.8C34.3 50.8 34.7 50.8 35.2 50.8C35.7 50.8 36.2 50.9 36.6 51C37.5 51.1 38.5 51.3 39.4 51.6C39.9 51.7 40.3 51.9 40.8 52.1C41.3 52.3 41.7 52.5 42.1 52.7C42.5 52.9 42.9 53 43.2 53.2L43.3 53.3H43.2C43.1 53.3 43 53.2 42.9 53.2C42.1 52.8 41.2 52.5 40.3 52.2C39.4 51.9 38.4 51.7 37.5 51.5C35.7 51.2 33.7 51.2 31.9 51.7C30.3 52.1 28.8 52.9 27.6 54.1C27.3 54.4 27 54.7 26.8 55.1C26.7 55.3 26.5 55.5 26.4 55.7C26.1 55.6 25.9 56 26 56.1Z" fill="#FF7D00"/>
<path fill-rule="evenodd" clip-rule="evenodd" d="M48.6 72.3C47.6 71.6 46.5 71 45.3 70.4C42.6 69.2 39.8 68.4 36.9 67.7C35.2 67.3 33.5 66.9 32.1 66C30.6 65.1 29.5 63.6 29.4 61.8C29.4 60.1 30.8 58.3 32.5 58.5C30.9 58.1 29.2 59.6 29 61.3C28.7 63.9 30.9 65.8 33 66.8C35.2 67.9 37.7 68.5 40 69.2C42.5 69.9 45 70.8 47.2 72.4C51.3 75.4 53.7 80.3 54.5 85.3C54.6 85.7 54.6 86 54.7 86.4C54.7 86.6 54.7 86.7 54.8 86.9C54.8 86.8 55.1 86.4 55.2 86.2C55.3 85.9 55.2 85.6 55.2 85.3C55.3 82.9 57.4 81.6 59.1 80.3C61.2 78.7 62.9 76.6 64.3 74.4L64.4 74.3C65.9 71.8 66.9 68.9 66.3 66.1C68.2 65.1 70.4 64.7 72.5 65.3C72.4 63.5 72.2 61.5 70.8 60.5C69.3 59.4 67.2 59.9 65.6 60.9C61.8 63.1 59.2 67.2 55.1 68.8C58.3 68.7 61 66.1 64.2 66C61 67.9 57.6 69 54 69.9C52.6 70.2 52.9 71.5 52.7 72.6C52.7 73.8 52.5 75.1 52.3 76.3C51.2 74.5 50 73.3 48.6 72.3ZM63 58.2C62.9 58.2 63 58.2 63 58.2C62.4 57.9 61.8 57.7 61.3 57.7C60.8 57.7 60.2 57.7 59.7 57.9C59.5 58 59.3 58.1 59.1 58.3C58.9 58.5 58.8 58.7 58.6 58.9C58.5 59.1 58.3 59.4 58.2 59.6C58.1 59.8 57.9 60.1 57.8 60.3C57.6 60.6 57.5 60.9 57.4 61.1C57.4 61.2 57.3 61.3 57.4 61.3C57.6 61.6 62.9 58.2 62.9 58.2H63ZM50.1 54C49.9 53.8 49.7 53.9 49.7 54.2C49.7 54.5 50.2 58.1 50.3 58C50.5 57.7 50.8 57.3 51.1 56.7C51.2 56.3 51.6 55.5 51.6 55.2C51.6 55.1 51.6 55 51.5 55C51.5 54.9 51.4 54.9 51.3 54.8L50.1 54ZM61.3 58.9C60.9 58.7 60.7 58.6 60.3 58.6C60 58.6 59.7 58.6 59.4 58.7C59.3 58.8 59.2 58.8 59.1 58.9C59 59 58.9 59.1 58.8 59.2C58.7 59.3 58.7 59.5 58.6 59.6C58.5 59.7 58.4 59.9 58.4 60C58.3 60.2 58.2 60.3 58.2 60.5V60.6C58.3 60.8 61.2 59 61.3 58.9C61.3 59 61.3 59 61.3 58.9Z" fill="white"/>
<path fill-rule="evenodd" clip-rule="evenodd" d="M50.3 54.8C50.2 54.7 50.1 54.8 50.1 54.9C50.1 55 50.4 57.1 50.4 57.1C50.5 56.9 50.7 56.7 50.8 56.4C50.9 56.2 51.1 55.7 51.1 55.5C51.1 55.4 51.1 55.4 51.1 55.4L51 55.3L50.3 54.8ZM61.5 58.6C61.4 58.6 61.5 58.6 61.5 58.6C61.2 58.4 60.9 58.3 60.6 58.3C60.3 58.3 60 58.3 59.8 58.4C59.7 58.4 59.6 58.5 59.5 58.6C59.4 58.7 59.3 58.8 59.2 58.9C59.1 59 59.1 59.1 59 59.3C58.9 59.4 58.9 59.6 58.8 59.7C58.7 59.8 58.6 60 58.6 60.1V60.2C58.6 60.4 61.4 58.7 61.5 58.6C61.5 58.7 61.4 58.7 61.5 58.6Z" fill="#151B19"/>
<path fill-rule="evenodd" clip-rule="evenodd" d="M49.8 51.1C49.8 51.2 49.9 51.4 49.9 51.5C50 51.6 50.2 51.6 50.3 51.7C50.3 51.7 50.4 51.7 50.4 51.6C50.5 51.4 50.7 51.3 50.8 51.1C51 50.8 51.2 50.4 51.1 50C51 49.7 51.8 48.7 51.8 48.3C51.7 47.9 51.4 47.7 51.5 47.6C51.6 47.4 51.8 47.5 52.1 47.3C52.2 47.2 52.3 47.1 52.4 46.9C52.5 46.7 52.4 46.6 52.4 46.4C52.3 46.3 52.2 46.1 52.1 46C51.9 45.9 51.8 45.7 51.6 45.6C51.3 45.3 51 45.1 50.6 44.9C50.3 44.7 50 44.5 49.6 44.5C49.5 44.5 49.3 44.5 49.2 44.6C49.1 44.7 49 44.8 48.9 45C48.8 45.4 48.8 45.8 48.9 46.1C49 46.5 49 46.9 49.1 47.4C49.2 48.2 49.3 49.1 49.5 49.9C49.6 50.3 49.7 50.7 49.8 51.1Z" fill="white"/>
<path fill-rule="evenodd" clip-rule="evenodd" d="M52.5 67.1C52.3 66.9 49.3 64.5 49.1 64.4C49 64.3 48.9 64.3 48.8 64.2C48.8 64.2 48.7 64.2 48.6 64.2C48.6 64.2 48.5 64.2 48.4 64.2C48.4 64.2 48.4 64.2 48.4 64.3V64.4C48.4 64.5 48.3 64.5 48.3 64.6C48.2 64.7 48.2 64.8 48.1 64.9C48 65.1 47.9 65.3 47.9 65.6C47.8 66 47.9 66.5 48.1 66.9C48.3 67.4 48.8 67.8 49.2 68C49.4 68.1 49.6 68.2 49.9 68.3C50.1 68.4 51.6 68.5 51.7 68.5C51.8 68.5 51.9 68.5 52.1 68.5C52.2 68.5 52.3 68.5 52.5 68.5C52.6 68.5 52.7 68.5 52.8 68.4C52.9 68.4 53 68.3 53 68.2C53 68.1 53 68 52.9 67.9C52.9 67.5 52.7 67.3 52.5 67.1C52.6 67.1 52.6 67.1 52.5 67.1Z" fill="#1B201C"/>
</svg>
