<svg width="278" height="47" viewBox="0 0 278 47" fill="none" xmlns="http://www.w3.org/2000/svg">
<path d="M70.7 5.41553H2V42.4155H70.7V5.41553Z" fill="white"/>
<path d="M109.4 15.5156H94.5V20.4156H107.3V27.9156H94.5V39.3156H84.8V7.51562H109.3L109.4 15.5156Z" fill="#FF7D00"/>
<path d="M144.9 23.4156C144.9 33.3156 138.5 40.0156 129 40.0156C119.3 40.0156 112.8 33.4156 112.8 23.4156C112.8 13.3156 119.3 6.81556 129.1 6.81556C138.6 6.71556 144.9 13.4156 144.9 23.4156ZM122.7 23.2156C122.7 28.9156 125 32.1156 129 32.1156C133 32.1156 135.1 28.9156 135.1 22.9156C135.1 17.6156 132.8 14.4156 129 14.4156C125 14.5156 122.7 17.8156 122.7 23.2156Z" fill="#FF7D00"/>
<path d="M166.7 22.4156L178 39.2156H166.3L163.2 34.0156C162.3 32.5156 161.6 31.0156 160.9 29.5156C160.1 31.1156 159.3 32.7156 158.4 34.2156L155.4 39.2156H144.1L155.6 22.4156L145.1 7.51562H156.5L158.9 11.7156C159.8 13.2156 160.5 14.8156 161.3 16.4156C162 15.0156 162.6 13.6156 163.4 12.2156L166 7.51562H176.8L166.7 22.4156Z" fill="#FF7D00"/>
<path d="M190.6 19.3157C194.7 19.3157 197.6 21.2157 197.6 25.5157C197.6 29.7157 194.6 31.6157 190.8 31.6157H186.5V38.5157H182.3V19.3157H190.6ZM186.6 28.2157H190.3C192.2 28.2157 193.6 27.6157 193.6 25.5157C193.6 23.5157 192.2 22.7157 190.3 22.7157H186.5V28.2157H186.6Z" fill="black"/>
<path d="M217.4 38.4157H213.2V30.2157H205.4V38.4157H201.2V19.3157H205.4V26.5157H213.2V19.3157H217.4V38.4157Z" fill="black"/>
<path d="M240.1 28.9156C240.1 34.9156 236.3 38.9156 230.7 38.9156C225 38.9156 221.2 34.9156 221.2 28.9156C221.2 22.8156 225 18.9156 230.7 18.9156C236.3 18.8156 240.1 22.9156 240.1 28.9156ZM225.5 28.8156C225.5 32.9156 227.5 35.4156 230.7 35.4156C233.9 35.4156 235.8 32.9156 235.8 28.8156C235.8 24.8156 233.8 22.3156 230.6 22.3156C227.5 22.3156 225.5 24.8156 225.5 28.8156Z" fill="black"/>
<path d="M257.3 22.8156H251.5V38.4156H247.3V22.8156H241.5V19.2156H257.2V22.8156H257.3Z" fill="black"/>
<path d="M277.6 28.9156C277.6 34.9156 273.8 38.9156 268.2 38.9156C262.5 38.9156 258.7 34.9156 258.7 28.9156C258.7 22.8156 262.5 18.9156 268.2 18.9156C273.8 18.8156 277.6 22.9156 277.6 28.9156ZM263 28.8156C263 32.9156 265 35.4156 268.2 35.4156C271.4 35.4156 273.3 32.9156 273.3 28.8156C273.3 24.8156 271.3 22.3156 268.1 22.3156C265 22.3156 263 24.8156 263 28.8156Z" fill="black"/>
<path d="M26.6 21.9155C27.2 22.4155 28.1 22.5155 28.8 22.3155C28.1 22.4155 27.3 22.4155 26.6 21.9155Z" fill="#1A1D1E"/>
<path d="M45.9 15.5155C45.2 15.0155 45.5 12.9155 46.1 11.5155C46.7 10.1155 47.7 9.31552 49.1 9.51552C50.5 9.71552 52.5 10.7155 52.6 11.6155C52.8 12.5155 51.2 13.1155 49.6 14.0155C48.1 14.9155 46.6 16.0155 45.9 15.5155Z" fill="#1B1918"/>
<path d="M60 15.1155C59.8 14.4155 59.5 13.7155 59.1 13.0155C58.9 12.7155 58.7 12.4155 58.5 12.1155C58.3 11.8155 58 11.5155 57.7 11.3155C57.4 11.0155 57.2 10.7155 57 10.4155C56.8 10.1155 56.6 9.71547 56.7 9.31547C56.7 9.21547 56.8 9.01547 56.7 8.91547C56.6 8.91547 56.6 8.91547 56.5 8.81547C56.4 8.81547 56.3 8.71547 56.3 8.71547C56 8.51547 56 8.11547 56 7.71547C56 7.51547 56 7.31547 55.9 7.11547C55.8 6.91547 55.7 6.81547 55.6 6.71547C55.5 6.61547 55.4 6.51547 55.3 6.31547C55.2 6.11547 55.3 6.01547 55.3 5.91547C55.4 5.81547 55.5 5.61547 55.6 5.51547C55.7 5.41547 55.9 5.21547 56.1 5.11547C56.4 4.91547 56.7 4.61547 57 4.41547C57.3 4.21547 57.6 4.01547 57.9 4.01547C58 4.01547 58.2 4.01547 58.3 4.11547C58.4 4.21547 58.5 4.31547 58.6 4.51547C58.7 4.81547 58.7 5.21547 58.6 5.61547C58.6 6.01547 58.5 6.41547 58.4 6.81547C58.3 7.61547 58.2 8.41547 58 9.21547C57.9 9.61547 57.8 10.0155 57.7 10.4155C57.6 10.6155 57.6 10.8155 57.5 11.0155C57.5 11.1155 57.4 11.3155 57.5 11.4155C57.6 11.5155 57.8 11.4155 57.8 11.3155C57.9 11.2155 58.1 11.1155 58.1 11.0155C58.3 10.7155 58.4 10.4155 58.5 10.0155C58.7 9.21547 58.9 8.51547 59.1 7.71547C59.4 6.11547 59.5 4.41547 59.4 2.81547C59.4 2.41547 59.3 2.01547 59.3 1.61547C59.3 1.31547 59.2 0.91547 59.1 0.61547C59 0.31547 58.7 0.0154701 58.4 0.11547C58.1 0.21547 57.8 0.41547 57.5 0.71547C57.2 1.01547 57 1.31547 56.7 1.51547C56.4 1.81547 56.1 2.01547 55.8 2.21547C55.2 2.61547 54.5 3.01547 53.8 3.21547C53.1 3.51547 52.3 3.61547 51.5 3.71547C50.7 3.81547 49.9 3.81547 49.1 3.71547C48.3 3.61547 47.5 3.51547 46.6 3.41547C45.8 3.31547 45 3.21547 44.2 3.01547C43 2.91547 41.5 2.51547 40 1.81547C39.3 1.51547 38.6 1.11547 37.9 0.71547C37.7 0.61547 37.6 0.51547 37.4 0.41547C37.2 0.31547 37.1 0.21547 36.9 0.11547C36.7 0.0154701 36.4 -0.0845299 36.2 0.11547C36 0.21547 35.9 0.41547 35.9 0.61547C36 0.71547 36 0.91547 35.9 1.11547C35.8 1.91547 35.8 2.71547 35.8 3.51547C36 5.11547 36.5 6.61547 36.9 8.11547C37.3 9.71547 37.6 11.3155 37.6 12.9155C37.6 13.7155 37.6 14.5155 37.5 15.4155C37.4 16.2155 37.2 17.0155 37 17.8155C36.9 18.2155 36.8 18.6155 36.9 19.0155C36.9 19.3155 37.4 19.2155 37.6 19.4155C37.9 19.7155 38.1 19.8155 38.4 20.1155C38.7 20.3155 38.7 21.0155 38.9 21.3155C39 21.5155 39.1 21.6155 39.2 21.8155C39.3 21.9155 39.3 22.0155 39.4 22.1155C39.3 22.1155 39 22.0155 38.9 22.0155C38.5 22.0155 38.3 22.0155 38 21.9155C37.7 21.8155 37.7 21.6155 37.5 21.4155C37 20.9155 36.4 20.6155 36.5 19.9155C36.6 19.1155 36.8 18.3155 36.9 17.5155C37 16.7155 36.9 15.9155 36.7 15.1155C36.5 14.4155 36.1 13.8155 35.7 13.2155C34.9 12.1155 33.7 11.2155 32.5 10.5155C31.2 9.71547 29.7 9.21547 28.3 8.91547C26.8 8.61547 25.2 8.51547 23.6 8.81547C22.2 9.11547 20.8 9.71547 19.7 10.6155C19.4 10.8155 19.1 11.1155 18.9 11.3155C18.8 11.4155 18.7 11.6155 18.6 11.7155C18.5 11.8155 18.5 11.9155 18.4 11.9155C18.4 11.9155 18.3 12.0155 18.2 12.0155C18.1 12.0155 18.3 11.6155 18.4 11.6155C18.5 11.4155 18.6 11.3155 18.7 11.1155C18.9 10.8155 19.1 10.5155 19.4 10.3155C20.4 9.31547 21.6 8.71547 23 8.31547C24.5 7.91547 26.1 7.91547 27.6 8.21547C28.4 8.31547 29.2 8.51547 29.9 8.81547C30.6 9.01547 31.4 9.31547 32 9.61547C32.1 9.61547 32.2 9.71547 32.3 9.71547H32.4L32.3 9.61547C32 9.41547 31.7 9.31547 31.4 9.21547C31 9.01547 30.7 8.91547 30.3 8.71547C29.9 8.61547 29.6 8.41547 29.2 8.31547C28.6 8.11547 27.8 7.91547 27 7.81547C26.6 7.71547 26.2 7.71547 25.8 7.71547C25.4 7.71547 25 7.71547 24.6 7.71547C24.4 7.71547 24.2 7.71547 24 7.81547C23.9 7.81547 23.8 7.81547 23.7 7.81547H23.5C23.5 7.71547 23.7 7.71547 23.8 7.71547C24 7.71547 24.2 7.61547 24.4 7.61547C24.8 7.61547 25.2 7.51547 25.6 7.51547C26 7.51547 26.4 7.41547 26.8 7.51547C28.4 7.51547 30 7.81547 31.5 8.41547C31.9 8.51547 32.2 8.71547 32.5 8.91547C32.6 8.91547 32.7 9.01547 32.8 9.01547C32.9 8.81547 33 8.91547 33 8.91547H33.1C33.1 8.91547 33.1 8.81547 33 8.81547C33 8.71547 33 8.71547 32.9 8.61547C32.7 8.51547 32.6 8.41547 32.4 8.31547C32.1 8.11547 31.7 7.91547 31.4 7.61547C31.1 7.41547 30.8 7.11547 30.4 6.91547C30.2 6.81547 30.1 6.71547 29.9 6.61547C29.8 6.51547 29.7 6.51547 29.7 6.51547L29.6 6.41547C29.6 6.41547 29.5 6.31547 29.6 6.31547H29.7C29.9 6.41547 30.1 6.41547 30.2 6.51547C30.6 6.61547 31 6.71547 31.4 6.91547C32.8 7.41547 34.1 8.21547 35.2 9.11547C35.8 9.61547 36.3 10.1155 36.8 10.7155C36.9 10.8155 37 11.0155 37.2 11.1155L37.3 11.2155C37.3 11.1155 37.2 11.0155 37.2 11.0155C37 10.7155 36.7 10.4155 36.5 10.1155C36 9.51547 35.5 8.91547 34.9 8.41547C34.3 7.91547 33.7 7.41547 33.1 7.01547C31.8 6.21547 30.4 5.61547 29 5.21547C28.2 5.01547 27.4 4.91547 26.7 4.81547C25.9 4.71547 25.1 4.71547 24.3 4.71547C23.9 4.71547 23.6 4.81547 23.2 4.91547C23.1 4.91547 23 4.91547 23 4.91547C22.7 4.81547 23 4.81547 23 4.71547C23.4 4.61547 23.8 4.51547 24.2 4.51547C24.6 4.41547 25 4.41547 25.4 4.31547C25.8 4.31547 26.2 4.31547 26.6 4.31547C26.7 4.31547 26.8 4.31547 26.9 4.31547C26.9 4.31547 27.1 4.31547 27 4.31547C27 4.21547 26.8 4.21547 26.8 4.21547C26.7 4.21547 26.6 4.21547 26.5 4.21547C25.7 4.11547 24.9 4.11547 24.1 4.11547C22.6 4.21547 21.1 4.61547 19.7 5.31547C18.4 5.91547 17.2 6.81547 16.2 7.81547C15.7 8.31547 15.2 8.91547 14.8 9.61547C14.6 9.91547 14.4 10.3155 14.2 10.6155C14 10.9155 13.9 11.3155 13.8 11.7155C13.8 11.8155 13.8 11.9155 13.7 11.9155H13.6C13.6 11.8155 13.6 11.7155 13.6 11.7155C13.7 11.3155 13.8 11.0155 14 10.6155C14.3 9.91547 14.6 9.21547 15 8.61547C15.8 7.41547 16.8 6.41547 18 5.61547C19.2 4.81547 20.6 4.21547 22.1 4.01547C23.7 3.71547 25.3 3.71547 26.8 4.11547C27.2 4.21547 27.6 4.31547 27.9 4.41547H28H28.1C28.2 4.41547 28 4.31547 28 4.31547C27.7 4.21547 27.5 4.11547 27.2 4.01547C26.8 3.91547 26.4 3.81547 26 3.71547C24.4 3.41547 22.8 3.41547 21.3 3.71547C19.9 4.01547 18.5 4.61547 17.2 5.41547C16 6.21547 15 7.21547 14.1 8.41547C13.2 9.61547 12.6 10.9155 12.2 12.4155C11.8 13.9155 11.7 15.5155 11.9 17.1155C12.1 18.6155 12.5 20.1155 13.1 21.5155C13.4 22.1155 13.7 22.7155 14 23.2155C15.2 25.3155 16.7 27.1155 18.4 28.8155C19.5 30.0155 20.7 31.1155 21.9 32.2155C23.1 33.3155 24.3 34.4155 25.5 35.5155C28 37.7155 30.7 40.1155 33.3 42.3155C33.7 42.7155 35.8 44.2155 36.8 45.1155C37.2 45.5155 37.7 45.8155 38.2 46.1155C38.6 46.3155 38.7 46.2155 39 45.8155C39.4 45.4155 39.8 45.0155 40.2 44.7155C40.6 44.3155 41 43.9155 41.4 43.4155C42.9 41.8155 44.4 40.3155 46.1 38.8155C47.3 37.7155 48.5 36.6155 49.7 35.4155C50.8 34.3155 52 33.1155 53 31.9155C54 30.7155 55 29.5155 55.9 28.2155C56.8 26.9155 57.6 25.6155 58.3 24.2155C59 22.8155 59.5 21.3155 59.8 19.8155C60.4 18.2155 60.4 16.6155 60 15.1155ZM42 41.0155C41.9 41.5155 41.8 42.0155 41.5 42.5155C41 43.5155 40.2 44.4155 39.3 45.1155C39 45.3155 38.8 45.6155 38.4 45.3155C38.4 45.2155 37.8 44.9155 37.7 44.8155C37.4 44.6155 37.2 44.4155 36.9 44.2155C36.5 43.9155 36 43.5155 35.6 43.2155C34.7 42.5155 33.9 41.8155 33.1 41.1155C32.6 40.7155 32.1 40.3155 31.6 39.8155C31.1 39.4155 30.6 39.1155 30.2 38.6155C30.2 38.6155 30.2 38.6155 30.3 38.6155C31.1 38.3155 31.9 37.9155 32.8 37.7155C33.1 37.6155 33.2 37.6155 33.1 37.3155C32.9 36.9155 32.8 36.5155 32.8 36.1155C32.8 35.5155 33.5 36.1155 33.8 36.3155C34.1 36.5155 34.4 36.7155 34.8 36.9155C35 37.0155 35.6 37.5155 35.5 36.9155C35.5 36.8155 35.5 36.7155 35.5 36.6155C35.6 36.0155 36.7 37.2155 36.8 37.4155C36.9 37.6155 37 37.6155 37 37.4155C37.1 37.2155 36.9 36.8155 36.9 36.6155C36.8 36.1155 36.8 35.5155 36.7 35.0155C36.7 34.9155 36.7 34.9155 36.7 34.8155C36.9 34.5155 38 35.9155 38.2 36.1155C38.3 36.2155 38.4 36.4155 38.5 36.3155C38.6 36.3155 38.7 36.2155 38.8 36.1155C39 35.9155 39.2 35.7155 39.4 35.6155C39.6 35.4155 39.7 35.5155 39.8 35.7155C39.9 36.1155 39.9 36.5155 39.9 36.9155C39.9 37.1155 39.8 37.4155 40 37.5155C40.2 37.7155 40.6 37.1155 40.8 37.0155C41.1 36.9155 41.5 36.9155 41.7 36.6155C41.7 36.5155 41.8 36.5155 41.9 36.4155C42 36.3155 42.1 36.5155 42.1 36.6155C42.2 37.1155 42.1 37.6155 42.1 38.1155C42 39.2155 42.1 40.1155 42 41.0155Z" fill="#FF7D00"/>
<path d="M42 41.0154C41.9 41.5154 41.8 42.0154 41.5 42.5154C41 43.5154 40.2 44.4154 39.3 45.1154C39 45.3154 38.8 45.6154 38.4 45.3154C38.4 45.2154 37.8 44.9154 37.7 44.8154C37.4 44.6154 37.2 44.4154 36.9 44.2154C36.5 43.9154 36 43.5154 35.6 43.2154C34.7 42.5154 33.9 41.8154 33.1 41.1154C32.6 40.7154 32.1 40.3154 31.6 39.8154C31.1 39.4154 30.6 39.1154 30.2 38.6154C30.2 38.6154 30.2 38.6154 30.3 38.6154C31.1 38.3154 31.9 37.9154 32.8 37.7154C33.1 37.6154 33.2 37.6154 33.1 37.3154C32.9 36.9154 32.8 36.5154 32.8 36.1154C32.8 35.5154 33.5 36.1154 33.8 36.3154C34.1 36.5154 34.4 36.7154 34.8 36.9154C35 37.0154 35.6 37.5154 35.5 36.9154C35.5 36.8154 35.5 36.7154 35.5 36.6154C35.6 36.0154 36.7 37.2154 36.8 37.4154C36.9 37.6154 37 37.6154 37 37.4154C37.1 37.2154 36.9 36.8154 36.9 36.6154C36.8 36.1154 36.8 35.5154 36.7 35.0154C36.7 34.9154 36.7 34.9154 36.7 34.8154C36.9 34.5154 38 35.9154 38.2 36.1154C38.3 36.2154 38.4 36.4154 38.5 36.3154C38.6 36.3154 38.7 36.2154 38.8 36.1154C39 35.9154 39.2 35.7154 39.4 35.6154C39.6 35.4154 39.7 35.5154 39.8 35.7154C39.9 36.1154 39.9 36.5154 39.9 36.9154C39.9 37.1154 39.8 37.4154 40 37.5154C40.2 37.7154 40.6 37.1154 40.8 37.0154C41.1 36.9154 41.5 36.9154 41.7 36.6154C41.7 36.5154 41.8 36.5154 41.9 36.4154C42 36.3154 42.1 36.5154 42.1 36.6154C42.2 37.1154 42.1 37.6154 42.1 38.1154C42 39.2154 42.1 40.1154 42 41.0154Z" fill="white"/>
<path d="M37.1 25.6155C36.2 25.0155 35.3 24.5155 34.4 24.0155C32.2 23.0155 29.8 22.3155 27.4 21.8155C26 21.5155 24.6 21.1155 23.4 20.4155C22.2 19.6155 21.2 18.4155 21.2 16.9155C21.2 15.5155 22.4 14.0155 23.8 14.1155C22.4 13.8155 21.1 15.0155 20.9 16.4155C20.7 18.5155 22.5 20.1155 24.2 21.0155C26 21.9155 28.1 22.4155 30 23.0155C32.1 23.6155 34.2 24.3155 36 25.6155C39.4 28.1155 41.4 32.2155 42 36.3155C42 36.6155 42.1 36.9155 42.1 37.2155C42.1 37.3155 42.1 37.5155 42.1 37.6155C42.1 37.5155 42.4 37.2155 42.4 37.0155C42.4 36.8155 42.4 36.5155 42.4 36.2155C42.5 34.2155 44.2 33.1155 45.6 32.0155C47.3 30.7155 48.8 28.9155 49.9 27.1155C49.9 27.1155 49.9 27.0155 50 27.0155C51.2 25.0155 52.1 22.5155 51.5 20.2155C53 19.3155 54.9 19.1155 56.6 19.5155C56.5 18.0155 56.3 16.4155 55.2 15.5155C54 14.6155 52.2 15.0155 50.9 15.8155C47.7 17.6155 45.6 21.1155 42.1 22.3155C44.8 22.2155 47 20.1155 49.7 19.9155C47 21.5155 44.2 22.4155 41.2 23.1155C40.1 23.4155 40.3 24.4155 40.2 25.3155C40.2 26.3155 40 27.3155 39.9 28.3155C39.3 27.4155 38.2 26.4155 37.1 25.6155ZM49 13.9155C49 13.8155 49 13.8155 49 13.9155C48.5 13.6155 48 13.5155 47.5 13.4155C47.1 13.4155 46.6 13.4155 46.2 13.6155C46 13.7155 45.9 13.8155 45.7 13.9155C45.5 14.0155 45.4 14.2155 45.3 14.4155C45.2 14.6155 45.1 14.8155 45 15.0155C44.9 15.2155 44.8 15.4155 44.7 15.6155C44.6 15.8155 44.4 16.1155 44.3 16.3155C44.3 16.3155 44.2 16.4155 44.3 16.5155C44.5 16.7155 48.8 13.9155 48.9 13.9155C49 13.9155 49 13.9155 49 13.9155ZM38.3 10.4155C38.1 10.3155 38 10.3155 38 10.6155C38 10.8155 38.4 13.8155 38.5 13.8155C38.7 13.6155 39 13.2155 39.1 12.7155C39.2 12.4155 39.5 11.7155 39.5 11.4155C39.5 11.3155 39.5 11.3155 39.4 11.2155C39.4 11.2155 39.3 11.1155 39.2 11.0155L38.3 10.4155ZM47.7 14.5155C47.6 14.4155 47.7 14.5155 47.7 14.5155C47.4 14.4155 47.2 14.3155 46.9 14.2155C46.7 14.2155 46.4 14.2155 46.2 14.3155C46.1 14.3155 46 14.4155 45.9 14.5155C45.8 14.6155 45.7 14.7155 45.7 14.8155C45.6 14.9155 45.6 15.0155 45.5 15.1155C45.4 15.2155 45.4 15.3155 45.3 15.4155C45.2 15.5155 45.1 15.7155 45.1 15.8155V15.9155C45.1 16.1155 47.6 14.5155 47.7 14.5155C47.6 14.5155 47.6 14.5155 47.7 14.5155Z" fill="white"/>
<path d="M38.5 11.1154C38.4 11.0154 38.3 11.1154 38.3 11.2154C38.3 11.3154 38.5 13.0154 38.6 13.0154C38.7 12.9154 38.9 12.7154 39 12.4154C39.1 12.2154 39.2 11.8154 39.2 11.7154V11.6154C39.2 11.6154 39.2 11.5154 39.1 11.5154L38.5 11.1154ZM47.8 14.2154C47.5 14.1154 47.3 14.0154 47 14.0154C46.8 14.0154 46.5 14.0154 46.3 14.1154C46.2 14.1154 46.1 14.2154 46 14.3154C45.9 14.4154 45.9 14.5154 45.8 14.6154C45.7 14.7154 45.7 14.8154 45.6 14.9154C45.5 15.0154 45.5 15.1154 45.4 15.2154C45.3 15.3154 45.3 15.4154 45.2 15.6154V15.7154C45.4 15.7154 47.7 14.3154 47.8 14.2154Z" fill="#151B19"/>
<path d="M38.1 7.91553C38.1 8.01553 38.2 8.11553 38.2 8.21553C38.3 8.31553 38.4 8.31553 38.5 8.31553H38.6C38.7 8.21553 38.8 8.01553 38.9 7.91553C39.1 7.61553 39.3 7.31553 39.2 7.01553C39.1 6.81553 39.8 5.91553 39.7 5.61553C39.6 5.21553 39.4 5.11553 39.5 5.01553C39.6 4.91553 39.8 5.01553 40 4.81553C40.1 4.71553 40.2 4.61553 40.3 4.51553C40.3 4.41553 40.3 4.21553 40.3 4.11553C40.2 3.91553 40.1 3.81553 40 3.71553C39.9 3.61553 39.7 3.51553 39.6 3.41553C39.3 3.21553 39.1 3.01553 38.8 2.81553C38.6 2.61553 38.3 2.51553 38 2.41553C37.9 2.41553 37.7 2.41553 37.6 2.51553C37.5 2.61553 37.4 2.71553 37.4 2.81553C37.3 3.11553 37.3 3.41553 37.4 3.71553C37.4 4.11553 37.5 4.41553 37.6 4.81553C37.7 5.51553 37.8 6.21553 37.9 6.91553C37.9 7.31553 38 7.61553 38.1 7.91553Z" fill="white"/>
<path d="M40.4 21.3155C40.3 21.2155 37.8 19.1155 37.6 19.0155C37.5 19.0155 37.4 18.9155 37.4 18.9155H37.3H37.2C37.2 18.9155 37.2 18.9155 37.2 19.0155C37.2 19.0155 37.2 19.1155 37.1 19.1155C37.1 19.2155 37 19.3155 37 19.4155C36.9 19.6155 36.9 19.8155 36.8 19.9155C36.8 20.3155 36.8 20.7155 37 21.0155C37.2 21.4155 37.5 21.7155 37.9 21.9155C38.1 22.0155 38.3 22.1155 38.5 22.1155C38.7 22.2155 39.9 22.3155 40 22.2155C40.1 22.2155 40.2 22.2155 40.3 22.2155C40.4 22.2155 40.5 22.2155 40.6 22.2155C40.7 22.2155 40.8 22.2155 40.9 22.1155C41 22.1155 41 22.0155 41 21.9155C41 21.8155 41 21.7155 40.9 21.6155C40.7 21.6155 40.5 21.4155 40.4 21.3155Z" fill="#1B201C"/>
<path d="M62.2 5.41553H68.1C69.5 5.41553 70.7 6.51553 70.7 8.01553V39.9155C70.7 41.3155 69.6 42.5155 68.1 42.5155H45.8" stroke="black" stroke-width="2.0417" stroke-miterlimit="10" stroke-linecap="round" stroke-linejoin="round"/>
<path d="M29.4 42.5155H4.6C3.2 42.5155 2 41.3155 2 39.9155V8.01553C2 6.61553 3.1 5.41553 4.6 5.41553H13.6" stroke="black" stroke-width="2.0417" stroke-miterlimit="10" stroke-linecap="round" stroke-linejoin="round"/>
<path d="M12.7 5.41553H4.79999L5.49999 3.01553C5.79999 2.41553 6.39999 1.91553 7.09999 1.91553H10.4C11.1 1.91553 11.7 2.41553 12 3.11553L12.7 5.41553Z" fill="black"/>
<path d="M65.9 11.8156C65.9 12.4156 65.4 12.8156 64.9 12.8156H62.4C61.8 12.8156 61.4 12.3156 61.4 11.8156V10.7156C61.4 10.1156 61.9 9.71558 62.4 9.71558H64.9C65.5 9.71558 65.9 10.2156 65.9 10.7156V11.8156Z" fill="black"/>
</svg>
