<svg width="249" height="91" viewBox="0 0 249 91" fill="none" xmlns="http://www.w3.org/2000/svg">
<path d="M246.5 10.753H112V83.353H246.5V10.753Z" fill="white"/>
<path d="M25.2 23.053H10.4V27.953H23.2V35.453H10.4V46.853H0.700012V15.053H25.2V23.053Z" fill="#FF7D00"/>
<path d="M60.8 30.953C60.8 40.853 54.4 47.553 44.9 47.553C35.2 47.553 28.7 40.953 28.7 30.953C28.7 20.853 35.2 14.353 45 14.353C54.4 14.253 60.8 20.953 60.8 30.953ZM38.5 30.753C38.5 36.453 40.8 39.653 44.8 39.653C48.8 39.653 50.9 36.453 50.9 30.453C50.9 25.153 48.6 21.953 44.8 21.953C40.9 22.053 38.5 25.353 38.5 30.753Z" fill="#FF7D00"/>
<path d="M82.5 29.953L93.8 46.753H82.1L79 41.553C78.1 40.053 77.4 38.553 76.7 37.053C75.9 38.653 75.1 40.253 74.2 41.753L71.2 46.753H59.9L71.5 29.953L61 15.053H72.4L74.8 19.253C75.7 20.753 76.4 22.353 77.2 23.953C77.9 22.553 78.5 21.153 79.3 19.753L81.9 15.053H92.7L82.5 29.953Z" fill="#FF7D00"/>
<path d="M8.2 56.553C12.3 56.553 15.2 58.453 15.2 62.753C15.2 66.953 12.2 68.853 8.4 68.853H4.2V75.753H0V56.553H8.2ZM4.2 65.453H7.9C9.8 65.453 11.2 64.853 11.2 62.753C11.2 60.753 9.8 59.953 7.9 59.953H4.2V65.453Z" fill="black"/>
<path d="M35 75.653H30.8V67.453H23V75.653H18.8V56.553H23V63.753H30.8V56.553H35V75.653Z" fill="black"/>
<path d="M57.7 66.153C57.7 72.153 53.9 76.153 48.3 76.153C42.6 76.153 38.8 72.153 38.8 66.153C38.8 60.053 42.6 56.153 48.3 56.153C53.9 56.053 57.7 60.153 57.7 66.153ZM43.1 66.053C43.1 70.153 45.1 72.653 48.3 72.653C51.5 72.653 53.4 70.153 53.4 66.053C53.4 62.053 51.4 59.553 48.2 59.553C45.1 59.553 43.1 62.053 43.1 66.053Z" fill="black"/>
<path d="M74.9 60.153H69.1V75.753H64.9V60.153H59.1V56.553H74.8V60.153H74.9Z" fill="black"/>
<path d="M95.2 66.153C95.2 72.153 91.4 76.153 85.8 76.153C80.1 76.153 76.3 72.153 76.3 66.153C76.3 60.053 80.1 56.153 85.8 56.153C91.5 56.053 95.2 60.153 95.2 66.153ZM80.6 66.053C80.6 70.153 82.6 72.653 85.8 72.653C89 72.653 90.9 70.153 90.9 66.053C90.9 62.053 88.9 59.553 85.7 59.553C82.6 59.553 80.6 62.053 80.6 66.053Z" fill="black"/>
<path fill-rule="evenodd" clip-rule="evenodd" d="M160.2 43.053C161.4 44.053 163.1 44.353 164.5 43.953C163 44.053 161.5 43.953 160.2 43.053C160.2 42.953 160.1 43.053 160.2 43.053Z" fill="#1A1D1E"/>
<path fill-rule="evenodd" clip-rule="evenodd" d="M197.9 30.553C196.6 29.553 197 25.553 198.2 22.753C199.4 19.953 201.3 18.553 204.1 18.853C206.9 19.153 210.7 21.253 211 22.953C211.3 24.653 208.2 25.953 205.2 27.653C202.2 29.353 199.2 31.453 197.9 30.553Z" fill="#1B1918"/>
<path fill-rule="evenodd" clip-rule="evenodd" d="M225.5 29.753C225.1 28.353 224.5 26.953 223.8 25.753C223.4 25.153 223 24.553 222.5 24.053C222 23.453 221.5 22.953 221 22.453C220.5 21.953 220 21.353 219.6 20.753C219.2 20.153 218.9 19.453 219 18.653C219 18.353 219.2 18.053 219 17.753C218.9 17.653 218.8 17.653 218.6 17.553C218.5 17.553 218.3 17.453 218.2 17.353C217.7 16.853 217.7 16.053 217.7 15.453C217.7 15.053 217.7 14.753 217.6 14.353C217.5 14.053 217.3 13.753 217.1 13.553C216.9 13.353 216.6 13.153 216.5 12.853C216.4 12.553 216.5 12.253 216.6 11.953C216.7 11.653 216.9 11.453 217.2 11.253C217.5 10.953 217.8 10.753 218.1 10.553C218.7 10.053 219.3 9.65298 220 9.25298C220.5 8.85298 221.2 8.55298 221.8 8.45298C222.1 8.45298 222.4 8.45298 222.6 8.55298C222.9 8.75298 223 8.95298 223.1 9.25298C223.3 9.95298 223.2 10.653 223.1 11.353C223 12.153 222.9 12.953 222.8 13.753C222.6 15.353 222.3 16.953 222 18.453C221.8 19.253 221.7 19.953 221.5 20.753C221.4 21.153 221.3 21.453 221.2 21.853C221.1 22.053 221 22.453 221.2 22.653C221.4 22.753 221.7 22.653 221.9 22.553C222.2 22.453 222.4 22.253 222.6 21.953C223 21.453 223.2 20.753 223.4 20.053C223.8 18.553 224.2 17.053 224.5 15.453C225.1 12.253 225.3 9.05298 225 5.85298C224.9 5.05298 224.9 4.25298 224.8 3.45298C224.7 2.75298 224.6 2.05298 224.3 1.45298C224 0.852982 223.6 0.352982 222.9 0.452982C222.2 0.552982 221.7 1.15298 221.2 1.55298C220.7 2.05298 220.2 2.65298 219.7 3.15298C219.2 3.65298 218.6 4.15298 218 4.55298C216.8 5.35298 215.5 6.05298 214.1 6.55298C212.6 7.05298 211.1 7.35298 209.6 7.55298C208 7.65298 206.4 7.65298 204.8 7.55298C203.2 7.45298 201.6 7.25298 200 7.05298C198.4 6.85298 196.8 6.65298 195.2 6.35298C192.2 5.85298 189.2 5.05298 186.4 3.75298C185 3.15298 183.7 2.35298 182.4 1.55298C182.1 1.35298 181.8 1.15298 181.5 0.952982C181.2 0.752982 180.9 0.452982 180.6 0.252982C180.2 0.0529822 179.7 -0.147018 179.3 0.152982C179 0.352982 178.8 0.852982 178.7 1.15298C178.6 1.55298 178.5 1.95298 178.4 2.35298C178.1 3.85298 178.1 5.45298 178.3 7.05298C178.6 10.153 179.6 13.153 180.4 16.153C181.2 19.253 181.7 22.353 181.8 25.553C181.8 27.153 181.8 28.753 181.6 30.353C181.4 31.953 181.1 33.453 180.7 34.953C180.5 35.653 180.3 36.453 180.4 37.253C180.5 37.853 181.3 37.653 181.8 38.053C182.3 38.553 182.9 38.853 183.4 39.353C184 39.753 184 41.153 184.4 41.753C184.6 42.053 184.9 42.353 185.1 42.753C185.2 42.953 185.4 43.153 185.5 43.353C185.2 43.353 184.8 43.153 184.6 43.153C183.9 43.053 183.5 43.153 182.8 42.953C182.2 42.753 182.2 42.453 181.8 41.953C180.9 40.953 179.7 40.353 179.8 39.053C179.9 37.453 180.4 35.953 180.5 34.353C180.6 32.753 180.5 31.253 180.1 29.753C179.7 28.353 179 27.153 178.2 25.953C176.6 23.753 174.4 21.953 172 20.653C169.4 19.153 166.6 18.153 163.7 17.553C160.7 16.953 157.6 16.853 154.6 17.453C151.8 18.053 149.2 19.253 146.9 20.953C146.3 21.353 145.8 21.853 145.3 22.453C145.1 22.753 144.8 22.953 144.6 23.253C144.5 23.453 144.4 23.553 144.3 23.753C144.2 23.853 144.1 24.053 144 24.053C143.8 23.953 144.3 23.353 144.3 23.253C144.5 22.953 144.7 22.653 145 22.353C145.4 21.753 145.9 21.253 146.4 20.753C148.3 18.853 150.8 17.553 153.4 16.853C156.4 16.053 159.5 16.053 162.5 16.553C164 16.853 165.6 17.253 167.1 17.653C168.5 18.053 169.9 18.553 171.3 19.253C171.5 19.353 171.7 19.453 171.8 19.453C171.9 19.453 172 19.453 172 19.453C172 19.353 171.9 19.253 171.8 19.253C171.3 18.853 170.6 18.653 170 18.353C169.3 18.053 168.6 17.653 167.8 17.353C167.1 17.053 166.3 16.853 165.6 16.553C164.1 16.053 162.6 15.753 161.1 15.553C160.3 15.453 159.6 15.353 158.8 15.253C158 15.153 157.3 15.153 156.5 15.153C156.1 15.153 155.7 15.253 155.3 15.253C155.1 15.253 154.9 15.253 154.8 15.253C154.7 15.253 154.5 15.253 154.5 15.153C154.5 14.953 155 14.853 155 14.853C155.4 14.753 155.7 14.753 156.1 14.753C156.9 14.753 157.7 14.553 158.4 14.553C159.2 14.453 160 14.453 160.8 14.453C163.9 14.453 167.1 15.053 170 16.153C170.7 16.453 171.4 16.753 172 17.153C172.2 17.253 172.4 17.353 172.5 17.453C172.6 17.553 172.7 17.553 172.8 17.653C172.9 17.653 173 17.753 173 17.553C173 17.453 172.9 17.453 172.9 17.353C172.8 17.253 172.6 17.153 172.5 17.053C172.2 16.853 171.9 16.653 171.5 16.453C170.8 16.053 170.2 15.553 169.5 15.153C168.9 14.653 168.2 14.253 167.6 13.753C167.3 13.553 167 13.353 166.6 13.153C166.4 13.053 166.3 12.953 166.1 12.853C166 12.853 165.9 12.753 165.8 12.653C165.7 12.553 165.7 12.453 165.8 12.453C165.9 12.453 166 12.453 166.1 12.453C166.5 12.553 166.8 12.653 167.2 12.853C167.9 13.053 168.7 13.353 169.4 13.653C172.1 14.753 174.7 16.253 176.9 18.053C178.1 18.953 179.1 19.953 180.1 21.153C180.3 21.453 180.6 21.753 180.8 21.953C180.8 21.953 181 22.253 181.1 22.153C181.2 22.053 181 21.853 180.9 21.753C180.5 21.153 180 20.553 179.5 20.053C178.5 18.853 177.5 17.753 176.3 16.653C175.2 15.653 173.9 14.753 172.7 13.953C170.2 12.353 167.5 11.153 164.6 10.453C163.1 10.053 161.6 9.75298 160 9.65298C158.5 9.45298 156.9 9.35298 155.3 9.55298C154.6 9.65298 153.9 9.85298 153.1 9.85298C153 9.85298 152.8 9.95298 152.6 9.85298C152.4 9.75298 152.9 9.55298 153 9.55298C153.8 9.35298 154.5 9.25298 155.3 9.05298C156.1 8.85298 156.9 8.75298 157.6 8.65298C158.4 8.55298 159.2 8.65298 160 8.65298C160.2 8.65298 160.4 8.65298 160.6 8.65298C160.7 8.65298 160.9 8.65298 160.9 8.55298C160.9 8.45298 160.6 8.35298 160.5 8.35298C160.3 8.35298 160.2 8.35298 160 8.35298C158.4 8.25298 156.9 8.15298 155.3 8.25298C152.3 8.45298 149.3 9.25298 146.6 10.553C144 11.853 141.7 13.453 139.7 15.553C138.7 16.653 137.7 17.753 136.9 19.053C136.5 19.653 136.1 20.353 135.8 21.053C135.5 21.753 135.3 22.453 135 23.153C135 23.253 134.9 23.453 134.8 23.553C134.7 23.653 134.7 23.653 134.6 23.553C134.6 23.453 134.6 23.253 134.7 23.053C134.9 22.353 135.1 21.653 135.4 20.953C135.9 19.553 136.5 18.153 137.4 16.953C138.9 14.653 140.9 12.653 143.2 11.153C145.6 9.55298 148.3 8.45298 151.1 7.95298C154.1 7.35298 157.4 7.35298 160.4 8.05298C161.2 8.25298 161.9 8.45298 162.6 8.65298C162.7 8.65298 162.8 8.65298 162.9 8.75298C163 8.75298 163.1 8.85298 163.2 8.75298C163.4 8.65298 163 8.55298 163 8.55298C162.5 8.35298 161.9 8.15298 161.4 8.05298C160.6 7.85298 159.8 7.65298 159.1 7.55298C156 6.95298 152.9 6.95298 149.8 7.55298C147 8.15298 144.3 9.25298 141.9 10.853C139.6 12.453 137.5 14.453 135.9 16.653C134.2 18.953 133 21.653 132.2 24.453C131.4 27.453 131.3 30.653 131.6 33.653C132 36.653 132.8 39.553 134 42.353C134.5 43.553 135.1 44.653 135.7 45.753C138 49.753 141 53.353 144.3 56.653C146.6 58.953 148.9 61.153 151.2 63.353C153.5 65.553 155.9 67.653 158.3 69.853C163.3 74.253 168.6 78.753 173.6 83.053C174.4 83.753 178.5 86.753 180.5 88.453C181.3 89.153 182.2 89.953 183.2 90.353C184.1 90.753 184.3 90.453 184.8 89.853C185.5 89.053 186.4 88.353 187.2 87.553C188 86.753 188.8 85.953 189.5 85.053C192.4 81.853 195.5 78.953 198.6 76.053C201 73.853 203.3 71.653 205.6 69.453C207.8 67.253 210 64.953 212.1 62.653C214.1 60.353 216.1 57.953 217.8 55.353C219.6 52.853 221.1 50.253 222.5 47.453C223.9 44.753 224.9 41.853 225.5 38.853C226.3 35.853 226.3 32.753 225.5 29.753ZM190.3 80.553C190.2 81.553 189.8 82.553 189.4 83.553C188.4 85.553 186.8 87.253 185 88.553C184.4 89.053 183.9 89.553 183.2 88.953C183.2 88.753 182.1 88.153 181.9 87.953C181.4 87.553 180.9 87.253 180.4 86.853C179.5 86.153 178.6 85.553 177.8 84.853C176.1 83.553 174.5 82.053 172.9 80.653C171.9 79.853 170.9 79.053 169.9 78.153C169 77.353 167.9 76.753 167.1 75.853H167.2C168.8 75.153 170.3 74.453 172 74.053C172.6 73.953 172.8 73.953 172.5 73.353C172.1 72.653 171.9 71.853 172 71.053C172.1 69.753 173.5 71.053 174 71.353C174.6 71.753 175.3 72.153 175.9 72.453C176.3 72.653 177.5 73.653 177.3 72.553C177.3 72.353 177.2 72.153 177.3 71.953C177.5 70.653 179.6 73.153 179.8 73.553C180 73.953 180.1 73.853 180.2 73.553C180.3 73.153 180.1 72.353 180 71.953C179.9 70.953 179.8 69.853 179.7 68.753C179.7 68.653 179.7 68.553 179.7 68.453C180 67.853 182.3 70.653 182.6 71.053C182.8 71.253 182.9 71.553 183.3 71.553C183.5 71.553 183.7 71.353 183.8 71.253C184.2 70.953 184.6 70.553 185 70.153C185.4 69.853 185.7 69.853 185.7 70.353C185.8 71.153 185.9 71.953 185.9 72.653C185.9 72.953 185.8 73.653 186 73.953C186.4 74.353 187.1 73.253 187.6 73.053C188.3 72.753 188.9 72.753 189.4 72.153C189.5 72.053 189.6 71.853 189.7 71.853C190 71.753 190.1 72.053 190.1 72.253C190.3 73.153 190.1 74.153 190.2 75.153C190.3 77.053 190.5 78.753 190.3 80.553Z" fill="#FF7D00"/>
<path fill-rule="evenodd" clip-rule="evenodd" d="M190.3 80.553C190.2 81.553 189.8 82.553 189.4 83.553C188.4 85.553 186.8 87.253 185 88.553C184.4 89.053 183.9 89.553 183.2 88.953C183.2 88.753 182.1 88.153 181.9 87.953C181.4 87.553 180.9 87.253 180.4 86.853C179.5 86.153 178.6 85.553 177.8 84.853C176.1 83.553 174.5 82.053 172.9 80.653C171.9 79.853 170.9 79.053 169.9 78.153C169 77.353 167.9 76.753 167.1 75.853H167.2C168.8 75.153 170.3 74.453 172 74.053C172.6 73.953 172.8 73.953 172.5 73.353C172.1 72.653 171.9 71.853 172 71.053C172.1 69.753 173.5 71.053 174 71.353C174.6 71.753 175.3 72.153 175.9 72.453C176.3 72.653 177.5 73.653 177.3 72.553C177.3 72.353 177.2 72.153 177.3 71.953C177.5 70.653 179.6 73.153 179.8 73.553C180 73.953 180.1 73.853 180.2 73.553C180.3 73.153 180.1 72.353 180 71.953C179.9 70.953 179.8 69.853 179.7 68.753C179.7 68.653 179.7 68.553 179.7 68.453C180 67.853 182.3 70.653 182.6 71.053C182.8 71.253 182.9 71.553 183.3 71.553C183.5 71.553 183.7 71.353 183.8 71.253C184.2 70.953 184.6 70.553 185 70.153C185.4 69.853 185.7 69.853 185.7 70.353C185.8 71.153 185.9 71.953 185.9 72.653C185.9 72.953 185.8 73.653 186 73.953C186.4 74.353 187.1 73.253 187.6 73.053C188.3 72.753 188.9 72.753 189.4 72.153C189.5 72.053 189.6 71.853 189.7 71.853C190 71.753 190.1 72.053 190.1 72.253C190.3 73.153 190.1 74.153 190.2 75.153C190.3 77.053 190.5 78.753 190.3 80.553Z" fill="white"/>
<path fill-rule="evenodd" clip-rule="evenodd" d="M180.6 50.253C178.9 49.053 177.1 48.053 175.3 47.153C170.9 45.153 166.3 43.953 161.6 42.753C158.9 42.053 156.1 41.453 153.7 39.953C151.3 38.453 149.4 35.953 149.4 33.153C149.3 30.353 151.7 27.553 154.5 27.753C151.8 27.153 149.2 29.553 148.9 32.353C148.5 36.553 152 39.653 155.4 41.353C159 43.253 163 44.153 166.9 45.253C171 46.453 175.1 47.853 178.6 50.453C185.2 55.353 189.1 63.353 190.4 71.353C190.5 71.953 190.6 72.553 190.6 73.153C190.6 73.453 190.7 73.653 190.7 73.953C190.7 73.753 191.2 73.053 191.3 72.853C191.4 72.353 191.3 71.853 191.4 71.353C191.6 67.453 195 65.253 197.7 63.153C201.1 60.553 203.9 57.153 206.2 53.453C206.2 53.353 206.3 53.353 206.3 53.253C208.7 49.253 210.4 44.453 209.3 39.853C212.3 38.153 216 37.653 219.4 38.453C219.3 35.553 218.9 32.253 216.6 30.553C214.2 28.753 210.7 29.653 208.1 31.153C201.9 34.753 197.6 41.453 190.9 43.953C196.1 43.853 200.5 39.653 205.7 39.353C200.5 42.453 195 44.253 189.1 45.753C186.9 46.253 187.3 48.353 187.1 50.153C187.1 52.153 186.7 54.153 186.5 56.053C184.9 53.753 182.9 51.853 180.6 50.253ZM204.1 27.353C204.1 27.253 204 27.253 203.9 27.253C203 26.853 202.2 26.553 201.2 26.453C200.4 26.353 199.4 26.453 198.6 26.853C198.3 26.953 197.9 27.153 197.7 27.453C197.4 27.753 197.1 28.053 196.9 28.453C196.7 28.853 196.5 29.253 196.3 29.553C196.1 29.953 195.8 30.353 195.6 30.753C195.3 31.153 195.1 31.653 194.9 32.153C194.9 32.253 194.8 32.453 194.9 32.453C195.2 32.853 203.8 27.453 203.9 27.453C203.9 27.353 204 27.353 204.1 27.353ZM183.1 20.453C182.7 20.153 182.4 20.353 182.4 20.753C182.4 21.153 183.2 27.053 183.3 27.053C183.7 26.553 184.2 25.853 184.6 24.953C184.8 24.353 185.4 22.953 185.4 22.453C185.4 22.253 185.3 22.153 185.3 22.053C185.2 21.953 185.1 21.853 185 21.653L183.1 20.453ZM201.4 28.453C201.3 28.453 201.4 28.453 201.4 28.453C200.8 28.153 200.4 27.953 199.8 27.953C199.3 27.953 198.8 27.953 198.4 28.153C198.2 28.253 198 28.353 197.9 28.453C197.7 28.653 197.6 28.853 197.5 29.053C197.4 29.253 197.3 29.453 197.1 29.653C197 29.853 196.8 30.053 196.7 30.353C196.6 30.553 196.4 30.853 196.3 31.153C196.3 31.153 196.2 31.253 196.3 31.353C196.5 31.553 201.3 28.553 201.3 28.553C201.3 28.553 201.3 28.553 201.4 28.453Z" fill="white"/>
<path fill-rule="evenodd" clip-rule="evenodd" d="M183.3 22.2C183.1 22.1 182.9 22.1 182.9 22.4C182.9 22.6 183.4 25.9 183.4 25.9C183.6 25.6 183.9 25.2 184.1 24.7C184.2 24.4 184.6 23.6 184.5 23.3C184.5 23.2 184.5 23.1 184.4 23.1C184.4 23 184.3 23 184.2 22.9L183.3 22.2ZM201.5 28.4C201.5 28.3 201.5 28.3 201.5 28.4C200.9 28.1 200.5 28 200 27.9C199.5 27.9 199.1 27.9 198.6 28.1C198.4 28.2 198.2 28.3 198.1 28.4C197.9 28.6 197.8 28.7 197.7 28.9C197.6 29.1 197.5 29.3 197.4 29.5C197.3 29.7 197.2 29.9 197 30.1C196.9 30.3 196.7 30.6 196.6 30.8C196.6 30.8 196.5 30.9 196.6 31C196.8 31.2 201.3 28.3 201.4 28.3C201.5 28.4 201.5 28.4 201.5 28.4Z" fill="#151B19"/>
<path fill-rule="evenodd" clip-rule="evenodd" d="M182.7 15.753C182.8 15.953 182.8 16.153 182.9 16.453C183.1 16.553 183.3 16.653 183.6 16.753C183.6 16.753 183.7 16.653 183.8 16.653C184 16.353 184.2 16.153 184.4 15.853C184.7 15.353 185.1 14.653 184.9 14.053C184.8 13.553 186.1 11.853 186 11.253C185.8 10.553 185.4 10.353 185.6 10.053C185.7 9.75297 186.1 9.95297 186.6 9.55297C186.7 9.45297 187 9.25297 187.1 8.95297C187.2 8.65297 187.1 8.45297 187 8.15297C186.9 7.95297 186.7 7.75297 186.5 7.55297C186.3 7.35297 186 7.15297 185.7 6.85297C185.2 6.45297 184.6 6.05297 184.1 5.65297C183.6 5.35297 183.1 5.05297 182.5 4.95297C182.3 4.95297 182 4.95297 181.8 5.05297C181.6 5.15297 181.4 5.45297 181.4 5.65297C181.2 6.25297 181.3 6.95297 181.4 7.55297C181.5 8.25297 181.6 8.95297 181.7 9.65297C181.9 11.053 182.1 12.453 182.4 13.753C182.3 14.353 182.5 15.053 182.7 15.753Z" fill="white"/>
<path fill-rule="evenodd" clip-rule="evenodd" d="M187.1 41.853C186.8 41.553 181.9 37.653 181.6 37.353C181.4 37.253 181.3 37.153 181.1 37.053C181 37.053 180.9 36.953 180.9 36.953C180.8 36.953 180.7 36.953 180.6 36.953C180.6 36.953 180.6 37.053 180.5 37.053C180.5 37.053 180.5 37.153 180.4 37.153C180.4 37.253 180.3 37.353 180.3 37.453C180.2 37.653 180.1 37.853 180 37.953C179.8 38.253 179.7 38.653 179.7 39.053C179.6 39.753 179.7 40.553 180 41.153C180.4 41.953 181.1 42.553 181.8 42.953C182.1 43.153 182.5 43.253 182.9 43.353C183.3 43.453 185.6 43.653 185.8 43.653C186 43.653 186.2 43.653 186.4 43.553C186.6 43.553 186.8 43.553 187 43.453C187.2 43.453 187.4 43.453 187.5 43.353C187.6 43.253 187.8 43.153 187.8 43.053C187.8 42.853 187.8 42.653 187.7 42.553C187.7 42.353 187.4 42.153 187.1 41.853Z" fill="#1B201C"/>
<path d="M229.9 10.753H241.5C244.3 10.753 246.5 13.053 246.5 15.753V78.353C246.5 81.153 244.2 83.353 241.5 83.353H197.7" stroke="black" stroke-width="4" stroke-miterlimit="10" stroke-linecap="round" stroke-linejoin="round"/>
<path d="M165.6 85.353H117C113.1 85.353 110 82.253 110 78.353V15.753C110 11.853 113.1 8.75296 117 8.75296H134.7C135.8 8.75296 136.7 9.65296 136.7 10.753C136.7 11.853 135.8 12.753 134.7 12.753H117C115.3 12.753 114 14.053 114 15.753V78.353C114 80.053 115.3 81.353 117 81.353H165.7C166.8 81.353 167.7 82.253 167.7 83.353C167.7 84.453 166.7 85.353 165.6 85.353Z" fill="black"/>
<path d="M132.9 10.753H117.5L118.9 6.15297C119.3 4.85297 120.5 3.85297 121.9 3.85297H128.4C129.8 3.85297 131 4.75297 131.4 6.15297L132.9 10.753Z" fill="black"/>
<path fill-rule="evenodd" clip-rule="evenodd" d="M237.2 23.253C237.2 24.353 236.3 25.253 235.2 25.253H230.2C229.1 25.253 228.2 24.353 228.2 23.253V20.953C228.2 19.853 229.1 18.953 230.2 18.953H235.2C236.3 18.953 237.2 19.853 237.2 20.953V23.253Z" fill="black"/>
</svg>
