<svg width="23" height="23" viewBox="0 0 23 23" fill="none" xmlns="http://www.w3.org/2000/svg">
<path d="M17.8969 22C17.0294 22 15.9778 21.79 14.7949 21.3438C12.2449 20.3727 9.4846 18.4829 6.9872 16.0156C4.48979 13.5221 2.59702 10.7661 1.65064 8.22012C0.78312 5.91035 0.78312 4.02054 1.65064 3.12813C1.78208 2.99689 1.91352 2.86566 2.04497 2.73442C2.83362 1.8945 3.72743 0.949598 4.9367 1.00209C5.72535 1.02834 6.514 1.55329 7.32895 2.55069C9.7212 5.54289 8.64337 6.59279 7.40781 7.82641L7.1975 8.03639C6.9872 8.27262 6.59287 9.21752 10.1944 12.8134C11.3774 13.9945 12.3763 14.8607 13.165 15.3594C13.6645 15.6744 14.5846 16.1731 14.9526 15.8056L15.1629 15.5694C16.3985 14.3095 17.45 13.2334 20.4469 15.6481C21.4721 16.4618 21.9716 17.2492 21.9979 18.0629C22.0505 19.244 21.1041 20.1364 20.2629 20.9501C20.1314 21.0813 20 21.2126 19.8685 21.3438C19.4479 21.79 18.7644 22 17.8969 22Z" stroke="#00AFCC" stroke-width="2"/>
</svg>
