<svg width="196" height="173" viewBox="0 0 196 173" fill="none" xmlns="http://www.w3.org/2000/svg">
<path d="M167.4 21.9012C167.5 21.9012 167.6 21.9012 167.7 21.9012C167.9 21.9012 168 22.0012 168.2 22.0012C168.3 22.0012 168.4 22.0012 168.5 22.1012C168.7 22.1012 168.8 22.2012 169 22.3012C169.1 22.3012 169.2 22.4012 169.3 22.4012C169.5 22.5012 169.7 22.6012 169.9 22.7012C169.9 22.7012 170 22.7012 170 22.8012C170.2 22.9012 170.5 23.0012 170.7 23.2012C170.8 23.2012 170.8 23.3012 170.9 23.3012C171.1 23.4012 171.2 23.5012 171.4 23.6012C171.5 23.7012 171.6 23.7012 171.6 23.8012C171.7 23.9012 171.9 24.0012 172 24.1012C172.1 24.2012 172.2 24.2012 172.2 24.3012C172.3 24.4012 172.4 24.5012 172.5 24.6012C172.6 24.7012 172.6 24.8012 172.7 24.8012C172.8 24.9012 172.9 25.0012 173 25.2012C173.1 25.3012 173.1 25.4012 173.2 25.5012C173.3 25.6012 173.4 25.8012 173.5 25.9012C173.6 26.0012 173.6 26.1012 173.7 26.2012C173.8 26.3012 173.9 26.5012 173.9 26.6012C174 26.7012 174 26.8012 174 26.9012C174.1 27.1012 174.1 27.2012 174.2 27.4012C174.2 27.5012 174.3 27.6012 174.3 27.7012C174.4 27.9012 174.4 28.1012 174.5 28.2012C174.5 28.3012 174.6 28.4012 174.6 28.5012C174.7 28.8012 174.7 29.1012 174.8 29.4012L190.7 138.501C191.4 143.401 188.2 147.701 183.3 148.401L51.2 167.401C50.8 167.501 50.4 167.501 50 167.501H49.9C49.8 167.501 49.7 167.501 49.7 167.501C49.6 167.501 49.5 167.501 49.3 167.501C49.1 167.501 49 167.501 48.8 167.501C48.7 167.501 48.6 167.501 48.5 167.501C48.3 167.501 48.2 167.401 48 167.401C47.9 167.401 47.8 167.401 47.7 167.301C47.5 167.301 47.4 167.201 47.2 167.101C47.1 167.101 47 167.001 46.9 167.001C46.7 166.901 46.5 166.801 46.3 166.701C46.3 166.701 46.2 166.701 46.2 166.601C46 166.501 45.7 166.401 45.5 166.201C45.4 166.201 45.4 166.101 45.3 166.101C45.1 166.001 45 165.901 44.8 165.801C44.7 165.701 44.6 165.701 44.6 165.601C44.5 165.501 44.3 165.401 44.2 165.301C44.1 165.201 44 165.201 44 165.101C43.9 165.001 43.8 164.901 43.7 164.801C43.6 164.701 43.6 164.601 43.5 164.601C43.4 164.501 43.3 164.401 43.2 164.201C43.1 164.101 43.1 164.001 43 163.901C42.9 163.801 42.8 163.601 42.7 163.501C42.6 163.401 42.6 163.301 42.5 163.201C42.4 163.101 42.3 162.901 42.3 162.801C42.2 162.701 42.2 162.601 42.2 162.501C42.1 162.301 42.1 162.201 42 162.001C42 161.901 41.9 161.801 41.9 161.701C41.8 161.501 41.8 161.301 41.7 161.201C41.7 161.101 41.6 161.001 41.6 160.901C41.5 160.601 41.5 160.301 41.4 160.001L39 144.301H38H34.2L36.5 160.001C37.5 167.201 43.5 172.301 50.6 172.301C51.3 172.301 52 172.201 52.8 172.101L183.2 153.101C191.1 151.901 196.5 144.801 195.3 136.901L179.6 29.3012C178.6 22.7012 173.6 18.0012 167.4 17.2012V17.7012V21.9012Z" fill="#666666"/>
<path d="M48.4 167.401C48.2 167.401 48.1 167.301 47.9 167.301C48.1 167.401 48.2 167.401 48.4 167.401Z" fill="white"/>
<path d="M47.6 167.301C47.4 167.301 47.3 167.201 47.1 167.101C47.3 167.201 47.4 167.201 47.6 167.301Z" fill="white"/>
<path d="M46.8 167.001C46.6 166.901 46.4 166.801 46.2 166.701C46.4 166.901 46.6 166.901 46.8 167.001Z" fill="white"/>
<path d="M46.1 166.701C45.9 166.601 45.6 166.501 45.4 166.301C45.6 166.501 45.9 166.601 46.1 166.701Z" fill="white"/>
<path d="M45.2 166.201C45 166.101 44.9 166.001 44.7 165.901C44.9 166.001 45 166.101 45.2 166.201Z" fill="white"/>
<path d="M174.6 28.5012C174.7 28.8012 174.7 29.1012 174.8 29.4012C174.8 29.0012 174.7 28.7012 174.6 28.5012Z" fill="white"/>
<path d="M174.4 27.6012C174.5 27.8012 174.5 28.0012 174.6 28.1012C174.5 28.0012 174.5 27.8012 174.4 27.6012Z" fill="white"/>
<path d="M168.5 22.1012C168.7 22.1012 168.8 22.2012 169 22.3012C168.9 22.2012 168.7 22.2012 168.5 22.1012Z" fill="white"/>
<path d="M42.4 163.301C42.3 163.201 42.2 163.001 42.2 162.901C42.3 163.001 42.3 163.101 42.4 163.301Z" fill="white"/>
<path d="M41.7 161.801C41.6 161.601 41.6 161.401 41.5 161.301C41.6 161.401 41.7 161.601 41.7 161.801Z" fill="white"/>
<path d="M174.1 26.9012C174.2 27.1012 174.2 27.2012 174.3 27.4012C174.2 27.2012 174.2 27.0012 174.1 26.9012Z" fill="white"/>
<path d="M44.5 165.701C44.4 165.601 44.2 165.501 44.1 165.401C44.2 165.501 44.4 165.601 44.5 165.701Z" fill="white"/>
<path d="M41.5 160.901C41.4 160.601 41.4 160.301 41.3 160.001C41.4 160.401 41.4 160.701 41.5 160.901Z" fill="white"/>
<path d="M42 162.501C41.9 162.301 41.9 162.201 41.8 162.001C41.9 162.201 42 162.401 42 162.501Z" fill="white"/>
<path d="M43.9 165.201C43.8 165.101 43.7 165.001 43.6 164.901C43.7 165.001 43.8 165.101 43.9 165.201Z" fill="white"/>
<path d="M42.8 163.901C42.7 163.801 42.6 163.601 42.5 163.501C42.7 163.701 42.7 163.801 42.8 163.901Z" fill="white"/>
<path d="M43.3 164.601C43.2 164.501 43.1 164.401 43 164.201C43.1 164.301 43.2 164.501 43.3 164.601Z" fill="white"/>
<path d="M170.9 23.2012C171.1 23.3012 171.2 23.4012 171.4 23.5012C171.2 23.4012 171.1 23.3012 170.9 23.2012Z" fill="white"/>
<path d="M171.6 23.7012C171.7 23.8012 171.9 23.9012 172 24.0012C171.9 23.9012 171.8 23.8012 171.6 23.7012Z" fill="white"/>
<path d="M172.2 24.2012C172.3 24.3012 172.4 24.4012 172.5 24.5012C172.5 24.4012 172.4 24.3012 172.2 24.2012Z" fill="white"/>
<path d="M173.7 26.1012C173.8 26.2012 173.9 26.4012 173.9 26.5012C173.9 26.4012 173.8 26.3012 173.7 26.1012Z" fill="white"/>
<path d="M167.7 22.0012C167.9 22.0012 168 22.1012 168.2 22.1012C168.1 22.0012 167.9 22.0012 167.7 22.0012Z" fill="white"/>
<path d="M169.3 22.4012C169.5 22.5012 169.7 22.6012 169.9 22.7012C169.7 22.5012 169.5 22.5012 169.3 22.4012Z" fill="white"/>
<path d="M170 22.7012C170.2 22.8012 170.5 22.9012 170.7 23.1012C170.5 22.9012 170.3 22.8012 170 22.7012Z" fill="white"/>
<path d="M172.8 24.8011C172.9 24.9011 173 25.0011 173.1 25.2011C173 25.0011 172.9 24.9011 172.8 24.8011Z" fill="white"/>
<path d="M173.3 25.4012C173.4 25.5012 173.5 25.7012 173.6 25.8012C173.5 25.7012 173.4 25.6012 173.3 25.4012Z" fill="white"/>
<path d="M41.5 160.901C41.5 161.001 41.6 161.101 41.6 161.201C41.7 161.401 41.7 161.601 41.8 161.701C41.8 161.801 41.9 161.901 41.9 162.001C42 162.201 42 162.301 42.1 162.501C42.1 162.601 42.2 162.701 42.2 162.801C42.3 162.901 42.3 163.101 42.4 163.201C42.5 163.301 42.5 163.401 42.6 163.501C42.7 163.601 42.8 163.801 42.9 163.901C43 164.001 43 164.101 43.1 164.201C43.2 164.301 43.3 164.401 43.4 164.601C43.5 164.701 43.5 164.801 43.6 164.801C43.7 164.901 43.8 165.001 43.9 165.101C44 165.201 44.1 165.201 44.1 165.301C44.2 165.401 44.4 165.501 44.5 165.601C44.6 165.701 44.7 165.701 44.7 165.801C44.9 165.901 45 166.001 45.2 166.101C45.3 166.101 45.3 166.201 45.4 166.201C45.6 166.301 45.9 166.501 46.1 166.601C46.1 166.601 46.2 166.601 46.2 166.701C46.4 166.801 46.6 166.901 46.8 167.001C46.9 167.001 47 167.101 47.1 167.101C47.3 167.201 47.4 167.201 47.6 167.301C47.7 167.301 47.8 167.301 47.9 167.401C48.1 167.401 48.2 167.501 48.4 167.501C48.5 167.501 48.6 167.501 48.7 167.501C48.9 167.501 49 167.501 49.2 167.501C49.3 167.501 49.4 167.501 49.6 167.501C49.7 167.501 49.9 167.501 50 167.501C50.4 167.501 50.8 167.501 51.2 167.401L183.3 148.201C188.2 147.501 191.4 143.201 190.7 138.301L174.8 29.3011C174.8 29.0011 174.7 28.7011 174.6 28.4011C174.6 28.3011 174.5 28.2011 174.5 28.1011C174.4 27.9011 174.4 27.7011 174.3 27.6011C174.3 27.5011 174.2 27.4011 174.2 27.3011C174.1 27.1011 174.1 27.0011 174 26.8011C174 26.7011 173.9 26.6011 173.9 26.5011C173.8 26.4011 173.8 26.2011 173.7 26.1011C173.6 26.0011 173.6 25.9011 173.5 25.8011C173.4 25.7011 173.3 25.5011 173.2 25.4011C173.1 25.3011 173.1 25.2011 173 25.1011C172.9 25.0011 172.8 24.9011 172.7 24.7011C172.6 24.6011 172.6 24.5011 172.5 24.5011C172.4 24.4011 172.3 24.3011 172.2 24.2011C172.1 24.1011 172 24.1011 172 24.0011C171.9 23.9011 171.7 23.8011 171.6 23.7011C171.5 23.6011 171.5 23.6011 171.4 23.5011C171.2 23.4011 171.1 23.3011 170.9 23.2011C170.8 23.2011 170.8 23.1011 170.7 23.1011C170.5 23.0011 170.2 22.8011 170 22.7011C170 22.7011 169.9 22.7011 169.9 22.6011C169.7 22.5011 169.5 22.4011 169.3 22.3011C169.2 22.3011 169.1 22.2011 169 22.2011C168.8 22.1011 168.7 22.1011 168.5 22.0011C168.4 22.0011 168.3 22.0011 168.2 21.9011C168 21.9011 167.9 21.8011 167.7 21.8011C167.6 21.8011 167.5 21.8011 167.4 21.8011V22.5011V122.901C167.4 134.901 158 144.201 146.1 144.201H39L41.3 160.001C41.4 160.401 41.4 160.701 41.5 160.901Z" fill="white"/>
<path d="M33.2 137.301H38H146.1C154.1 137.301 160.4 131.001 160.4 123.001V22.6012V17.7012V14.3012C160.4 6.30117 154.1 0.00117413 146.1 0.00117413H14.3C6.3 -0.0988259 0 6.20117 0 14.2012V123.001C0 131.001 6.3 137.301 14.3 137.301H33.2ZM13.4 132.401C8.5 132.401 4.7 128.601 4.7 123.701V13.5012C4.7 8.60118 8.5 4.80117 13.4 4.80117H147C151.9 4.80117 155.7 8.60118 155.7 13.5012V123.701C155.7 128.601 151.9 132.401 147 132.401H13.4Z" fill="#666666"/>
<path d="M147 132.401C151.9 132.401 155.7 128.601 155.7 123.701V13.5011C155.7 8.60115 151.9 4.80115 147 4.80115H13.4C8.50001 4.80115 4.70001 8.60115 4.70001 13.5011V123.701C4.70001 128.601 8.50001 132.401 13.4 132.401H147Z" fill="white"/>
<path fill-rule="evenodd" clip-rule="evenodd" d="M60.9 66.8012C61.9 67.6012 63.3 67.9012 64.5 67.5012C63.3 67.7012 62.1 67.6012 60.9 66.8012Z" fill="#1A1D1E"/>
<path fill-rule="evenodd" clip-rule="evenodd" d="M92.7 56.3012C91.6 55.5012 92 52.1012 93 49.8012C94 47.5012 95.6 46.3012 98 46.5012C100.4 46.8012 103.5 48.6012 103.8 50.0012C104.1 51.4012 101.5 52.5012 98.9 53.9012C96.3 55.3012 93.8 57.1012 92.7 56.3012Z" fill="#1B1918"/>
<path fill-rule="evenodd" clip-rule="evenodd" d="M79.7 49.5012C80 49.3012 79.3 47.4012 78.8 46.4012C78.3 45.2012 77.9 44.4012 77.7 44.0012C77.4 43.4012 77.1 42.6012 76.6 37.2012C76.3 34.2012 76.2 32.2012 77.1 31.4012C78 30.6012 78.9 32.0012 80.1 32.4012C81.3 32.8012 81.3 33.1012 82.4 33.8012C89.4 37.9012 100.7 39.1012 108 35.6012C109.3 35.0012 112 32.9012 112.2 32.6012C112.7 31.2012 114.7 31.1012 114.5 31.6012C114.2 32.8012 115.8 35.4012 115.6 36.6012C115 40.5012 114.6 44.9012 113 48.4012L113.2 48.7012C113.3 48.8012 117.3 54.6012 115.5 62.9012C114.4 67.7012 112 72.1012 109.3 76.3012C104.1 84.3012 97 91.1012 90 97.6012C86.5 100.901 80.9 106.901 80.9 106.901C80.9 106.901 69.5 97.5012 66.2 94.7012C58.4 88.0012 50.9 80.9012 44.4 73.1012C41.3 69.4012 38.5 66.1012 37.6 61.2012C36.8 56.8012 37.4 52.2012 39.2 48.2012C39.9 46.6012 40.7 45.4012 41.1 45.0012C41.3 44.7012 43.6 41.5012 47 39.3012C50.9 36.9012 56.2 35.4012 61.2 36.6012C69.4 38.4012 76.9 46.4012 78.1 48.2012C78.4 48.5012 79.4 49.7012 79.7 49.5012Z" fill="white"/>
<path fill-rule="evenodd" clip-rule="evenodd" d="M47.2 50.6012C47.2 50.6012 47.2 50.7012 47.2 50.6012C47.3 50.6012 47.4 50.4012 47.5 50.4012C47.6 50.3012 47.7 50.1012 47.8 50.0012C48 49.8012 48.2 49.5012 48.3 49.3012C48.7 48.9012 49.2 48.4012 49.6 48.1012C51.5 46.6012 53.7 45.6012 56.1 45.1012C58.6 44.6012 61.3 44.7012 63.8 45.2012C66.2 45.7012 68.6 46.6012 70.8 47.8012C72.8 48.9012 74.7 50.4012 76 52.3012C76.7 53.3012 77.3 54.3012 77.6 55.5012C78 56.8012 78.1 58.1012 78 59.4012C77.9 60.7012 77.5 62.0012 77.4 63.4012C77.3 64.5012 78.3 65.0012 79.1 65.8012C79.5 66.2012 79.4 66.5012 80 66.7012C80.6 66.9012 80.9 66.8012 81.5 66.9012C81.7 66.9012 82.2 67.2012 82.4 67.0012C82.6 66.9012 82.4 67.3012 82.3 67.1012C82.2 66.9012 82.1 66.7012 81.9 66.5012C81.7 66.2012 81.5 66.0012 81.3 65.7012C80.9 65.2012 80.9 64.1012 80.4 63.7012C79.9 63.3012 79.5 63.0012 79 62.6012C78.6 62.2012 77.9 62.4012 77.8 61.9012C77.7 61.3012 77.9 60.6012 78 60.0012C78.3 58.7012 78.6 57.4012 78.8 56.1012C79 54.8012 79 53.4012 79 52.1012C78.9 49.4012 78.5 46.8012 77.8 44.2012C77.2 41.7012 76.3 39.2012 76 36.5012C76 35.2012 76 33.9012 76.3 32.6012C76.4 32.3012 76.4 31.9012 76.5 31.6012C76.6 31.3012 76.7 30.9012 77 30.7012C77.3 30.5012 77.8 30.6012 78.1 30.8012C78.4 31.0012 78.6 31.2012 78.9 31.3012C79.2 31.5012 79.4 31.7012 79.7 31.8012C80.8 32.5012 81.9 33.1012 83.1 33.7012C85.5 34.8012 88 35.4012 90.5 35.9012C91.8 36.1012 93.2 36.3012 94.5 36.5012C95.9 36.7012 97.2 36.8012 98.6 36.9012C99.9 37.0012 101.3 37.0012 102.6 36.9012C103.9 36.8012 105.2 36.5012 106.4 36.1012C107.6 35.7012 108.7 35.1012 109.7 34.4012C110.2 34.0012 110.7 33.7012 111.1 33.2012C111.5 32.8012 111.9 32.3012 112.4 31.8012C112.8 31.4012 113.2 30.9012 113.8 30.8012C114.4 30.7012 114.8 31.1012 115 31.6012C115.2 32.1012 115.3 32.7012 115.4 33.3012C115.5 34.0012 115.5 34.6012 115.6 35.3012C115.8 38.0012 115.6 40.7012 115.1 43.4012C114.9 44.7012 114.6 46.0012 114.2 47.2012C114 47.7012 113.9 48.3012 113.5 48.8012C113.4 49.0012 113.2 49.2012 112.9 49.3012C112.7 49.4012 112.5 49.5012 112.3 49.4012C112.1 49.2012 112.2 48.9012 112.3 48.7012C112.4 48.4012 112.5 48.1012 112.6 47.8012C112.8 47.2012 112.9 46.5012 113 45.9012C113.3 44.6012 113.5 43.3012 113.7 41.9012C113.8 41.2012 113.9 40.6012 114 39.9012C114.1 39.3012 114.1 38.7012 114 38.1012C113.9 37.9012 113.8 37.6012 113.6 37.5012C113.4 37.4012 113.1 37.4012 112.9 37.4012C112.4 37.5012 111.8 37.8012 111.4 38.1012C110.9 38.4012 110.3 38.8012 109.8 39.2012C109.5 39.4012 109.3 39.6012 109.1 39.8012C108.9 40.0012 108.7 40.2012 108.6 40.4012C108.5 40.6012 108.4 40.9012 108.5 41.1012C108.6 41.3012 108.8 41.5012 109 41.7012C109.2 41.9012 109.4 42.1012 109.5 42.4012C109.6 42.7012 109.6 43.0012 109.6 43.3012C109.6 43.8012 109.6 44.5012 110 44.9012C110.1 45.0012 110.2 45.1012 110.4 45.1012C110.5 45.1012 110.6 45.2012 110.7 45.2012C110.9 45.4012 110.7 45.7012 110.7 45.9012C110.6 46.5012 110.9 47.2012 111.2 47.7012C111.5 48.2012 111.9 48.7012 112.4 49.1012C112.8 49.6012 113.3 50.0012 113.7 50.5012C114.1 51.0012 114.4 51.4012 114.8 52.0012C115.5 53.1012 115.9 54.2012 116.3 55.4012C117 57.9012 116.9 60.6012 116.4 63.2012C115.9 65.7012 115 68.1012 113.9 70.4012C112.8 72.7012 111.4 74.9012 109.9 77.0012C108.4 79.1012 106.8 81.2012 105.1 83.1012C103.4 85.1012 101.5 87.0012 99.6 88.9012C97.7 90.8012 95.7 92.7012 93.7 94.5012C91.7 96.3012 89.7 98.2012 87.7 100.001C86.7 100.901 85.7 101.901 84.8 102.801C83.9 103.701 83 104.701 82 105.601C81.8 105.801 81.6 106.001 81.4 106.201C81.4 106.301 81.2 106.401 81.2 106.501C81.3 106.601 81.4 106.501 81.5 106.401C82 106.001 82.4 105.501 82.8 105.101C83.7 104.201 84.5 103.201 85.2 102.201C86.5 100.101 87.1 97.6012 87 95.2012C87 94.6012 86.9 93.9012 86.8 93.3012C86.7 92.7012 86.6 92.0012 86.4 91.4012C86.4 91.2012 86.3 90.9012 86.1 91.1012C86 91.2012 85.9 91.3012 85.8 91.4012C85.7 91.5012 85.6 91.6012 85.5 91.7012C85 92.0012 84.3 92.0012 83.9 92.4012C83.7 92.6012 83.6 92.8012 83.4 93.0012C83.2 93.2012 83.1 93.1012 83 92.9012C82.9 92.7012 83 92.5012 82.9 92.3012C82.9 92.0012 82.9 91.7012 82.8 91.3012C82.8 91.0012 82.7 90.7012 82.7 90.3012C82.7 90.1012 82.8 89.6012 82.5 89.6012C82.4 89.6012 82.2 89.7012 82.2 89.8012C82.1 89.9012 82 90.0012 81.9 90.1012C81.7 90.3012 81.4 90.5012 81.2 90.7012C81 90.8012 80.9 91.0012 80.7 91.0012C80.4 91.0012 80.3 90.8012 80.2 90.5012C79.9 90.0012 79.4 89.5012 79 89.1012C78.8 88.9012 78.6 88.7012 78.4 88.6012C78.3 88.5012 78.1 88.3012 77.9 88.3012C77.7 88.3012 77.7 88.7012 77.8 88.9012C77.8 89.2012 77.9 89.5012 77.9 89.9012C78 90.6012 78 91.2012 78.1 91.9012C78.1 92.2012 78.2 92.5012 78.2 92.8012C78.2 92.9012 78.2 93.0012 78.1 93.0012C78 93.1012 77.9 92.9012 77.9 92.8012C77.8 92.7012 77.8 92.5012 77.7 92.4012C77.6 92.3012 77.5 92.1012 77.4 92.0012C77.2 91.8012 77 91.6012 76.8 91.4012C76.6 91.2012 76.3 91.0012 76.1 91.0012C75.8 91.0012 75.7 91.3012 75.8 91.5012C75.8 91.7012 75.9 91.9012 75.9 92.1012C75.8 92.4012 75.5 92.2012 75.3 92.1012C75 91.9012 74.8 91.7012 74.5 91.6012C74.2 91.4012 73.9 91.3012 73.6 91.1012C73.1 90.8012 72.5 90.5012 72 90.1012C71.8 90.0012 71.6 89.8012 71.4 90.1012C71.3 90.3012 71.3 90.6012 71.3 90.9012C71.3 91.2012 71.4 91.5012 71.5 91.8012C71.6 92.1012 71.7 92.4012 71.9 92.6012C72 92.7012 72 92.8012 72 92.9012C72 93.0012 71.8 93.0012 71.7 93.0012C71.6 93.0012 71.4 93.0012 71.3 93.0012C71.1 93.0012 71 93.1012 70.8 93.1012C70.2 93.3012 69.6 93.6012 69 93.8012C68.7 93.9012 68.4 94.1012 68.1 94.2012C67.9 94.3012 67.6 94.4012 67.3 94.5012C67.1 94.6012 66.8 94.7012 66.9 95.0012C67 95.2012 67.2 95.3012 67.4 95.5012C67.9 95.9012 68.4 96.3012 68.9 96.7012C69.9 97.6012 70.9 98.5012 71.9 99.4012C73.9 101.201 76 102.901 78.1 104.501C78.6 104.901 79.1 105.301 79.6 105.701C79.9 106.001 80.3 106.201 80.7 106.401C80.8 106.401 81 106.501 80.9 106.301C80.9 106.201 80.8 106.101 80.7 106.101C80.6 106.001 80.5 105.901 80.3 105.801C79.7 105.401 79.2 105.101 78.6 104.701C77.5 103.901 76.5 103.101 75.4 102.201C74.3 101.401 73.3 100.501 72.2 99.7012C70.1 98.0012 68 96.3012 65.9 94.5012C63.8 92.8012 61.8 91.0012 59.8 89.2012C57.8 87.4012 55.8 85.6012 53.8 83.8012C51.8 82.0012 49.9 80.1012 48 78.2012C45.3 75.4012 42.7 72.4012 40.8 69.0012C40.3 68.1012 39.8 67.1012 39.3 66.1012C38.3 63.8012 37.5 61.3012 37.2 58.8012C36.9 56.2012 37 53.5012 37.7 51.0012C38.3 48.7012 39.4 46.4012 40.8 44.5012C42.2 42.6012 43.9 40.9012 45.9 39.6012C47.9 38.3012 50.2 37.3012 52.6 36.8012C55.2 36.3012 57.9 36.3012 60.4 36.8012C61.1 36.9012 61.7 37.1012 62.4 37.3012C62.9 37.4012 63.3 37.5012 63.8 37.7012C63.8 37.7012 64.1 37.8012 64 37.9012C63.9 37.9012 63.8 37.9012 63.8 37.9012C63.7 37.9012 63.7 37.9012 63.6 37.8012C63 37.6012 62.4 37.4012 61.7 37.3012C59.1 36.7012 56.4 36.7012 53.9 37.2012C51.5 37.6012 49.2 38.6012 47.2 39.9012C45.3 41.2012 43.6 42.9012 42.3 44.8012C41.6 45.9012 41.1 47.0012 40.6 48.2012C40.4 48.8012 40.1 49.4012 40 50.0012C40 50.1012 39.9 50.3012 40 50.4012C40 50.5012 40.1 50.5012 40.1 50.4012C40.2 50.3012 40.2 50.2012 40.3 50.1012C40.5 49.5012 40.7 48.9012 41 48.3012C41.3 47.7012 41.6 47.2012 41.9 46.7012C42.6 45.7012 43.4 44.7012 44.3 43.8012C46 42.1012 48 40.7012 50.1 39.6012C52.4 38.5012 54.9 37.8012 57.4 37.6012C58.7 37.5012 60 37.6012 61.3 37.7012C61.4 37.7012 61.6 37.7012 61.7 37.7012C61.8 37.7012 62 37.7012 62.1 37.8012C62.1 37.9012 61.9 37.9012 61.9 37.9012C61.7 37.9012 61.6 37.9012 61.4 37.9012C60.7 37.8012 60.1 37.8012 59.4 37.9012C58.7 38.0012 58.1 38.1012 57.4 38.2012C56.8 38.3012 56.1 38.4012 55.5 38.6012C55.4 38.6012 55 38.7012 55.2 38.8012C55.3 38.9012 55.5 38.8012 55.6 38.8012C56.2 38.7012 56.8 38.6012 57.4 38.5012C58.7 38.4012 60 38.5012 61.3 38.6012C62.6 38.7012 63.9 39.0012 65.2 39.3012C67.6 39.9012 69.9 41.0012 72 42.3012C73.1 43.0012 74.1 43.7012 75 44.6012C76 45.5012 76.9 46.4012 77.7 47.4012C78.1 47.9012 78.5 48.3012 78.9 48.9012C78.9 49.0012 79.1 49.1012 79.1 49.2012C79 49.3012 78.9 49.1012 78.9 49.1012C78.7 48.9012 78.5 48.6012 78.3 48.4012C77.5 47.4012 76.6 46.6012 75.6 45.8012C73.7 44.3012 71.5 43.0012 69.2 42.1012C68.6 41.9012 68 41.7012 67.4 41.5012C67.1 41.4012 66.8 41.3012 66.5 41.2012C66.4 41.2012 66.3 41.1012 66.3 41.2012C66.2 41.2012 66.2 41.3012 66.3 41.4012C66.4 41.5012 66.4 41.5012 66.5 41.5012C66.6 41.6012 66.8 41.7012 66.9 41.7012C67.2 41.9012 67.4 42.1012 67.7 42.2012C68.2 42.6012 68.8 43.0012 69.3 43.4012C69.8 43.8012 70.4 44.2012 71 44.5012C71.3 44.7012 71.5 44.8012 71.8 45.0012C71.9 45.1012 72 45.2012 72.1 45.3012L72.2 45.4012C72.2 45.5012 72.1 45.5012 72 45.4012C71.9 45.4012 71.8 45.3012 71.7 45.2012C71.5 45.1012 71.4 45.0012 71.2 45.0012C70.6 44.7012 70.1 44.4012 69.5 44.2012C67 43.3012 64.4 42.8012 61.7 42.8012C61 42.8012 60.4 42.8012 59.7 42.9012C59 43.0012 58.4 43.0012 57.7 43.1012C57.4 43.1012 57.1 43.1012 56.8 43.2012C56.7 43.2012 56.3 43.3012 56.3 43.4012C56.3 43.5012 56.5 43.5012 56.6 43.5012C56.7 43.5012 56.9 43.5012 57 43.5012C57.3 43.5012 57.7 43.4012 58 43.4012C58.6 43.4012 59.3 43.4012 59.9 43.4012C60.6 43.4012 61.2 43.5012 61.9 43.6012C63.2 43.8012 64.5 44.1012 65.7 44.5012C66.3 44.7012 66.9 44.9012 67.6 45.2012C68.2 45.4012 68.8 45.7012 69.4 46.0012C69.9 46.2012 70.5 46.4012 70.9 46.7012C70.9 46.7012 71.1 46.8012 71 46.9012C71 47.0012 70.9 46.9012 70.8 46.9012C70.6 46.9012 70.5 46.8012 70.3 46.7012C69.2 46.2012 68 45.7012 66.8 45.4012C65.5 45.0012 64.2 44.7012 62.9 44.5012C60.4 44.1012 57.7 44.1012 55.2 44.7012C53 45.3012 50.9 46.4012 49.3 48.0012C48.9 48.4012 48.5 48.9012 48.2 49.3012C48 49.6012 47.8 49.8012 47.6 50.1012C47.4 50.0012 47 50.6012 47.2 50.6012Z" fill="#FF7D00"/>
<path fill-rule="evenodd" clip-rule="evenodd" d="M78.2 72.9012C76.8 71.9012 75.3 71.1012 73.7 70.3012C70 68.6012 66.1 67.6012 62.2 66.6012C59.9 66.0012 57.6 65.5012 55.6 64.2012C53.6 62.9012 52 60.8012 51.9 58.5012C51.9 56.1012 53.8 53.7012 56.2 53.9012C54 53.4012 51.7 55.4012 51.5 57.7012C51.1 61.2012 54.1 63.8012 57 65.3012C60 66.9012 63.4 67.7012 66.7 68.6012C70.1 69.6012 73.6 70.8012 76.5 72.9012C82.1 77.1012 85.4 83.8012 86.5 90.5012C86.6 91.0012 86.6 91.5012 86.7 92.0012C86.7 92.2012 86.7 92.5012 86.8 92.7012C86.8 92.5012 87.2 92.0012 87.3 91.7012C87.4 91.3012 87.3 90.9012 87.4 90.5012C87.6 87.2012 90.4 85.4012 92.7 83.6012C95.5 81.4012 98 78.5012 99.9 75.4012C99.9 75.3012 100 75.3012 100 75.2012C102 71.8012 103.5 67.8012 102.5 63.9012C105.1 62.5012 108.2 62.0012 111 62.8012C110.9 60.4012 110.6 57.6012 108.6 56.2012C106.6 54.7012 103.6 55.4012 101.5 56.7012C96.3 59.7012 92.7 65.4012 87 67.5012C91.4 67.4012 95.1 63.9012 99.5 63.6012C95.1 66.2012 90.5 67.8012 85.5 69.0012C83.6 69.5012 83.9 71.2012 83.8 72.7012C83.8 74.3012 83.5 76.1012 83.3 77.7012C81.8 75.9012 80.1 74.3012 78.2 72.9012ZM97.9 53.6012C97.9 53.5012 97.8 53.5012 97.8 53.5012C97.1 53.2012 96.4 52.9012 95.5 52.8012C94.8 52.8012 94 52.8012 93.3 53.1012C93 53.2012 92.7 53.4012 92.5 53.6012C92.2 53.8012 92 54.1012 91.9 54.5012C91.7 54.8012 91.5 55.1012 91.4 55.5012C91.2 55.8012 91 56.2012 90.8 56.5012C90.6 56.9012 90.4 57.3012 90.2 57.7012C90.2 57.8012 90.1 57.9012 90.2 58.0012C90.5 58.3012 97.7 53.8012 97.8 53.8012C97.8 53.6012 97.9 53.6012 97.9 53.6012ZM80.2 47.8012C79.9 47.6012 79.6 47.7012 79.6 48.1012C79.6 48.5012 80.3 53.4012 80.4 53.4012C80.7 53.0012 81.1 52.4012 81.5 51.7012C81.7 51.2012 82.2 50.0012 82.1 49.6012C82.1 49.5012 82 49.4012 82 49.3012C82 49.2012 81.9 49.1012 81.7 49.0012L80.2 47.8012ZM95.6 54.6012C95.1 54.4012 94.7 54.2012 94.3 54.2012C93.9 54.2012 93.5 54.2012 93.1 54.4012C92.9 54.5012 92.8 54.6012 92.7 54.7012C92.6 54.8012 92.4 55.0012 92.3 55.2012C92.2 55.4012 92.1 55.6012 92 55.7012C91.9 55.9012 91.8 56.1012 91.7 56.3012C91.6 56.5012 91.5 56.7012 91.4 56.9012C91.4 56.9012 91.3 57.0012 91.4 57.1012C91.6 57.3012 95.6 54.7012 95.6 54.7012C95.6 54.6012 95.6 54.6012 95.6 54.6012Z" fill="white"/>
<path fill-rule="evenodd" clip-rule="evenodd" d="M80.5 49.0012C80.3 48.9012 80.2 48.9012 80.2 49.1012C80.2 49.3012 80.6 52.1012 80.6 52.1012C80.8 51.9012 81 51.6012 81.2 51.1012C81.3 50.8012 81.6 50.1012 81.6 49.9012C81.6 49.8012 81.6 49.8012 81.5 49.7012C81.5 49.7012 81.4 49.6012 81.4 49.5012L80.5 49.0012ZM95.9 54.2012C95.8 54.2012 95.9 54.2012 95.9 54.2012C95.4 54.0012 95.1 53.8012 94.6 53.8012C94.2 53.8012 93.8 53.8012 93.4 54.0012C93.2 54.1012 93.1 54.2012 93 54.3012C92.9 54.4012 92.8 54.6012 92.7 54.8012C92.6 55.0012 92.5 55.1012 92.4 55.3012C92.3 55.5012 92.2 55.7012 92.1 55.8012C92 56.0012 91.9 56.2012 91.8 56.4012C91.8 56.4012 91.8 56.5012 91.8 56.6012C91.9 56.8012 95.8 54.4012 95.8 54.3012C95.8 54.2012 95.8 54.2012 95.9 54.2012Z" fill="#151B19"/>
<path fill-rule="evenodd" clip-rule="evenodd" d="M79.9 43.8012C80 44.0012 80 44.2012 80.1 44.4012C80.3 44.5012 80.5 44.6012 80.7 44.6012C80.7 44.6012 80.8 44.6012 80.8 44.5012C81 44.3012 81.2 44.1012 81.3 43.8012C81.6 43.4012 81.9 42.8012 81.7 42.3012C81.6 41.9012 82.7 40.5012 82.6 40.0012C82.5 39.4012 82.1 39.2012 82.2 39.0012C82.3 38.8012 82.6 38.9012 83.1 38.6012C83.2 38.5012 83.4 38.3012 83.5 38.1012C83.6 37.9012 83.5 37.7012 83.4 37.5012C83.3 37.3012 83.1 37.1012 83 37.0012C82.8 36.8012 82.6 36.6012 82.3 36.5012C81.9 36.2012 81.4 35.8012 80.9 35.5012C80.5 35.2012 80 35.0012 79.6 34.9012C79.4 34.9012 79.2 34.9012 79 35.0012C78.8 35.1012 78.7 35.3012 78.6 35.5012C78.4 36.0012 78.5 36.6012 78.6 37.1012C78.7 37.7012 78.8 38.3012 78.8 38.8012C79 40.0012 79.1 41.1012 79.4 42.3012C79.6 42.7012 79.7 43.3012 79.9 43.8012Z" fill="white"/>
<path fill-rule="evenodd" clip-rule="evenodd" d="M83.6 65.8012C83.4 65.6012 79.3 62.2012 79 62.0012C78.9 61.9012 78.7 61.8012 78.6 61.8012C78.5 61.8012 78.5 61.7012 78.4 61.7012C78.3 61.7012 78.2 61.7012 78.2 61.7012C78.2 61.7012 78.2 61.7012 78.2 61.8012C78.2 61.8012 78.2 61.9012 78.1 61.9012C78.1 62.0012 78 62.1012 78 62.1012C77.9 62.3012 77.9 62.4012 77.8 62.6012C77.7 62.9012 77.6 63.2012 77.5 63.5012C77.4 64.1012 77.5 64.7012 77.8 65.3012C78.1 66.0012 78.7 66.5012 79.3 66.8012C79.6 67.0012 79.9 67.1012 80.2 67.2012C80.5 67.3012 82.5 67.5012 82.7 67.4012C82.9 67.4012 83 67.4012 83.2 67.3012C83.4 67.3012 83.5 67.3012 83.7 67.3012C83.8 67.3012 84 67.3012 84.1 67.2012C84.2 67.1012 84.3 67.0012 84.3 66.9012C84.3 66.7012 84.3 66.6012 84.2 66.5012C84.1 66.3012 83.9 66.1012 83.6 65.8012Z" fill="#1B201C"/>
<path d="M139.7 119.901H18.7C17 119.901 15.7 118.601 15.7 116.901V18.4012C15.7 16.7012 17 15.4012 18.7 15.4012H139.7C141.4 15.4012 142.7 16.7012 142.7 18.4012V116.901C142.7 118.601 141.4 119.901 139.7 119.901Z" stroke="#666666" stroke-width="4" stroke-miterlimit="10"/>
</svg>
