<svg width="30" height="30" viewBox="0 0 30 30" fill="none" xmlns="http://www.w3.org/2000/svg">
<path d="M0 23C0 17.6667 0 6.91667 0 6.83333C0.0833333 6.41667 0.0833333 5.91667 0.166667 5.5C0.416667 4 1.08333 2.66667 2.33333 1.66667C2.91667 1.16667 3.5 0.833333 4.25 0.583333C4.91667 0.25 6.83333 0 7 0C12.3333 0 17.6667 0 22.9167 0C23 0 23.75 0.0833333 24.1667 0.0833333C25 0.166667 25.75 0.416667 26.4167 0.75C27.1667 1.16667 27.75 1.58333 28.3333 2.25C29.1667 3.25 29.6667 4.33333 29.8333 5.58333C29.9167 5.91667 30 6.25 30 6.5C30 12.1667 30 23.75 29.9167 23.9167C29.8333 24.5833 29.6667 25.25 29.4167 25.9167C29 26.8333 28.4167 27.6667 27.6667 28.3333C27.0833 28.8333 26.5 29.1667 25.75 29.4167C25 29.6667 24.25 29.8333 23.5 29.9167C23.3333 29.9167 23.0833 29.9167 22.9167 30C17.5833 30 12.3333 30 7 30C6.83333 30 6.66667 30 6.41667 30C5.83333 29.9167 5.33333 29.8333 4.75 29.75C3.58333 29.4167 2.5 28.75 1.66667 27.75C1.16667 27.1667 0.833333 26.5833 0.583333 25.8333C0.25 25.0833 0 23.1667 0 23ZM8.66667 4.16667C7.66667 4.41667 6.75 4.83333 6 5.5C4.91667 6.41667 4.33333 7.66667 4.08333 9C3.91667 9.83333 3.91667 10.6667 3.91667 11.5C3.91667 12.75 3.91667 14.0833 3.91667 15.3333C3.91667 15.5 3.91667 15.6667 3.91667 15.9167C3.91667 17.1667 3.91667 18.4167 4 19.6667C4 20.4167 4.08333 21.1667 4.33333 21.8333C4.66667 22.9167 5.25 23.8333 6.08333 24.5833C6.91667 25.3333 7.83333 25.75 8.91667 25.9167C9.75 26.0833 18.5833 26.0833 19.6667 26.0833C20.25 26.0833 20.8333 26 21.4167 25.8333C22.4167 25.5833 23.3333 25.1667 24.0833 24.5C25.1667 23.5833 25.75 22.3333 26 21C26.1667 20.1667 26.1667 19.3333 26.1667 18.5C26.1667 17.25 26.1667 16 26.1667 14.75C26.1667 14.5 26.1667 14.25 26.1667 14C26.1667 12.75 26.1667 11.5833 26.0833 10.3333C26.0833 9.75 26 9.16667 25.8333 8.58333C25.5833 7.58333 25.1667 6.66667 24.5 5.91667C23.5833 4.83333 22.4167 4.25 21 4C19.6667 3.83333 9.5 4 8.66667 4.16667Z" fill="#00636D"/>
<path d="M18.0833 5.83337C18.9167 5.83337 19.8333 5.83337 20.6667 6.00004C21.5 6.16671 22.25 6.50004 22.9167 7.08337C23.5 7.66671 23.8333 8.41671 24 9.33337C24.0833 9.91671 24.1667 10.5834 24.1667 11.1667C24.1667 13.5834 24.1667 15.9167 24.1667 18.3334C24.1667 19.1667 24.1667 20.0834 23.9167 20.9167C23.75 21.6667 23.4167 22.4167 22.8333 22.9167C22.25 23.5 21.5 23.8334 20.6667 23.9167C20 24.0834 19.4167 24.1667 18.75 24.1667C16.3333 24.1667 14 24.1667 11.5833 24.1667C10.6667 24.1667 9.66667 24.1667 8.83333 23.9167C8.16667 23.75 7.58333 23.4167 7.08333 22.9167C6.58333 22.4167 6.25 21.75 6.08333 21C6 20.5 5.91667 20 5.91667 19.5C5.75 16.8334 5.83333 14.1667 5.83333 11.5834C5.83333 10.8334 5.83333 10.0834 6 9.33337C6.16667 8.50004 6.5 7.75004 7.08333 7.08337C8.41667 5.75004 10.4167 5.91671 12.1667 5.83337C13.6667 5.83337 15.0833 5.83337 16.5 5.83337C17.0833 5.83337 17.5833 5.83337 18.0833 5.83337ZM9.25 15C9.25 18.25 12 20.9167 15.3333 20.6667C18.1667 20.5 20.8333 18 20.6667 14.5834C20.5 11.75 18 9.08337 14.5833 9.33337C11.75 9.50004 9.33333 11.9167 9.25 15ZM19.5833 9.16671C19.5833 9.83337 20.1667 10.4167 20.9167 10.4167C21.6667 10.4167 22.25 9.75004 22.1667 9.08337C22.1667 8.33337 21.5 7.75004 20.75 7.83337C20.1667 7.83337 19.5833 8.41671 19.5833 9.16671Z" fill="#00636D"/>
<path d="M18.75 15C18.8333 17 17.0833 18.75 15 18.75C13 18.75 11.3333 17.0833 11.3333 15C11.3333 13 13.0833 11.25 15.0833 11.3333C17 11.3333 18.75 13 18.75 15Z" fill="#00636D"/>
</svg>
